<svg width="19" height="19" viewBox="0 0 19 19" fill="none" xmlns="http://www.w3.org/2000/svg">
<path d="M5.19224 10.7284C5.225 10.6957 5.27414 10.6957 5.32328 10.7121L5.43793 10.7612C5.99483 11.0397 6.61724 11.1707 7.23965 11.1707C7.27241 11.1707 7.28879 11.1871 7.28879 11.2034C7.35431 11.4983 7.6 11.7112 7.91121 11.7112L9.18879 11.7112L9.18879 10.6466L9.17241 10.6466C9.09052 10.6629 9.025 10.6629 8.9431 10.6793C8.40259 10.7612 8.14052 11.0069 8.02586 11.1216L8.00948 11.1379C7.9931 11.1543 7.96034 11.1543 7.94396 11.1379C7.92759 11.1216 7.91121 11.1052 7.87845 11.0888C7.6819 10.9578 7.22327 10.6793 7.22327 9.20517C7.22328 7.69827 8.36983 6.68276 8.50086 6.61724L9.17241 6.5681L9.18879 6.5681L9.18879 6.14224C9.05776 6.06034 8.95948 5.91293 8.95948 5.73276C8.95948 5.47069 9.15603 5.25776 9.4181 5.25776C9.68017 5.25776 9.87672 5.47069 9.87672 5.73276C9.87672 5.89655 9.79483 6.04396 9.64741 6.12586L9.64741 6.48621L10.6138 6.38793C10.6629 6.38793 10.6957 6.43707 10.6629 6.46983C10.4991 6.7319 10.0569 7.55086 10.0241 8.77931C9.99138 9.92586 10.1716 10.4664 10.2534 10.6629C10.2698 10.6793 10.2698 10.6957 10.2534 10.7121C10.2371 10.7284 10.2207 10.7284 10.2043 10.7284C10.0897 10.7121 9.8931 10.6793 9.64741 10.6629L9.64741 11.7276L10.7121 11.7276C11.056 11.7276 11.3509 11.4328 11.3509 11.0888L11.3509 10.8267C11.3509 10.794 11.3672 10.7776 11.4 10.7776L13.3819 10.7776C13.3983 10.7776 13.431 10.794 13.431 10.8267C13.431 10.8759 13.431 10.925 13.431 10.9741C13.431 11.7112 13.2181 12.3828 12.8578 12.9724C12.7922 13.0707 12.6776 13.1198 12.5793 13.0707L12.3664 12.9724C12.2026 12.8905 12.006 12.8905 11.8259 12.9724L11.5966 13.0707C11.4328 13.1526 11.2362 13.1526 11.056 13.0707L10.8267 12.9724C10.6466 12.8905 10.4664 12.8905 10.2862 12.9724L10.0569 13.0707C9.87672 13.1526 9.69655 13.1526 9.51638 13.0707L9.28707 12.9724C9.1069 12.8905 8.92672 12.8905 8.74655 12.9724L8.51724 13.0707C8.33707 13.1526 8.1569 13.1526 7.97672 13.0707L7.74741 12.9724C7.56724 12.8905 7.38707 12.8905 7.2069 12.9724L6.97758 13.0707C6.83017 13.1362 6.66638 13.0543 6.58448 12.9069C6.45345 12.694 6.33879 12.4483 6.2569 12.219C6.07672 11.6784 5.74914 11.1707 5.24138 10.925C5.19224 10.9086 5.17586 10.8595 5.17586 10.8103C5.1431 10.794 5.15948 10.7448 5.19224 10.7284ZM12.4974 10.3681L10.6302 10.3681C10.5974 10.3681 10.581 10.3517 10.581 10.319L10.581 8.28793C10.581 8.27155 10.5974 8.25517 10.6138 8.23879L11.531 7.81293C11.5474 7.79655 11.5802 7.81293 11.5966 7.84569L12.5466 10.2862C12.5629 10.3353 12.5302 10.3681 12.4974 10.3681ZM9.5 -8.30516e-07C14.7414 -3.723e-07 19 4.25862 19 9.5C19 14.7414 14.7414 19 9.5 19C4.25862 19 -1.10992e-06 14.7414 -6.51702e-07 9.5C-1.93487e-07 4.25862 4.25862 -1.28873e-06 9.5 -8.30516e-07ZM9.53276 16.4121C13.3164 16.4121 16.3793 13.3491 16.3793 9.54914C16.3793 5.76552 13.3164 2.68621 9.53276 2.68621C5.74914 2.68621 2.68621 5.76552 2.68621 9.54914C2.70259 13.3491 5.76552 16.4121 9.53276 16.4121ZM5.32328 10.7121L5.43793 10.7612C5.99483 11.0397 6.61724 11.1707 7.23965 11.1707C7.27241 11.1707 7.28879 11.1871 7.28879 11.2034C7.35431 11.4983 7.6 11.7112 7.91121 11.7112L9.18879 11.7112L9.18879 10.6466L9.17241 10.6466C9.09052 10.6629 9.025 10.6629 8.9431 10.6793C8.40259 10.7612 8.14052 11.0069 8.02586 11.1216L8.00948 11.1379C7.9931 11.1543 7.96034 11.1543 7.94396 11.1379C7.92759 11.1216 7.91121 11.1052 7.87845 11.0888C7.6819 10.9578 7.22327 10.6793 7.22327 9.20517C7.22328 7.69827 8.36983 6.68276 8.50086 6.61724L9.17241 6.5681L9.18879 6.5681L9.18879 6.14224C9.05776 6.06034 8.95948 5.91293 8.95948 5.73276C8.95948 5.47069 9.15603 5.25776 9.4181 5.25776C9.68017 5.25776 9.87672 5.47069 9.87672 5.73276C9.87672 5.89655 9.79483 6.04396 9.64741 6.12586L9.64741 6.48621L10.6138 6.38793C10.6629 6.38793 10.6957 6.43707 10.6629 6.46983C10.4991 6.7319 10.0569 7.55086 10.0241 8.77931C9.99138 9.92586 10.1716 10.4664 10.2534 10.6629C10.2698 10.6793 10.2698 10.6957 10.2534 10.7121C10.2371 10.7284 10.2207 10.7284 10.2043 10.7284C10.0897 10.7121 9.8931 10.6793 9.64741 10.6629L9.64741 11.7276L10.7121 11.7276C11.056 11.7276 11.3509 11.4328 11.3509 11.0888L11.3509 10.8267C11.3509 10.794 11.3672 10.7776 11.4 10.7776L13.3819 10.7776C13.3983 10.7776 13.431 10.794 13.431 10.8267C13.431 10.8759 13.431 10.925 13.431 10.9741C13.431 11.7112 13.2181 12.3828 12.8578 12.9724C12.7922 13.0707 12.6776 13.1198 12.5793 13.0707L12.3664 12.9724C12.2026 12.8905 12.006 12.8905 11.8259 12.9724L11.5966 13.0707C11.4328 13.1526 11.2362 13.1526 11.056 13.0707L10.8267 12.9724C10.6466 12.8905 10.4664 12.8905 10.2862 12.9724L10.0569 13.0707C9.87672 13.1526 9.69655 13.1526 9.51638 13.0707L9.28707 12.9724C9.1069 12.8905 8.92672 12.8905 8.74655 12.9724L8.51724 13.0707C8.33707 13.1526 8.1569 13.1526 7.97672 13.0707L7.74741 12.9724C7.56724 12.8905 7.38707 12.8905 7.2069 12.9724L6.97758 13.0707C6.83017 13.1362 6.66638 13.0543 6.58448 12.9069C6.45345 12.694 6.33879 12.4483 6.2569 12.219C6.07672 11.6784 5.74914 11.1707 5.24138 10.925C5.19224 10.9086 5.17586 10.8595 5.17586 10.8103C5.17586 10.7776 5.19224 10.7284 5.225 10.7121C5.225 10.7121 5.27414 10.6957 5.32328 10.7121ZM12.4974 10.3681L10.6302 10.3681C10.5974 10.3681 10.581 10.3517 10.581 10.319L10.581 8.28793C10.581 8.27155 10.5974 8.25517 10.6138 8.23879L11.531 7.81293C11.5474 7.79655 11.5802 7.81293 11.5966 7.84569L12.5466 10.2862C12.5629 10.3353 12.5302 10.3681 12.4974 10.3681Z" fill="white"/>
<path d="M10.6138 8.25517L11.531 7.82931C11.5474 7.81293 11.5802 7.82931 11.5966 7.86207L12.5466 10.3026C12.5629 10.3353 12.5302 10.3681 12.4974 10.3681L10.6302 10.3681C10.5974 10.3681 10.581 10.3517 10.581 10.319L10.581 8.28793C10.581 8.27155 10.5974 8.25517 10.6138 8.25517ZM5.19224 10.7284C5.225 10.6957 5.27414 10.6957 5.32328 10.7121L5.43793 10.7612C5.99483 11.0397 6.61724 11.1707 7.23965 11.1707C7.27241 11.1707 7.28879 11.1871 7.28879 11.2034C7.35431 11.4983 7.6 11.7112 7.91121 11.7112L9.18879 11.7112L9.18879 10.6466L9.17241 10.6466C9.09052 10.6629 9.025 10.6629 8.9431 10.6793C8.40259 10.7612 8.14052 11.0069 8.02586 11.1216L8.00948 11.1379C7.9931 11.1543 7.96034 11.1543 7.94396 11.1379C7.92759 11.1216 7.91121 11.1052 7.87845 11.0888C7.6819 10.9578 7.22327 10.6793 7.22327 9.20517C7.22328 7.69827 8.36983 6.68276 8.50086 6.61724L9.17241 6.5681L9.18879 6.5681L9.18879 6.14224C9.05776 6.06034 8.95948 5.91293 8.95948 5.73276C8.95948 5.47069 9.15603 5.25776 9.4181 5.25776C9.68017 5.25776 9.87672 5.47069 9.87672 5.73276C9.87672 5.89655 9.79483 6.04396 9.64741 6.12586L9.64741 6.48621L10.6138 6.38793C10.6629 6.38793 10.6957 6.43707 10.6629 6.46983C10.4991 6.7319 10.0569 7.55086 10.0241 8.77931C9.99138 9.92586 10.1716 10.4664 10.2534 10.6629C10.2698 10.6793 10.2698 10.6957 10.2534 10.7121C10.2371 10.7284 10.2207 10.7284 10.2043 10.7284C10.0897 10.7121 9.8931 10.6793 9.64741 10.6629L9.64741 11.7276L10.7121 11.7276C11.056 11.7276 11.3509 11.4328 11.3509 11.0888L11.3509 10.8267C11.3509 10.794 11.3672 10.7776 11.4 10.7776L13.3819 10.7776C13.3983 10.7776 13.431 10.794 13.431 10.8267C13.431 10.8759 13.431 10.925 13.431 10.9741C13.431 11.7112 13.2181 12.3828 12.8578 12.9724C12.7922 13.0707 12.6776 13.1198 12.5793 13.0707L12.3664 12.9724C12.2026 12.8905 12.006 12.8905 11.8259 12.9724L11.5966 13.0707C11.4328 13.1526 11.2362 13.1526 11.056 13.0707L10.8267 12.9724C10.6466 12.8905 10.4664 12.8905 10.2862 12.9724L10.0569 13.0707C9.87672 13.1526 9.69655 13.1526 9.51638 13.0707L9.28707 12.9724C9.1069 12.8905 8.92672 12.8905 8.74655 12.9724L8.51724 13.0707C8.33707 13.1526 8.1569 13.1526 7.97672 13.0707L7.74741 12.9724C7.56724 12.8905 7.38707 12.8905 7.2069 12.9724L6.97758 13.0707C6.83017 13.1362 6.66638 13.0543 6.58448 12.9069C6.45345 12.694 6.33879 12.4483 6.2569 12.219C6.07672 11.6784 5.74914 11.1707 5.24138 10.925C5.19224 10.9086 5.17586 10.8595 5.17586 10.8103C5.1431 10.794 5.15948 10.7448 5.19224 10.7284Z" fill="white"/>
</svg>
