<svg width="252" height="172" viewBox="0 0 252 172" fill="none" xmlns="http://www.w3.org/2000/svg">
<path d="M139.911 130.403C139.44 129.425 139.214 128.964 139.007 128.447C138.16 126.455 137.897 125.828 137.614 125.238C137.012 123.928 136.579 123.504 135.619 123.208C136.541 122.913 136.937 122.71 137.407 122.286C138.141 121.604 138.518 120.571 138.518 119.261C138.518 116.605 136.748 115.055 133.699 115.055H128.805C127.525 115.055 126.828 115.037 126 115C126.113 115.885 126.15 116.568 126.15 117.711V127.636C126.15 129.001 126.113 129.554 126 130.403H130.047C129.934 129.554 129.896 128.872 129.896 127.617V124.592H131.816C132.419 124.592 132.889 124.74 133.285 125.09C133.755 125.496 133.981 125.92 134.584 127.525C135.167 129.056 135.393 129.812 135.506 130.403H139.911ZM129.896 121.438V118.154H132.852C134.019 118.154 134.621 118.689 134.621 119.722C134.621 120.774 133.943 121.438 132.833 121.438H129.896Z" fill="#52CC83"/>
<path d="M140.424 115.055V117.822H144.245V115.055H140.424ZM140.367 119.15C140.48 119.98 140.518 120.737 140.518 121.936V127.617C140.518 128.798 140.48 129.499 140.367 130.403H144.302C144.208 129.609 144.151 128.613 144.151 127.617V121.936C144.151 120.644 144.189 119.907 144.302 119.15H140.367Z" fill="#52CC83"/>
<path d="M156.451 122.563C155.83 120.109 153.816 118.708 150.917 118.708C147.246 118.708 144.875 121.069 144.875 124.758C144.875 126.566 145.477 128.189 146.569 129.241C147.604 130.274 149.148 130.827 150.955 130.827C153.138 130.827 154.851 130.071 155.792 128.706C156.15 128.171 156.376 127.673 156.583 126.879L153.119 126.344C153.044 126.769 152.95 126.953 152.781 127.193C152.404 127.709 151.726 128.005 150.992 128.005C149.486 128.005 148.526 126.713 148.526 124.721C148.526 122.692 149.43 121.511 150.955 121.511C151.632 121.511 152.159 121.733 152.536 122.157C152.781 122.434 152.894 122.692 153.063 123.245L156.451 122.563Z" fill="#52CC83"/>
<path d="M161.003 130.403C160.891 129.443 160.853 128.669 160.853 127.617V123.873C161.606 122.655 162.622 121.954 163.695 121.954C164.222 121.954 164.637 122.12 164.9 122.452C165.126 122.766 165.201 123.098 165.201 123.836V127.617C165.201 128.742 165.164 129.517 165.051 130.403H168.966C168.872 129.628 168.815 128.706 168.815 127.636V123.006C168.815 121.548 168.495 120.644 167.742 119.907C167.046 119.224 166.03 118.874 164.749 118.874C163.149 118.874 161.964 119.335 160.834 120.405C160.834 120.239 160.853 119.943 160.853 119.796V117.841C160.853 116.531 160.891 115.867 161.003 115.055H157.107C157.22 115.775 157.258 116.568 157.258 117.841V127.617C157.258 128.761 157.22 129.536 157.107 130.403H161.003Z" fill="#52CC83"/>
<path d="M176.145 115.055V117.822H179.966V115.055H176.145ZM176.07 119.15C176.183 119.925 176.221 120.644 176.221 121.936L176.239 130.642C176.239 131.307 175.882 131.657 175.204 131.657C174.639 131.657 174.338 131.454 174.075 130.845L170.95 132.174C171.853 133.409 173.284 134 175.336 134C176.842 134 178.103 133.594 178.894 132.875C179.552 132.284 179.872 131.436 179.872 130.274V121.936C179.872 120.608 179.91 119.796 180.023 119.15H176.07Z" fill="#52CC83"/>
<path d="M188.873 123.116C187.518 123.153 186.953 123.172 186.219 123.245C184.525 123.393 183.263 123.78 182.303 124.444C181.4 125.053 180.929 125.975 180.929 127.138C180.929 128.152 181.287 129.038 181.964 129.646C182.717 130.329 183.79 130.661 185.221 130.661C186.765 130.661 187.819 130.347 188.873 129.554V130.403H192.525C192.431 129.573 192.393 128.908 192.393 127.783V122.803C192.393 121.142 191.866 120.128 190.661 119.482C189.927 119.095 188.572 118.837 187.179 118.837C185.353 118.837 183.96 119.187 182.943 119.888C182.153 120.442 181.739 121.032 181.362 122.12L184.958 122.692C185.24 121.788 185.88 121.401 187.085 121.401C188.327 121.401 188.873 121.807 188.873 122.692V123.116ZM188.873 125.994C188.873 126.547 188.628 127.045 188.195 127.414C187.687 127.839 186.84 128.115 186.068 128.115C185.089 128.115 184.525 127.728 184.525 127.064C184.525 126.529 184.939 126.068 185.616 125.846C186.388 125.607 187.198 125.514 188.873 125.477V125.994Z" fill="#52CC83"/>
<path d="M193.394 131.842C194.712 133.262 196.406 133.889 198.966 133.889C200.848 133.889 202.429 133.502 203.446 132.801C204.764 131.897 205.404 130.403 205.404 128.189V121.714C205.404 120.626 205.441 119.98 205.554 119.15H201.865V119.538C201.865 119.741 201.865 119.796 201.865 119.943C200.848 119.187 199.832 118.874 198.439 118.874C195.22 118.874 193.093 121.032 193.093 124.315C193.093 127.673 195.163 129.775 198.439 129.775C199.888 129.775 200.905 129.407 201.865 128.558C201.827 129.536 201.658 130.089 201.262 130.532C200.811 131.067 200.001 131.343 198.966 131.343C197.723 131.343 196.763 130.919 196.105 130.089L193.394 131.842ZM196.669 124.334C196.669 122.618 197.648 121.493 199.154 121.493C200.679 121.493 201.789 122.674 201.789 124.315C201.789 125.957 200.679 127.119 199.135 127.119C197.648 127.119 196.669 126.031 196.669 124.334Z" fill="#52CC83"/>
<path d="M214.556 119.15C214.669 120.109 214.706 120.884 214.706 121.917V125.699C213.972 126.879 212.918 127.599 211.883 127.599C211.337 127.599 210.923 127.414 210.659 127.082C210.433 126.787 210.358 126.455 210.358 125.699V121.917C210.358 120.81 210.396 120.036 210.508 119.15H206.593C206.687 119.925 206.744 120.847 206.744 121.917V126.547C206.744 128.005 207.064 128.908 207.817 129.646C208.532 130.329 209.548 130.679 210.81 130.679C212.41 130.679 213.483 130.237 214.725 129.093C214.706 129.222 214.706 129.499 214.706 129.591V130.384H218.452C218.339 129.646 218.302 128.89 218.302 127.617V121.917C218.302 120.792 218.339 120.017 218.452 119.15H214.556Z" fill="#52CC83"/>
<path d="M227.043 123.116C225.688 123.153 225.123 123.172 224.389 123.245C222.695 123.393 221.433 123.78 220.473 124.444C219.57 125.053 219.099 125.975 219.099 127.138C219.099 128.152 219.457 129.038 220.135 129.646C220.888 130.329 221.961 130.661 223.391 130.661C224.935 130.661 225.989 130.347 227.043 129.554V130.403H230.695C230.601 129.573 230.563 128.908 230.563 127.783V122.803C230.563 121.142 230.036 120.128 228.831 119.482C228.097 119.095 226.742 118.837 225.349 118.837C223.523 118.837 222.13 119.187 221.113 119.888C220.323 120.442 219.909 121.032 219.532 122.12L223.128 122.692C223.41 121.788 224.05 121.401 225.255 121.401C226.497 121.401 227.043 121.807 227.043 122.692V123.116ZM227.043 125.994C227.043 126.547 226.798 127.045 226.365 127.414C225.857 127.839 225.01 128.115 224.238 128.115C223.259 128.115 222.695 127.728 222.695 127.064C222.695 126.529 223.109 126.068 223.786 125.846C224.558 125.607 225.368 125.514 227.043 125.477V125.994Z" fill="#52CC83"/>
<path d="M241.127 119.15C240.242 118.966 239.865 118.929 239.263 118.929C237.55 118.929 236.421 119.427 235.498 120.608V119.15H231.752C231.865 119.943 231.903 120.589 231.903 121.936V127.617C231.903 128.816 231.865 129.48 231.752 130.403H235.649C235.536 129.517 235.498 128.816 235.498 127.636V124.758C235.574 123.946 235.705 123.559 236.063 123.116C236.609 122.452 237.343 122.12 238.303 122.12C238.887 122.12 239.357 122.212 240.223 122.471L241.127 119.15Z" fill="#52CC83"/>
<path d="M240.875 127.045C241.063 127.931 241.251 128.374 241.628 128.89C242.531 130.108 244.207 130.735 246.578 130.735C248.593 130.735 250.136 130.274 251.04 129.388C251.661 128.798 252 127.912 252 126.935C252 125.607 251.416 124.703 250.193 124.112C249.534 123.78 248.95 123.614 247.105 123.227C245.242 122.821 244.847 122.637 244.847 122.139C244.847 121.659 245.449 121.345 246.428 121.345C247.444 121.345 247.915 121.677 248.009 122.434L251.642 122.046C251.341 121.013 251.04 120.478 250.419 119.943C249.534 119.15 248.197 118.763 246.409 118.763C243.265 118.763 241.364 120.109 241.364 122.323C241.364 122.95 241.534 123.577 241.835 124.075C242.192 124.629 242.814 125.053 243.717 125.385C244.338 125.588 245.073 125.773 246.503 126.049C247.538 126.252 247.783 126.326 248.047 126.474C248.31 126.621 248.461 126.861 248.461 127.138C248.461 127.709 247.821 128.023 246.691 128.023C245.43 128.023 244.79 127.599 244.602 126.64L240.875 127.045Z" fill="#52CC83"/>
<path d="M115.213 140.589L117.423 148.202L116.693 148.653L114.204 139.839L115.013 139.367L120.758 145.098L120.797 145.087L118.624 137.294L119.433 136.823L125.887 143.298L125.147 143.709L119.593 138.055L119.554 138.066L121.655 145.75L120.846 146.222L115.213 140.589Z" fill="white"/>
<path d="M112.698 143.899C112.574 143.592 112.409 143.296 112.176 143.061C111.983 142.815 111.76 142.62 111.509 142.474C111.257 142.329 110.987 142.274 110.678 142.229C110.379 142.224 110.051 142.27 109.744 142.394C109.29 142.601 108.975 142.856 108.732 143.218C108.529 143.57 108.437 144.02 108.525 144.507L107.763 144.838C107.718 144.51 107.723 144.211 107.767 143.902C107.812 143.592 107.867 143.323 108.012 143.071C108.158 142.82 108.303 142.568 108.538 142.335C108.773 142.102 109.069 141.938 109.445 141.752C109.899 141.545 110.346 141.468 110.775 141.481C111.203 141.493 111.574 141.607 111.876 141.781C112.177 141.955 112.5 142.209 112.765 142.563C113.02 142.877 113.256 143.282 113.452 143.697C113.648 144.112 113.725 144.559 113.792 144.966C113.859 145.373 113.806 145.813 113.693 146.183C113.58 146.553 113.376 146.906 113.123 147.229C112.859 147.512 112.504 147.777 112.089 147.973C111.288 148.315 110.521 148.308 109.828 147.941C109.134 147.575 108.565 146.877 108.108 145.809L112.698 143.899ZM109.119 146.091C109.244 146.397 109.387 146.614 109.58 146.86C109.763 147.066 109.985 147.261 110.226 147.367C110.467 147.472 110.697 147.538 110.996 147.543C111.256 147.559 111.573 147.474 111.88 147.349C112.186 147.224 112.432 147.031 112.598 146.859C112.765 146.687 112.91 146.435 113.005 146.155C113.1 145.874 113.116 145.615 113.12 145.316C113.125 145.017 113.051 144.74 112.977 144.462L109.119 146.091Z" fill="white"/>
<path d="M105.994 143.315L108.885 151.723L108.182 151.954L105.302 143.585L105.994 143.315Z" fill="white"/>
<path d="M100.989 149.374C101.235 149.819 101.569 150.112 101.95 150.265C102.331 150.418 102.771 150.47 103.247 150.343C103.604 150.247 103.9 150.083 104.135 149.849C104.37 149.616 104.515 149.365 104.61 149.084C104.705 148.804 104.749 148.494 104.744 148.156C104.738 147.817 104.693 147.489 104.608 147.172C104.523 146.855 104.398 146.548 104.234 146.252C104.069 145.956 103.876 145.71 103.653 145.514C103.431 145.319 103.14 145.184 102.859 145.089C102.539 145.005 102.24 145 101.854 145.146C101.339 145.284 100.945 145.56 100.702 145.923C100.459 146.285 100.377 146.775 100.436 147.312L99.6826 147.514C99.6662 147.135 99.6605 146.797 99.7448 146.477C99.7894 146.167 99.924 145.876 100.069 145.625C100.254 145.362 100.45 145.14 100.735 144.936C101.02 144.732 101.327 144.607 101.724 144.501C102.2 144.373 102.657 144.336 103.057 144.399C103.456 144.462 103.837 144.615 104.11 144.839C104.423 145.053 104.677 145.368 104.902 145.732C105.127 146.097 105.284 146.523 105.401 146.959C105.518 147.396 105.584 147.803 105.532 148.242C105.519 148.671 105.417 149.081 105.253 149.422C105.1 149.803 104.886 150.116 104.572 150.37C104.268 150.664 103.893 150.85 103.417 150.977C102.703 151.169 102.065 151.169 101.533 150.929C101.001 150.689 100.585 150.248 100.275 149.566L100.989 149.374Z" fill="white"/>
<path d="M95.7383 145.807C96.1456 145.74 96.5345 145.764 96.8944 145.837C97.2542 145.911 97.5956 146.074 97.908 146.288C98.2204 146.502 98.4748 146.817 98.7107 147.221C98.9466 147.626 99.1138 148.091 99.1726 148.628C99.2499 149.075 99.2478 149.543 99.1848 149.943C99.1324 150.382 99.0191 150.752 98.8159 151.104C98.6126 151.456 98.3483 151.74 98.0232 151.954C97.6981 152.169 97.2831 152.365 96.7858 152.413C96.2992 152.501 95.831 152.499 95.4499 152.346C95.0688 152.193 94.7273 152.03 94.4149 151.816C94.1315 151.552 93.8773 151.237 93.6916 150.862C93.506 150.486 93.3891 150.05 93.3118 149.603C93.224 149.116 93.2261 148.648 93.2785 148.209C93.3309 147.77 93.4838 147.389 93.6977 147.076C93.9009 146.724 94.1758 146.481 94.5009 146.266C94.9344 145.98 95.331 145.873 95.7383 145.807ZM94.166 149.459C94.222 149.827 94.3177 150.184 94.4424 150.491C94.5671 150.797 94.7605 151.043 94.9539 151.289C95.1764 151.484 95.3881 151.64 95.7083 151.724C95.9888 151.819 96.3381 151.853 96.7348 151.747C97.1024 151.691 97.4488 151.556 97.6946 151.362C97.9404 151.169 98.1358 150.946 98.2704 150.655C98.4049 150.364 98.4601 150.094 98.4941 149.745C98.528 149.396 98.5224 149.057 98.4374 148.74C98.3814 148.372 98.2857 148.015 98.1107 147.679C97.986 147.373 97.782 147.087 97.5596 146.892C97.3371 146.696 97.0857 146.551 96.8052 146.456C96.5247 146.361 96.1861 146.367 95.8581 146.412C95.4905 146.468 95.1838 146.593 94.8984 146.797C94.6526 146.991 94.457 147.213 94.3224 147.504C94.1879 147.795 94.093 148.076 94.0987 148.414C94.0754 148.803 94.1207 149.131 94.166 149.459Z" fill="white"/>
<path d="M91.6586 146.603L92.415 146.57L92.6713 152.921L91.9147 152.954L91.8687 151.988L91.829 151.999C91.676 152.38 91.4118 152.663 91.047 152.889C90.7219 153.103 90.3252 153.21 89.9073 153.236C89.6084 153.232 89.3492 153.216 89.1693 153.179C88.9893 153.142 88.7881 153.026 88.6372 152.939C88.4863 152.852 88.3645 152.715 88.2823 152.566C88.2001 152.418 88.0783 152.281 88.0252 152.083C87.8432 152.514 87.5499 152.848 87.2142 153.023C86.8494 153.248 86.4527 153.354 85.9952 153.392C85.5772 153.419 85.2174 153.345 84.9263 153.211C84.6748 153.065 84.4629 152.91 84.3092 152.653C84.1661 152.437 84.0521 152.17 84.0067 151.842C83.972 151.553 83.9266 151.225 83.8812 150.897L83.7336 146.856L84.49 146.823L84.6541 151.243C84.652 151.711 84.7872 152.058 84.9806 152.303C85.174 152.549 85.5446 152.662 86.0524 152.654C86.3407 152.619 86.5788 152.555 86.8458 152.441C87.1129 152.327 87.3084 152.105 87.5038 151.882C87.5619 151.782 87.649 151.631 87.6964 151.491C87.7438 151.35 87.7914 151.21 87.7885 151.041C87.836 150.901 87.833 150.731 87.8302 150.562C87.8273 150.393 87.8351 150.263 87.8429 150.133L87.6854 146.689L88.4419 146.657L88.606 151.077C88.6435 151.534 88.7391 151.891 88.9325 152.137C89.1259 152.383 89.4965 152.496 90.044 152.477C90.2927 152.453 90.5703 152.379 90.7977 152.275C91.0647 152.161 91.2601 151.939 91.4556 151.716C91.5533 151.605 91.6008 151.465 91.6483 151.325C91.6957 151.184 91.7432 151.044 91.7404 150.875C91.7772 150.695 91.7849 150.565 91.782 150.396C91.7792 150.227 91.787 150.097 91.7947 149.967L91.6586 146.603Z" fill="white"/>
<path d="M82.2073 149.731C82.2413 149.382 82.2355 149.043 82.1505 148.726C82.0655 148.409 81.9911 148.131 81.7977 147.885C81.6439 147.629 81.4216 147.433 81.1701 147.288C80.9186 147.143 80.5984 147.059 80.2491 147.025C79.7703 146.983 79.3234 147.06 78.9587 147.285C78.5939 147.511 78.3403 147.834 78.169 148.305L77.3409 148.229C77.4754 147.938 77.61 147.647 77.7658 147.435C77.9216 147.223 78.1567 146.99 78.3629 146.807C78.6086 146.614 78.8757 146.5 79.193 146.415C79.5103 146.33 79.8489 146.324 80.2775 146.337C80.796 146.368 81.2168 146.51 81.5689 146.714C81.9209 146.917 82.2042 147.181 82.4189 147.506C82.6336 147.831 82.7689 148.178 82.8461 148.625C82.9128 149.032 82.9503 149.49 82.9086 149.968C82.8668 150.447 82.7641 150.857 82.5715 151.249C82.3788 151.641 82.1756 151.993 81.9114 152.276C81.6472 152.56 81.3221 152.774 80.9361 152.92C80.5501 153.066 80.1428 153.133 79.7036 153.08C78.8359 153.015 78.182 152.638 77.713 151.998C77.2837 151.348 77.0896 150.465 77.2099 149.327L82.2073 149.731ZM78.0281 150.001C77.9835 150.31 78.0182 150.599 78.0926 150.876C78.167 151.154 78.2307 151.392 78.4241 151.638C78.5672 151.854 78.7791 152.01 79.0306 152.155C79.2821 152.301 79.5626 152.395 79.8615 152.4C80.2107 152.434 80.499 152.4 80.7263 152.296C80.9934 152.182 81.2101 152.039 81.4162 151.856C81.6224 151.674 81.7676 151.422 81.9127 151.171C82.0579 150.919 82.1528 150.639 82.1974 150.329L78.0281 150.001Z" fill="white"/>
<path d="M71.7087 145.147C71.7986 145.165 71.9176 145.133 72.0869 145.13C72.2562 145.127 72.3858 145.135 72.5657 145.172C72.9255 145.246 73.1771 145.391 73.3202 145.608C73.4633 145.824 73.5086 146.152 73.3875 146.652L72.4381 151.201L73.3376 151.385L73.1981 151.975L72.2986 151.791L71.9197 153.55L71.2 153.403L71.5391 151.654L70.3697 151.415L70.5091 150.825L71.6787 151.064L72.573 146.786C72.6204 146.645 72.6281 146.516 72.6359 146.386C72.6437 146.257 72.6621 146.167 72.6012 146.098C72.5403 146.029 72.5191 145.95 72.4582 145.881C72.3972 145.812 72.2676 145.805 72.1273 145.757C72.0373 145.739 71.9474 145.72 71.8177 145.713C71.6881 145.705 71.6088 145.726 71.5188 145.708L71.7087 145.147Z" fill="white"/>
<path d="M68.8351 144.258C69.2055 144.371 69.5972 144.564 69.87 144.789C70.1824 145.002 70.4367 145.317 70.6117 145.653C70.7867 145.988 70.893 146.385 70.9305 146.843C70.9681 147.3 70.8867 147.79 70.7762 148.33C70.6445 148.79 70.4519 149.182 70.2487 149.534C70.0058 149.896 69.7416 150.18 69.4164 150.394C69.0913 150.609 68.745 150.744 68.3483 150.851C67.941 150.917 67.5124 150.905 67.0413 150.733C66.5809 150.602 66.1785 150.369 65.8555 150.116C65.5722 149.851 65.3178 149.537 65.1825 149.191C65.0472 148.844 64.9408 148.448 64.9536 148.019C64.9663 147.591 65.0187 147.151 65.1504 146.691C65.2715 146.191 65.5038 145.788 65.7467 145.426C65.9896 145.063 66.2935 144.769 66.6186 144.554C66.9437 144.34 67.2901 144.204 67.6974 144.138C68.0254 144.092 68.4143 144.116 68.8351 144.258ZM65.841 146.888C65.7277 147.259 65.6938 147.608 65.6598 147.957C65.6655 148.296 65.7002 148.584 65.7853 148.902C65.8703 149.219 66.0531 149.425 66.2756 149.62C66.498 149.816 66.7997 149.99 67.1702 150.104C67.5407 150.217 67.8792 150.211 68.2072 150.166C68.5245 150.081 68.7916 149.967 69.0373 149.773C69.2831 149.58 69.468 149.318 69.6528 149.056C69.8271 148.754 69.9616 148.463 70.0459 148.143C70.1592 147.772 70.1826 147.383 70.2166 147.034C70.2109 146.695 70.1655 146.367 70.0514 146.1C69.9373 145.833 69.7836 145.577 69.5611 145.381C69.3387 145.186 69.0476 145.051 68.7168 144.927C68.3463 144.814 68.0078 144.82 67.6798 144.865C67.3625 144.95 67.0955 145.064 66.8497 145.258C66.6039 145.451 66.419 145.713 66.2342 145.975C66.0493 146.237 65.9253 146.568 65.841 146.888Z" fill="white"/>
<path d="M60.6403 141.437C60.7303 141.455 60.8598 141.463 61.0001 141.51C61.1297 141.518 61.3203 141.595 61.4606 141.642C61.7914 141.766 62.0244 142.001 62.1278 142.229C62.2313 142.456 62.1973 142.805 62.0153 143.237L60.1952 147.551L61.0078 147.886L60.7783 148.457L59.9657 148.122L59.2959 149.747L58.6236 149.46L59.2936 147.835L58.1899 147.365L58.4193 146.793L59.523 147.263L61.2085 143.24C61.2559 143.1 61.3034 142.96 61.3615 142.859C61.4195 142.759 61.4379 142.669 61.4061 142.55C61.3848 142.47 61.3635 142.391 61.3026 142.322C61.2417 142.253 61.1411 142.195 61.0008 142.148C60.9109 142.13 60.8103 142.071 60.7203 142.053C60.6303 142.035 60.5405 142.016 60.4108 142.008L60.6403 141.437Z" fill="white"/>
<path d="M60.0777 141.248L56.077 149.165L55.4338 148.827L56.9671 145.823C56.581 145.969 56.1737 146.035 55.8061 146.091C55.4278 146.108 55.068 146.034 54.6762 145.841C54.3348 145.678 54.0119 145.424 53.7788 145.189C53.5351 144.914 53.3997 144.568 53.3331 144.16C53.2984 143.872 53.3246 143.653 53.4301 143.412C53.5356 143.171 53.6015 142.941 53.7573 142.729L55.6468 138.991L56.29 139.329L54.3899 143.027C54.1498 143.559 54.0471 143.969 54.1534 144.366C54.249 144.723 54.5537 145.066 55.0963 145.346C55.2975 145.462 55.5277 145.528 55.697 145.525C55.8769 145.562 56.0859 145.549 56.2842 145.495C56.4826 145.442 56.6412 145.4 56.7892 145.318C56.9372 145.236 57.0854 145.153 57.2228 145.031C57.3999 144.899 57.5266 144.737 57.6137 144.586C57.7008 144.436 57.817 144.234 57.8935 144.044L59.4558 140.989L60.0777 141.248Z" fill="white"/>
<path d="M52.7186 140.753C52.8929 140.451 53.0274 140.16 53.1223 139.88C53.2066 139.56 53.2512 139.25 53.2271 139.001C53.1924 138.713 53.1179 138.435 52.9642 138.179C52.8105 137.923 52.5774 137.687 52.2756 137.513C51.8627 137.241 51.4524 137.139 51.0345 137.166C50.6166 137.192 50.2015 137.389 49.858 137.693L49.1433 137.247C49.3891 137.054 49.6348 136.86 49.8912 136.707C50.1477 136.553 50.4253 136.479 50.7136 136.444C51.0019 136.409 51.3009 136.414 51.6211 136.498C51.9412 136.582 52.272 136.706 52.5844 136.92C52.9974 137.192 53.3417 137.525 53.5564 137.85C53.7816 138.215 53.9169 138.561 53.9333 138.94C53.9892 139.307 53.9262 139.707 53.8236 140.117C53.7209 140.527 53.5283 140.919 53.2563 141.332C52.9843 141.745 52.7308 142.068 52.3767 142.333C52.0225 142.598 51.6974 142.813 51.3007 142.919C50.9147 143.065 50.5364 143.081 50.1369 143.018C49.7374 142.955 49.3272 142.852 48.9539 142.57C48.1889 142.095 47.8099 141.473 47.6873 140.698C47.6043 139.913 47.8386 139.042 48.4697 138.065L52.7186 140.753ZM48.865 139.065C48.6802 139.327 48.5853 139.607 48.4904 139.888C48.3955 140.168 48.3799 140.428 48.4147 140.716C48.4388 140.965 48.5529 141.232 48.696 141.448C48.8498 141.705 49.0721 141.9 49.3342 142.085C49.5963 142.27 49.8768 142.365 50.1864 142.41C50.4959 142.454 50.7446 142.43 50.9719 142.327C51.2496 142.252 51.4664 142.109 51.7228 141.955C51.9792 141.802 52.1747 141.579 52.3702 141.357L48.865 139.065Z" fill="white"/>
<path d="M45.0511 135.454C45.2757 135.181 45.4605 134.919 45.5951 134.628C45.7296 134.337 45.8246 134.056 45.8295 133.758C45.8345 133.459 45.7997 133.17 45.6856 132.903C45.5715 132.636 45.3675 132.351 45.0948 132.126C44.7108 131.804 44.3297 131.651 43.8906 131.599C43.4514 131.546 43.0653 131.692 42.6715 131.968L42.0544 131.41C42.3109 131.257 42.6069 131.092 42.8846 131.018C43.1623 130.943 43.44 130.869 43.739 130.874C44.0379 130.879 44.3473 130.923 44.6385 131.058C44.9296 131.193 45.2314 131.367 45.5544 131.62C45.9383 131.943 46.2033 132.297 46.3889 132.672C46.5349 133.058 46.6306 133.415 46.6073 133.804C46.5839 134.193 46.4706 134.564 46.3176 134.945C46.1249 135.336 45.882 135.699 45.5888 136.033C45.2956 136.366 44.952 136.671 44.5873 136.896C44.2225 137.122 43.8365 137.268 43.4292 137.334C43.0219 137.401 42.633 137.377 42.2626 137.264C41.8524 137.161 41.5004 136.958 41.1667 136.665C40.4994 136.078 40.1891 135.396 40.1961 134.629C40.2031 133.862 40.6174 133.028 41.3597 132.149L45.0511 135.454ZM41.5064 133.173C41.3109 133.395 41.126 133.657 41.0311 133.938C40.9362 134.218 40.8307 134.459 40.8654 134.747C40.8499 135.007 40.9136 135.245 41.0277 135.512C41.1418 135.779 41.3352 136.025 41.5577 136.22C41.7907 136.455 42.0819 136.59 42.3518 136.645C42.6217 136.7 42.8809 136.716 43.1692 136.681C43.4575 136.646 43.6848 136.543 43.9518 136.429C44.2082 136.275 44.4647 136.121 44.6602 135.899L41.5064 133.173Z" fill="white"/>
<path d="M39.2565 129.693L42.6154 129.218L43.2536 129.855L39.1779 130.352L38.5237 134.099L37.8748 133.422L38.5114 130.403L35.4407 130.843L34.7917 130.167L38.619 129.694L39.3283 125.678L39.9269 126.325L39.2565 129.693Z" fill="white"/>
<path d="M32.7851 124.583C32.5131 124.996 32.3205 125.388 32.3475 125.806C32.3348 126.234 32.4807 126.62 32.796 127.003C33.0397 127.278 33.3123 127.503 33.6035 127.637C33.884 127.732 34.2042 127.816 34.4925 127.782C34.7808 127.747 35.0982 127.662 35.4049 127.537C35.7116 127.413 35.997 127.209 36.2428 127.015C36.5282 126.811 36.7237 126.589 36.9482 126.316C37.1727 126.043 37.3179 125.792 37.4022 125.472C37.4971 125.191 37.5417 124.882 37.4567 124.564C37.4113 124.236 37.2469 123.94 37.0429 123.655C36.717 123.232 36.3041 122.96 35.8649 122.907C35.4257 122.855 34.9788 122.932 34.495 123.19L33.9863 122.561C34.2824 122.396 34.6287 122.261 34.9567 122.215C35.274 122.13 35.573 122.135 35.8825 122.18C36.1921 122.225 36.4832 122.359 36.7744 122.494C37.0761 122.668 37.3093 122.903 37.5636 123.218C37.8788 123.601 38.075 124.016 38.1812 124.412C38.2875 124.809 38.2643 125.198 38.1907 125.558C38.117 125.918 37.9244 126.31 37.6708 126.633C37.4279 126.995 37.124 127.289 36.7408 127.604C36.3867 127.869 36.0218 128.095 35.6358 128.241C35.2498 128.387 34.8425 128.453 34.4643 128.469C34.086 128.486 33.6759 128.383 33.2948 128.23C32.9137 128.077 32.58 127.784 32.3045 127.39C31.8461 126.79 31.6073 126.217 31.6278 125.658C31.6376 125.06 31.8777 124.528 32.4061 123.962L32.7851 124.583Z" fill="white"/>
<path d="M35.1824 120.369L27.8557 125.393L27.437 124.783L34.7637 119.758L35.1824 120.369Z" fill="white"/>
<path d="M26.3937 118.345L26.0146 117.724L31.5288 114.503L31.9079 115.125L31.1387 115.586C31.279 115.633 31.4482 115.63 31.6388 115.707C31.8187 115.744 31.9697 115.831 32.1602 115.907C32.3508 115.984 32.5122 116.111 32.6843 116.277C32.8459 116.404 32.989 116.62 33.1427 116.877C33.368 117.242 33.5033 117.588 33.538 117.876C33.5728 118.165 33.5678 118.464 33.4729 118.744C33.378 119.025 33.2222 119.236 33.0267 119.459C32.8313 119.681 32.5749 119.835 32.2894 120.039L28.6495 122.162L28.2704 121.541L31.8708 119.428C32.3439 119.132 32.6477 118.838 32.761 118.467C32.8743 118.097 32.7972 117.65 32.5003 117.177C32.3466 116.92 32.1637 116.714 31.9519 116.558C31.7401 116.402 31.4597 116.308 31.2005 116.292C30.9306 116.237 30.6422 116.271 30.3248 116.357C30.0472 116.431 29.7405 116.556 29.4048 116.731L26.3937 118.345Z" fill="white"/>
<path d="M29.0082 113.988C29.4707 113.652 29.7136 113.289 29.7873 112.929C29.8609 112.569 29.7836 112.122 29.5661 111.628C29.4521 111.361 29.3196 111.184 29.1978 111.046C29.076 110.909 28.9145 110.782 28.7636 110.695C28.6127 110.608 28.4434 110.611 28.3138 110.603C28.1841 110.595 28.0254 110.638 27.8774 110.72C27.5707 110.845 27.4149 111.057 27.3887 111.276C27.3228 111.506 27.3576 111.795 27.403 112.123C27.4484 112.451 27.5333 112.768 27.629 113.125C27.7247 113.482 27.7701 113.81 27.8154 114.138C27.8211 114.476 27.7765 114.786 27.6816 115.066C27.5867 115.347 27.3119 115.591 26.9365 115.776C26.4421 115.994 25.9844 116.031 25.5027 115.82C25.021 115.609 24.6556 115.197 24.3056 114.526C24.0059 113.883 23.8968 113.317 24.0179 112.817C24.0887 112.288 24.4796 111.843 25.1008 111.464L25.4111 112.146C24.9776 112.432 24.7637 112.745 24.6901 113.105C24.6561 113.454 24.7227 113.861 24.919 114.276C25.1152 114.691 25.3589 114.966 25.6501 115.101C25.9412 115.235 26.2401 115.24 26.5362 115.076C26.8032 114.962 26.9591 114.75 26.9853 114.53C27.0114 114.311 27.0561 114.001 27.0107 113.673C26.9653 113.345 26.8803 113.028 26.8243 112.66C26.7286 112.303 26.6832 111.975 26.6775 111.637C26.6718 111.298 26.7164 110.989 26.851 110.697C26.9856 110.406 27.2207 110.173 27.6068 110.027C27.8738 109.913 28.1515 109.839 28.4108 109.854C28.6701 109.87 28.9504 109.965 29.1623 110.121C29.4137 110.266 29.6363 110.461 29.8297 110.707C30.0231 110.953 30.227 111.238 30.3623 111.585C30.5373 111.92 30.6224 112.238 30.6281 112.576C30.6628 112.865 30.6182 113.174 30.5233 113.455C30.4284 113.735 30.2832 113.987 30.1274 114.199C29.9716 114.41 29.7259 114.604 29.4192 114.728L29.0082 113.988Z" fill="white"/>
<path d="M21.4722 111.246L20.433 111.652L20.1411 110.88L21.1406 110.484L21.4722 111.246ZM28.6849 108.335L22.7677 110.686L22.497 109.993L28.4143 107.642L28.6849 108.335Z" fill="white"/>
<path d="M22.1162 109.203L21.8639 108.42L26.404 104.738L20.5524 104.477L20.3001 103.695L27.1202 104.078L27.3724 104.861L22.1162 109.203Z" fill="white"/>
<path d="M23.2235 101.593C23.5408 101.508 23.8581 101.423 24.1542 101.259C24.4503 101.095 24.6565 100.912 24.8519 100.689C25.0474 100.467 25.1529 100.226 25.2372 99.9059C25.3214 99.5857 25.3263 99.2867 25.2307 98.9297C25.1031 98.4537 24.9176 98.0783 24.5839 97.7851C24.2503 97.4918 23.8691 97.3389 23.3612 97.3475L23.1884 96.5434C23.4873 96.5484 23.8075 96.6327 24.0774 96.688C24.3579 96.7829 24.5987 96.8883 24.8608 97.0732C25.0832 97.2687 25.3057 97.4642 25.47 97.7603C25.6238 98.0167 25.7591 98.363 25.8654 98.7596C25.9929 99.2356 25.9909 99.7039 25.8882 100.114C25.7855 100.524 25.622 100.866 25.4081 101.178C25.1439 101.461 24.869 101.705 24.5042 101.93C24.1395 102.156 23.7031 102.273 23.2668 102.389C22.8304 102.506 22.3728 102.544 21.9336 102.492C21.4945 102.439 21.1241 102.326 20.743 102.173C20.4015 102.009 20.0784 101.756 19.8241 101.441C19.5698 101.127 19.3842 100.751 19.307 100.304C19.1234 99.4608 19.2601 98.7015 19.7275 98.066C20.195 97.4306 21.0145 96.9984 22.1357 96.7405L23.2235 101.593ZM21.703 97.6642C21.3857 97.7493 21.108 97.8236 20.8516 97.9774C20.5952 98.1311 20.3891 98.3138 20.2333 98.5257C20.0775 98.7375 19.972 98.9784 19.9168 99.2483C19.8615 99.5182 19.8566 99.817 19.9417 100.134C20.0267 100.452 20.1407 100.719 20.3234 100.925C20.5062 101.131 20.7287 101.326 20.9299 101.443C21.1707 101.548 21.4512 101.643 21.7211 101.698C21.991 101.754 22.29 101.758 22.6179 101.713L21.703 97.6642Z" fill="white"/>
<path d="M19.8532 88.3813C19.3879 88.5485 19.0336 88.8134 18.7801 89.1364C18.5371 89.4991 18.4345 89.9092 18.4721 90.3668C18.4884 90.7451 18.6131 91.0518 18.7669 91.3082C18.9603 91.554 19.1827 91.7495 19.4448 91.9344C19.7069 92.1192 20.0271 92.2034 20.3366 92.248C20.6462 92.2926 20.9953 92.3266 21.3233 92.2812C21.6619 92.2756 21.9793 92.1906 22.2966 92.1055C22.614 92.0205 22.91 91.8561 23.1161 91.6733C23.3619 91.4799 23.5574 91.2575 23.6919 90.9663C23.8265 90.6752 23.8711 90.3656 23.8548 89.9874C23.7959 89.4504 23.6287 88.9851 23.295 88.6919C22.9614 88.3987 22.53 88.2167 22.0009 88.1459L21.9576 87.3497C22.3068 87.3836 22.627 87.4679 22.9578 87.5918C23.249 87.7264 23.5401 87.861 23.7732 88.0961C24.0063 88.3313 24.1996 88.5771 24.3137 88.8441C24.4384 89.1508 24.534 89.5078 24.5503 89.8861C24.5985 90.3834 24.5462 90.8225 24.3932 91.2036C24.2402 91.5847 24.0264 91.8971 23.7622 92.1805C23.4874 92.4241 23.1623 92.6389 22.7366 92.7955C22.3505 92.9414 21.9035 93.0186 21.4459 93.0562C20.9883 93.0937 20.5598 93.081 20.1497 92.9783C19.7396 92.8756 19.3584 92.7227 19.046 92.5088C18.7336 92.2949 18.4397 91.9911 18.225 91.6659C17.9997 91.3012 17.8934 90.9045 17.8452 90.4072C17.7729 89.6613 17.9123 89.0713 18.2424 88.5577C18.5831 88.0838 19.0852 87.7368 19.8099 87.5851L19.8532 88.3813Z" fill="white"/>
<path d="M24.3884 83.8931C24.3757 84.3217 24.3022 84.6815 24.1386 85.0229C23.975 85.3644 23.761 85.6768 23.4968 85.9601C23.222 86.2038 22.8573 86.4292 22.4316 86.5857C22.0059 86.7423 21.5086 86.7905 20.9504 86.77C20.4822 86.7679 20.0324 86.676 19.6619 86.5627C19.2411 86.4203 18.8997 86.2567 18.6163 85.9925C18.333 85.7283 18.0787 85.4137 17.9037 85.078C17.7287 84.7423 17.6409 84.2557 17.6826 83.7769C17.6741 83.269 17.7767 82.8588 17.9693 82.4671C18.1726 82.115 18.3865 81.8026 18.701 81.5482C19.0155 81.2939 19.3512 81.119 19.7981 81.0418C20.1948 80.9355 20.6524 80.8978 21.1206 80.8999C21.6285 80.8914 22.0783 80.9835 22.4991 81.1258C22.9199 81.2682 23.2719 81.4714 23.5552 81.7356C23.8386 81.9998 24.0532 82.3249 24.1992 82.7109C24.3345 83.0573 24.4011 83.4646 24.3884 83.8931ZM21.074 81.6778C20.6851 81.6544 20.3571 81.6998 20.0001 81.7954C19.6827 81.8805 19.3761 82.0051 19.1197 82.1589C18.8633 82.3126 18.6677 82.535 18.5332 82.8262C18.388 83.0777 18.3144 83.4375 18.291 83.8264C18.2677 84.2153 18.3527 84.5326 18.4774 84.8393C18.6418 85.1354 18.8246 85.3415 19.047 85.537C19.2694 85.7325 19.6002 85.8564 19.9204 85.9407C20.2406 86.025 20.5898 86.0589 20.9391 86.0929C21.3279 86.1162 21.6956 86.0602 22.0129 85.9751C22.3303 85.8901 22.6369 85.7655 22.8827 85.5721C23.1391 85.4184 23.324 85.1562 23.4295 84.9153C23.5747 84.6638 23.6589 84.3437 23.6426 83.9655C23.6659 83.5766 23.5809 83.2592 23.4166 82.9631C23.2628 82.7067 23.0694 82.461 22.8073 82.2762C22.5452 82.0913 22.2541 81.9567 21.9339 81.8724C21.7618 81.706 21.4126 81.6721 21.074 81.6778Z" fill="white"/>
<path d="M24.4275 80.2269L15.5886 79.4491L15.646 78.7111L24.4848 79.4888L24.4275 80.2269Z" fill="white"/>
<path d="M24.6381 78.0017L15.8332 76.8748L15.9301 76.1261L24.7349 77.253L24.6381 78.0017Z" fill="white"/>
<path d="M21.9481 75.1082C22.3079 75.1819 22.6069 75.1868 22.9349 75.1415C23.2628 75.0961 23.5405 75.0217 23.8075 74.9076C24.0746 74.7936 24.2807 74.6108 24.4656 74.3487C24.6504 74.0866 24.7849 73.7955 24.8295 73.4859C24.9109 72.9965 24.8841 72.5785 24.6984 72.2031C24.5128 71.8277 24.2188 71.5238 23.7371 71.3128L23.9027 70.5031C24.1939 70.6377 24.456 70.8226 24.6784 71.0181C24.9009 71.2136 25.0942 71.4593 25.2373 71.676C25.391 71.9324 25.4655 72.2101 25.5109 72.538C25.5562 72.866 25.5223 73.2152 25.4593 73.6147C25.3779 74.1042 25.1958 74.5356 24.9423 74.8587C24.6887 75.1817 24.4139 75.4254 24.0781 75.6003C23.7424 75.7753 23.3457 75.8816 22.9278 75.9086C22.5099 75.9355 22.0813 75.9228 21.6315 75.8307C21.1817 75.7387 20.761 75.5964 20.3693 75.4037C19.9775 75.2111 19.6941 74.947 19.4398 74.6325C19.1855 74.318 19.0105 73.9823 18.9042 73.5856C18.7979 73.1889 18.771 72.7709 18.863 72.3211C19.0181 71.4718 19.4458 70.8471 20.1464 70.4468C20.8469 70.0465 21.7224 69.982 22.8522 70.2319L21.9481 75.1082ZM22.1362 70.8915C21.8266 70.8469 21.5277 70.8419 21.2288 70.837C20.9405 70.8717 20.7025 70.9356 20.4461 71.0893C20.1896 71.243 20.0126 71.3755 19.8674 71.6269C19.7116 71.8388 19.577 72.1298 19.5324 72.4394C19.4482 72.7596 19.4828 73.0478 19.5572 73.3255C19.6316 73.6032 19.7351 73.8305 19.9179 74.0367C20.1006 74.2428 20.2835 74.4489 20.535 74.5941C20.7864 74.7393 21.0378 74.8844 21.358 74.9687L22.1362 70.8915Z" fill="white"/>
<path d="M23.1673 64.5788C22.6595 64.5873 22.2628 64.6936 21.898 64.9189C21.5332 65.1442 21.2903 65.5069 21.1586 65.9674C21.0453 66.3378 21.0509 66.6764 21.0857 66.9647C21.1707 67.282 21.2848 67.549 21.4782 67.7948C21.6716 68.0406 21.9337 68.2255 22.1958 68.4103C22.4976 68.5845 22.7887 68.7191 23.1089 68.8033C23.4291 68.8876 23.7493 68.9719 24.0879 68.9662C24.4265 68.9605 24.7253 68.9655 25.032 68.8408C25.3493 68.7557 25.6058 68.602 25.8013 68.3795C25.9968 68.1571 26.171 67.8554 26.2843 67.4849C26.445 66.9742 26.4471 66.5059 26.2112 66.1014C26.015 65.6864 25.6814 65.3932 25.189 65.1425L25.4155 64.4016C25.757 64.5652 26.0191 64.75 26.2522 64.9852C26.4852 65.2203 26.6787 65.4661 26.7928 65.7331C26.9068 66.0001 26.9919 66.3175 27.0372 66.6455C27.0429 66.9841 27.0089 67.3333 26.9063 67.7434C26.7455 68.2542 26.5529 68.6458 26.2887 68.9292C26.0245 69.2126 25.71 69.4669 25.3636 69.6022C25.0172 69.7376 24.61 69.8042 24.1815 69.7915C23.7529 69.7787 23.3137 69.7264 22.8929 69.584C22.4722 69.4417 22.0911 69.2886 21.7284 69.0457C21.3657 68.8028 21.0822 68.5386 20.8676 68.2135C20.6529 67.8884 20.4674 67.513 20.4008 67.1058C20.3342 66.6985 20.3468 66.2699 20.4785 65.8094C20.7157 65.1081 21.0459 64.5946 21.5084 64.2581C21.9709 63.9216 22.5765 63.8018 23.3252 63.8988L23.1673 64.5788Z" fill="white"/>
<path d="M28.7549 62.1033C28.7365 62.1933 28.7287 62.323 28.7209 62.4526C28.7132 62.5822 28.6763 62.7621 28.5999 62.9526C28.4759 63.2835 28.291 63.5456 28.0239 63.6597C27.7966 63.7631 27.4474 63.7292 26.987 63.5975L22.6255 61.9176L22.3012 62.7697L21.7295 62.5403L22.0538 61.6882L20.3998 61.0685L20.6767 60.3566L22.3308 60.9763L22.75 59.8436L23.3216 60.0731L22.9024 61.2057L26.9727 62.751C27.1129 62.7984 27.2533 62.8458 27.3538 62.9039C27.4438 62.9223 27.5735 62.9301 27.6634 62.9485C27.7428 62.9272 27.8221 62.906 27.8802 62.8054C27.9382 62.7048 28.0069 62.6439 28.0544 62.5037C28.0728 62.4137 28.1308 62.3132 28.1492 62.2232C28.1676 62.1332 28.186 62.0432 28.1938 61.9136L28.7549 62.1033Z" fill="white"/>
<path d="M29.0133 61.4813L23.1537 58.97L23.4413 58.2978L29.3009 60.809L29.0133 61.4813ZM21.8198 58.4346L20.8168 58.0231L21.1227 57.2609L22.1258 57.6724L21.8198 58.4346Z" fill="white"/>
<path d="M31.0749 57.4428C30.8716 57.7948 30.6577 58.1072 30.3432 58.3615C30.0684 58.6052 29.7327 58.7802 29.3467 58.9262C28.9897 59.0218 28.5823 59.0885 28.1325 58.9964C27.6933 58.944 27.2223 58.7726 26.73 58.5219C26.3276 58.2896 25.9649 58.0467 25.6312 57.7534C25.3372 57.4496 25.083 57.1351 24.9477 56.7888C24.7727 56.453 24.706 56.0457 24.7294 55.6569C24.7421 55.2283 24.8448 54.8182 25.0664 54.3761C25.2881 53.9341 25.5813 53.6005 25.8957 53.3461C26.2102 53.0918 26.5567 52.9565 26.9534 52.8502C27.3104 52.7546 27.7389 52.7672 28.1384 52.8302C28.5486 52.9329 28.9693 53.0753 29.4007 53.2573C29.8427 53.479 30.216 53.7615 30.5497 54.0547C30.8437 54.3586 31.069 54.7234 31.2043 55.0697C31.3396 55.4161 31.4062 55.8234 31.3829 56.2123C31.3702 56.6408 31.2675 57.051 31.0749 57.4428ZM29.0444 53.9905C28.703 53.8269 28.3722 53.703 28.0521 53.6187C27.7319 53.5344 27.4329 53.5295 27.105 53.5748C26.8167 53.6096 26.5497 53.7236 26.3039 53.917C26.0475 54.0707 25.8229 54.3435 25.67 54.7246C25.5064 55.066 25.4221 55.3862 25.4278 55.7248C25.4335 56.0634 25.5079 56.341 25.6616 56.5974C25.8154 56.8539 26.0087 57.0996 26.2418 57.3348C26.4749 57.5699 26.7767 57.7441 27.0784 57.9184C27.4199 58.082 27.801 58.2349 28.1105 58.2795C28.4704 58.3531 28.7693 58.3582 29.047 58.2838C29.3353 58.2491 29.6023 58.135 29.8481 57.9416C30.0939 57.7482 30.2893 57.5257 30.4529 57.1843C30.6165 56.8428 30.7008 56.5227 30.6951 56.1841C30.6894 55.8455 30.615 55.5678 30.4613 55.3114C30.3075 55.055 30.1141 54.8092 29.8811 54.5741C29.648 54.3389 29.3356 54.125 29.0444 53.9905Z" fill="white"/>
<path d="M32.9461 53.6256L32.558 54.2397L27.1708 50.7941L27.5589 50.1799L28.3239 50.6551C28.2176 50.2584 28.1511 49.8512 28.1744 49.4623C28.1581 49.084 28.3109 48.7029 28.5539 48.3402C28.7678 48.0278 29.032 47.7445 29.3175 47.5405C29.6029 47.3364 29.9492 47.2011 30.3778 47.2138C30.6767 47.2187 30.8964 47.245 31.1372 47.3505C31.3781 47.456 31.5792 47.5721 31.791 47.7279L35.3252 49.9695L34.9371 50.5838L31.4426 48.3315C30.9793 48.0305 30.5189 47.8987 30.1513 47.9547C29.7836 48.0107 29.4294 48.2757 29.0994 48.7893C28.9832 48.9905 28.9068 49.181 28.8699 49.3609C28.8331 49.5408 28.807 49.7604 28.8098 49.9297C28.8233 50.1387 28.8658 50.2974 28.9083 50.4561C28.9905 50.6041 29.0833 50.7918 29.1548 50.9002C29.2873 51.0772 29.4092 51.2147 29.5707 51.3414C29.7322 51.4682 29.8937 51.595 30.0949 51.7111L32.9461 53.6256Z" fill="white"/>
<path d="M39.4426 45.0399C39.1784 45.3232 38.8639 45.5776 38.5282 45.7526C38.1925 45.9276 37.8355 46.0232 37.4572 46.0396C37.079 46.0559 36.6794 45.9929 36.2586 45.8506C35.8379 45.7082 35.4249 45.4362 34.9906 45.0849C34.657 44.7917 34.3524 44.4481 34.1271 44.0833C33.9018 43.7186 33.7559 43.3325 33.6999 42.9649C33.6439 42.5972 33.6672 42.2084 33.7699 41.7983C33.8832 41.4278 34.1155 41.0254 34.4378 40.6414C34.7601 40.2575 35.1142 39.9925 35.5002 39.8466C35.8862 39.7006 36.2433 39.6051 36.6321 39.6284C37.021 39.6517 37.4206 39.7147 37.8123 39.9073C38.204 40.1 38.5667 40.343 38.9004 40.6362C39.2843 40.9585 39.5889 41.302 39.8248 41.7064C40.0501 42.0712 40.1961 42.4572 40.2231 42.8751C40.2791 43.2427 40.2557 43.6316 40.1134 44.0524C39.9391 44.3541 39.7359 44.7062 39.4426 45.0399ZM38.3216 41.1739C38.0383 40.9097 37.7366 40.7354 37.4348 40.5612C37.133 40.387 36.8128 40.3027 36.5536 40.2871C36.2943 40.2716 35.9664 40.3169 35.6887 40.3913C35.4217 40.5054 35.1362 40.7094 34.872 40.9928C34.6078 41.2762 34.4732 41.5673 34.3889 41.8875C34.3443 42.197 34.3394 42.4959 34.4138 42.7736C34.4989 43.0909 34.613 43.358 34.817 43.6434C35.021 43.9289 35.2541 44.164 35.4871 44.3992C35.7705 44.6634 36.0829 44.8773 36.4137 45.0013C36.7048 45.1358 37.025 45.22 37.3346 45.2646C37.6335 45.2696 37.9218 45.2348 38.1888 45.1207C38.4558 45.0067 38.7016 44.8133 38.9658 44.5299C39.23 44.2466 39.3646 43.9554 39.4489 43.6353C39.5332 43.3151 39.4984 43.0268 39.424 42.7492C39.339 42.4318 39.225 42.1647 39.0209 41.8793C38.7985 41.6838 38.5944 41.3984 38.3216 41.1739Z" fill="white"/>
<path d="M37.2529 38.6115L36.8372 38.1702L37.5029 37.4817L36.8037 36.7763C36.4488 36.4037 36.2235 36.0389 36.1782 35.7109C36.1222 35.3433 36.2461 35.0125 36.6186 34.6576C36.6873 34.5967 36.7851 34.4854 36.8538 34.4245C36.9225 34.3636 36.9912 34.3026 37.0996 34.2311L37.5657 34.7015C37.4177 34.7836 37.3093 34.8552 37.2115 34.9664C37.0741 35.0883 36.987 35.2391 36.9793 35.3687C36.9715 35.4984 36.9636 35.628 36.9955 35.747C37.0274 35.866 37.0989 35.9744 37.2102 36.0721C37.2817 36.1805 37.393 36.2782 37.5042 36.3759L38.0816 36.944L38.9534 36.0727L39.3693 36.514L38.4974 37.3853L42.5707 41.4806L42.0317 42.0077L37.9584 37.9123L37.2529 38.6115Z" fill="white"/>
<path d="M41.7809 31.701L46.4176 37.8987L45.749 38.4179L40.4103 31.3455L41.1476 30.7653L49.9257 33.8551L49.9654 33.8445L45.2891 27.6574L45.9577 27.1382L51.2964 34.2106L50.5194 34.8014L41.7809 31.701Z" fill="white"/>
<path d="M52.2506 33.6574L47.7789 26.0126L52.701 23.1207L53.0402 23.7525L48.8584 26.2335L50.4886 28.9853L54.3057 26.7296L54.6846 27.3508L50.8676 29.6064L53.0014 33.2861L52.2506 33.6574Z" fill="white"/>
<path d="M53.2157 22.8128L59.0771 20.0943L59.3768 20.7368L56.8466 21.9249L60.2785 29.3382L59.5277 29.7094L56.0959 22.2962L53.5657 23.4843L53.2157 22.8128Z" fill="white"/>
<path d="M62.9136 25.9965C63.2105 26.4696 63.5441 26.763 63.8749 26.8869C64.2454 27.0002 64.6633 26.9732 65.208 26.7848C65.4857 26.7104 65.6628 26.5778 65.8399 26.4454C66.017 26.3129 66.1146 26.2017 66.2017 26.0508C66.2889 25.8999 66.3363 25.7596 66.3334 25.5903C66.3306 25.421 66.3385 25.2914 66.296 25.1328C66.1713 24.8261 65.999 24.6596 65.7688 24.5938C65.5386 24.5279 65.229 24.4833 64.9407 24.518C64.6021 24.5237 64.2742 24.5691 63.9463 24.6145C63.5786 24.6705 63.2507 24.7158 62.9014 24.6818C62.5522 24.6479 62.2823 24.5927 62.0309 24.4475C61.7794 24.3023 61.5754 24.0168 61.4294 23.6308C61.2516 23.1257 61.2933 22.647 61.5547 22.1943C61.816 21.7416 62.2786 21.405 62.9423 21.1847C63.606 20.9643 64.1825 20.8949 64.6932 21.0557C65.204 21.2164 65.6092 21.618 65.9485 22.2498L65.2452 22.4808C64.9986 22.0367 64.7153 21.7725 64.3554 21.6989C63.9956 21.6253 63.6173 21.6415 63.1519 21.8087C62.7262 21.9653 62.4011 22.18 62.2559 22.4314C62.071 22.6935 62.0662 22.9925 62.1909 23.2992C62.2653 23.5769 62.4374 23.7433 62.7179 23.8382C62.9482 23.9041 63.2577 23.9486 63.5566 23.9536C63.8952 23.9479 64.2232 23.9025 64.5511 23.8572C64.9187 23.8012 65.2573 23.7955 65.6065 23.8295C65.9558 23.8634 66.2363 23.9583 66.4878 24.1035C66.7392 24.2487 66.9433 24.5342 67.0892 24.9202C67.2033 25.1872 67.238 25.4756 67.1828 25.7455C67.1276 26.0154 67.0221 26.2562 66.8662 26.468C66.7104 26.6798 66.4753 26.9129 66.2189 27.0666C65.9228 27.231 65.6267 27.3953 65.2803 27.5306C64.934 27.6659 64.606 27.7113 64.2674 27.717C63.9685 27.7121 63.6589 27.6675 63.4075 27.5223C63.1666 27.4168 62.9045 27.2319 62.7217 27.0258C62.5389 26.8197 62.3852 26.5632 62.2711 26.2962L62.9136 25.9965Z" fill="white"/>
<path d="M74.137 15.8469L74.8616 15.6953L76.5518 24.383L75.8272 24.5346L75.6195 23.4424L75.5798 23.453C75.5139 23.6832 75.3978 23.8844 75.2817 24.0856C75.1655 24.2868 74.999 24.4589 74.8219 24.5914C74.6449 24.7239 74.4678 24.8563 74.2404 24.9597C74.013 25.0632 73.8544 25.1057 73.6561 25.1589C73.1298 25.2574 72.7012 25.2446 72.3017 25.1816C71.9312 25.0683 71.5898 24.9048 71.2668 24.6512C70.9834 24.387 70.7291 24.0725 70.5435 23.697C70.3579 23.3216 70.2409 22.8853 70.124 22.449C70.0467 22.002 70.0198 21.5841 70.0325 21.1555C70.0452 20.727 70.1586 20.3565 70.3222 20.0151C70.4858 19.6736 70.7394 19.3506 71.0645 19.1359C71.379 18.8816 71.765 18.7357 72.241 18.6082C72.688 18.5309 73.1165 18.5436 73.5663 18.6357C74.0267 18.7674 74.3788 18.9707 74.6834 19.3142L74.137 15.8469ZM75.207 21.4272C75.1511 21.0595 75.0264 20.7528 74.862 20.4567C74.6977 20.1607 74.5042 19.9149 74.2817 19.7195C74.0593 19.524 73.8079 19.3787 73.4877 19.2944C73.2072 19.1995 72.9083 19.1947 72.5407 19.2507C72.1731 19.3066 71.8373 19.4815 71.5915 19.6749C71.3457 19.8683 71.1608 20.1305 71.0262 20.4217C70.8917 20.7128 70.8471 21.0223 70.8132 21.3715C70.7792 21.7208 70.8352 22.0885 70.9415 22.4851C71.0081 22.8924 71.1328 23.199 71.2972 23.4951C71.4615 23.7912 71.6442 23.9974 71.9063 24.1822C72.1181 24.338 72.4093 24.4726 72.6792 24.5278C72.9491 24.5831 73.2481 24.5879 73.5654 24.5029C73.8827 24.4179 74.1894 24.2932 74.4351 24.0998C74.6809 23.9064 74.8368 23.6945 74.9713 23.4034C75.1059 23.1122 75.2008 22.8318 75.1951 22.4932C75.319 22.1624 75.3027 21.7842 75.207 21.4272Z" fill="white"/>
<path d="M77.8721 21.223C77.9174 21.5509 77.9629 21.8788 78.0876 22.1855C78.2123 22.4922 78.366 22.7487 78.5488 22.9549C78.7315 23.161 78.983 23.3062 79.2741 23.4408C79.5546 23.5356 79.8642 23.5802 80.2424 23.5639C80.7397 23.5157 81.1257 23.3697 81.4296 23.0757C81.7334 22.7817 81.9367 22.4296 82.0182 21.9401L82.8539 21.8863C82.7697 22.2065 82.7145 22.4763 82.5799 22.7675C82.4454 23.0586 82.2895 23.2704 82.094 23.4928C81.8985 23.7152 81.6422 23.869 81.3355 23.9937C81.0288 24.1184 80.6717 24.2141 80.3041 24.2701C79.8068 24.3183 79.3677 24.2659 78.9866 24.1129C78.6055 23.9599 78.2931 23.7461 78.0097 23.4819C77.7661 23.2071 77.5515 22.882 77.3949 22.4563C77.2489 22.0702 77.1319 21.6339 77.0943 21.1763C77.0567 20.7187 77.0695 20.2902 77.1615 19.8404C77.2642 19.4302 77.4172 19.0492 77.6204 18.6971C77.8237 18.345 78.1382 18.0906 78.4633 17.876C78.7884 17.6613 79.2247 17.5444 79.6823 17.5068C80.5578 17.4423 81.2592 17.6795 81.8259 18.2079C82.3636 18.7866 82.7163 19.6274 82.805 20.7515L77.8721 21.223ZM81.95 20.2578C81.9047 19.9299 81.87 19.6416 81.7559 19.3745C81.6418 19.1075 81.4986 18.8908 81.3158 18.6847C81.1437 18.5182 80.8923 18.3731 80.6515 18.2675C80.371 18.1726 80.101 18.1174 79.7731 18.1627C79.4451 18.2081 79.1674 18.2825 78.911 18.4363C78.6943 18.5794 78.4881 18.7621 78.3323 18.9739C78.1765 19.1857 78.0314 19.4372 77.9762 19.7071C77.8813 19.9876 77.8367 20.2972 77.8318 20.5961L81.95 20.2578Z" fill="white"/>
<path d="M88.8259 14.9714L89.5535 14.989L89.4239 23.8668L88.6964 23.8491L88.6977 22.7434L88.658 22.7541C88.5419 22.9552 88.4258 23.1564 88.2488 23.2889C88.0823 23.461 87.9052 23.5935 87.6779 23.6969C87.4505 23.8004 87.2628 23.8932 87.0644 23.9463C86.8661 23.9994 86.6572 24.013 86.4482 24.0264C85.9297 23.9953 85.4904 23.9428 85.1384 23.7396C84.7863 23.5363 84.4739 23.3225 84.2593 22.9974C84.0446 22.6723 83.8697 22.3365 83.7634 21.9399C83.6571 21.5432 83.6195 21.0856 83.6215 20.6174C83.6343 20.1888 83.6866 19.7496 83.829 19.3288C83.9317 18.9187 84.1349 18.5666 84.3884 18.2436C84.6526 17.9602 84.9275 17.7166 85.3029 17.531C85.6783 17.3454 86.0856 17.2787 86.5538 17.2808C87.022 17.2829 87.4321 17.3856 87.8345 17.6179C88.2369 17.8502 88.5706 18.1433 88.7958 18.5081L88.8259 14.9714ZM88.7323 20.6509C88.7266 20.3123 88.7103 19.934 88.5856 19.6273C88.5006 19.31 88.3362 19.014 88.1824 18.7576C87.989 18.5118 87.7666 18.3163 87.5152 18.1712C87.2637 18.026 86.9434 17.9417 86.6048 17.9473C86.216 17.924 85.8986 18.009 85.6025 18.1734C85.3065 18.3377 85.1004 18.5205 84.9156 18.7826C84.7307 19.0447 84.5961 19.3359 84.5224 19.6957C84.4488 20.0556 84.3753 20.4154 84.4022 20.8334C84.3789 21.2222 84.4349 21.5898 84.5595 21.8965C84.6842 22.2032 84.7983 22.4703 85.0208 22.6658C85.2035 22.8719 85.4655 23.0568 85.7064 23.1623C85.9472 23.2679 86.2674 23.352 86.5663 23.357C86.9049 23.3513 87.2329 23.3059 87.4893 23.1522C87.7564 23.0381 88.0022 22.8447 88.1871 22.5826C88.3719 22.3205 88.5171 22.069 88.6013 21.7488C88.675 21.389 88.709 21.0397 88.7323 20.6509Z" fill="white"/>
<path d="M90.7793 24.0149L91.3695 17.6497L92.1076 17.707L91.5174 24.0722L90.7793 24.0149ZM91.426 16.2741L91.5174 15.1867L92.3455 15.2625L92.2541 16.3498L91.426 16.2741Z" fill="white"/>
<path d="M97.8037 20.5597C97.7555 20.0624 97.5698 19.6871 97.3155 19.3726C97.0215 19.0687 96.6695 18.8653 96.18 18.7839C95.8202 18.7103 95.4922 18.7558 95.1855 18.8805C94.8788 19.0052 94.6621 19.1483 94.4269 19.3813C94.2314 19.6038 94.0466 19.8658 93.9227 20.1966C93.7881 20.4877 93.7038 20.808 93.6698 21.1572C93.6358 21.5064 93.5913 21.8159 93.6367 22.1439C93.682 22.4718 93.7671 22.7892 93.8811 23.0562C93.9952 23.3233 94.1886 23.5691 94.4507 23.754C94.6732 23.9494 95.0039 24.0734 95.4034 24.1364C95.9432 24.2468 96.4299 24.1589 96.7841 23.894C97.1488 23.6687 97.4207 23.2557 97.5815 22.745L98.3804 22.8709C98.2565 23.2018 98.122 23.493 97.8975 23.7657C97.7127 24.0278 97.4775 24.2608 97.221 24.4146C96.9646 24.5683 96.658 24.693 96.3407 24.778C96.0127 24.8234 95.6344 24.8397 95.2349 24.7767C94.7454 24.6952 94.3247 24.5529 93.962 24.3099C93.5993 24.067 93.3556 23.7922 93.1806 23.4565C93.0056 23.1207 92.8596 22.7348 92.8327 22.3169C92.7661 21.9096 92.8078 21.4307 92.8602 20.9915C92.9126 20.5524 93.055 20.1315 93.2582 19.7795C93.4509 19.3877 93.7044 19.0648 93.9792 18.8211C94.254 18.5774 94.6187 18.352 95.0048 18.2061C95.3908 18.0601 95.8195 18.0728 96.2983 18.1145C97.0074 18.2222 97.5896 18.4914 98.0054 18.9326C98.4106 19.3342 98.6097 19.9185 98.6027 20.6857L97.8037 20.5597Z" fill="white"/>
<path d="M102.436 22.294C102.566 22.3017 102.746 22.3386 102.915 22.3358C103.084 22.3329 103.254 22.3301 103.423 22.3272C103.542 22.2953 103.65 22.2237 103.698 22.0835C103.756 21.9829 103.803 21.8427 103.822 21.7528C103.895 21.3929 103.89 21.0542 103.725 20.7582C103.561 20.4621 103.209 20.2588 102.619 20.1193C102.389 20.0535 102.129 20.038 101.91 20.0118C101.69 19.9856 101.492 20.0387 101.293 20.0918C101.095 20.145 100.958 20.2669 100.791 20.439C100.625 20.6112 100.509 20.8123 100.403 21.0532L99.6728 20.8662C99.7861 20.4958 99.9709 20.2336 100.166 20.0112C100.362 19.7888 100.618 19.635 100.885 19.5209C101.152 19.4069 101.441 19.3722 101.779 19.3665C102.078 19.3714 102.427 19.4054 102.748 19.4896C103.068 19.5739 103.348 19.6688 103.6 19.814C103.851 19.9592 104.063 20.1151 104.246 20.3212C104.429 20.5273 104.532 20.7547 104.567 21.043C104.601 21.3312 104.597 21.6302 104.483 22.0006L103.604 25.3823C103.549 25.6522 103.522 25.8718 103.623 25.9299C103.724 25.988 103.914 26.0644 104.242 26.0191L104.092 26.5695C104.052 26.5801 103.923 26.5723 103.843 26.5935C103.764 26.6148 103.624 26.5674 103.494 26.5596C103.404 26.5412 103.264 26.4937 103.163 26.4357C103.063 26.3776 102.962 26.3195 102.901 26.2508C102.84 26.1821 102.819 26.1028 102.787 25.9838C102.766 25.9044 102.774 25.7748 102.752 25.6955C102.771 25.6055 102.779 25.4758 102.797 25.3859C102.403 25.6615 102.017 25.8074 101.57 25.8847C101.123 25.9619 100.695 25.9492 100.234 25.8175C99.9643 25.7623 99.7235 25.6567 99.4721 25.5115C99.2206 25.3664 99.0484 25.1999 98.9053 24.9832C98.7622 24.7664 98.6588 24.5391 98.595 24.3011C98.5312 24.0631 98.5362 23.7641 98.6311 23.4836C98.9023 22.4331 99.7614 21.9904 101.259 22.1844L102.436 22.294ZM103.553 22.9725C103.225 23.0179 102.887 23.0236 102.577 22.979C102.268 22.9344 101.958 22.8898 101.649 22.8452C101.109 22.7347 100.651 22.7723 100.254 22.8786C99.9081 23.0139 99.6439 23.2973 99.5412 23.7075C99.5044 23.8874 99.4677 24.0673 99.5102 24.2259C99.5527 24.3846 99.6348 24.5326 99.7064 24.641C99.7779 24.7493 99.9395 24.8761 100.09 24.9633C100.241 25.0504 100.392 25.1375 100.572 25.1744C100.853 25.2693 101.151 25.2742 101.45 25.2791C101.749 25.284 101.987 25.2202 102.265 25.1458C102.532 25.0317 102.709 24.8993 102.915 24.7165C103.121 24.5337 103.227 24.2929 103.311 23.9727L103.553 22.9725Z" fill="white"/>
<path d="M106.788 27.5899C106.698 27.5715 106.568 27.5638 106.439 27.556C106.309 27.5482 106.129 27.5113 105.949 27.4745C105.619 27.3505 105.357 27.1658 105.253 26.9384C105.15 26.711 105.144 26.3724 105.315 25.9013L106.805 21.4634L105.963 21.1788L106.153 20.6178L106.994 20.9024L107.564 19.2193L108.265 19.4566L107.696 21.1397L108.818 21.5192L108.628 22.0803L107.506 21.7007L106.101 25.8185C106.053 25.9587 106.006 26.0989 105.988 26.1889C105.969 26.2788 105.961 26.4085 105.983 26.4878C106.004 26.5671 106.025 26.6465 106.126 26.7046C106.187 26.7733 106.327 26.8207 106.467 26.8681C106.557 26.8865 106.658 26.9447 106.748 26.9631C106.838 26.9815 106.967 26.9893 107.057 27.0077L106.788 27.5899Z" fill="white"/>
<path d="M108.93 25.1032C108.806 25.434 108.721 25.7542 108.677 26.0637C108.632 26.3733 108.667 26.6616 108.741 26.9393C108.816 27.217 108.969 27.4733 109.163 27.7191C109.356 27.9649 109.618 28.1497 109.949 28.2737C110.38 28.4557 110.82 28.5081 111.256 28.3912C111.653 28.2849 112.017 28.0596 112.289 27.6466L113.052 27.9525C112.856 28.1749 112.621 28.4081 112.375 28.6015C112.129 28.7949 111.862 28.9089 111.595 29.023C111.318 29.0974 111.029 29.1321 110.691 29.1378C110.392 29.1329 110.021 29.0195 109.64 28.8665C109.159 28.6555 108.796 28.4126 108.542 28.0981C108.248 27.7942 108.073 27.4585 107.977 27.1015C107.881 26.7445 107.854 26.3266 107.917 25.9271C107.97 25.4879 108.072 25.0778 108.254 24.6464C108.436 24.215 108.679 23.8523 108.973 23.5186C109.266 23.185 109.58 22.9307 109.916 22.7557C110.252 22.5807 110.648 22.4744 111.066 22.4475C111.484 22.4205 111.884 22.4835 112.315 22.6656C113.128 23.0005 113.655 23.5394 113.857 24.2931C114.098 25.0361 113.965 25.9649 113.524 27.0183L108.93 25.1032ZM113.002 26.1803C113.136 25.8891 113.192 25.6192 113.236 25.3097C113.281 25.0001 113.257 24.7515 113.153 24.5241C113.09 24.2861 112.936 24.0297 112.753 23.8236C112.57 23.6175 112.308 23.4327 112.017 23.2981C111.726 23.1636 111.416 23.1189 111.168 23.143C110.919 23.1671 110.641 23.2415 110.374 23.3556C110.107 23.4696 109.901 23.6524 109.695 23.8352C109.5 24.0576 109.304 24.2801 109.159 24.5316L113.002 26.1803Z" fill="white"/>
<path d="M121.491 24.7135L122.134 25.0513L117.842 32.8335L117.199 32.4957L117.74 31.5004C117.563 31.6329 117.336 31.7363 117.098 31.8001C116.86 31.8638 116.651 31.8774 116.442 31.8908C116.222 31.8647 116.003 31.8385 115.783 31.8123C115.553 31.7465 115.362 31.67 115.211 31.5829C114.759 31.3215 114.425 31.0282 114.171 30.7137C113.916 30.3993 113.781 30.0529 113.714 29.6456C113.658 29.2779 113.682 28.8891 113.784 28.479C113.887 28.0688 114.069 27.6374 114.262 27.2456C114.494 26.8433 114.748 26.5203 115.041 26.1867C115.345 25.8927 115.659 25.6384 116.006 25.503C116.352 25.3677 116.749 25.2614 117.137 25.2847C117.526 25.3081 117.936 25.4108 118.389 25.6721C118.791 25.9044 119.125 26.1976 119.39 26.5518C119.666 26.9456 119.812 27.3316 119.81 27.7999L121.491 24.7135ZM118.775 29.6501C118.949 29.3483 119.073 29.0176 119.147 28.6577C119.231 28.3376 119.225 27.999 119.191 27.7107C119.156 27.4224 119.042 27.1554 118.888 26.899C118.734 26.6426 118.512 26.4471 118.21 26.2728C117.869 26.1092 117.538 25.9853 117.239 25.9803C116.9 25.986 116.623 26.0604 116.316 26.1851C116.009 26.3098 115.774 26.5429 115.539 26.7759C115.314 27.0487 115.1 27.3611 114.897 27.7132C114.694 28.0653 114.57 28.396 114.536 28.7452C114.491 29.0547 114.486 29.3538 114.561 29.6314C114.635 29.9091 114.749 30.176 114.932 30.3822C115.115 30.5883 115.337 30.7838 115.589 30.929C115.891 31.1032 116.211 31.1875 116.51 31.1924C116.809 31.1973 117.097 31.1626 117.353 31.0089C117.62 30.8948 117.906 30.6907 118.141 30.4577C118.376 30.2246 118.572 30.0022 118.775 29.6501Z" fill="white"/>
<path d="M122.973 36.4326C122.883 36.4142 122.783 36.3561 122.642 36.3086C122.502 36.2612 122.351 36.1741 122.2 36.087C121.888 35.8731 121.734 35.6167 121.67 35.3787C121.607 35.1407 121.731 34.8099 122.003 34.3969L124.739 30.6453L124.003 30.1197L124.383 29.6352L125.119 30.1606L126.181 28.7283L126.766 29.1668L125.744 30.5885L126.702 31.3096L126.322 31.7941L125.363 31.073L122.783 34.6129C122.685 34.7241 122.638 34.8644 122.53 34.9359C122.472 35.0365 122.414 35.1371 122.435 35.2164C122.416 35.3064 122.438 35.3857 122.499 35.4544C122.559 35.5231 122.631 35.6314 122.782 35.7185C122.843 35.7873 122.943 35.8454 123.033 35.8638C123.134 35.9219 123.224 35.9403 123.325 35.9983L122.973 36.4326Z" fill="white"/>
<path d="M125.219 38.467C124.935 38.2028 124.681 37.8883 124.466 37.5632C124.291 37.2275 124.196 36.8705 124.169 36.4525C124.152 36.0743 124.215 35.6748 124.358 35.2541C124.5 34.8333 124.772 34.4203 125.123 33.986C125.406 33.6127 125.76 33.3477 126.114 33.0827C126.479 32.8575 126.865 32.7116 127.222 32.6159C127.59 32.5599 128.018 32.5726 128.378 32.6462C128.788 32.7489 129.14 32.9522 129.524 33.2744C129.908 33.5967 130.173 33.9509 130.359 34.3263C130.544 34.7017 130.6 35.0694 130.617 35.4476C130.593 35.8365 130.53 36.2359 130.338 36.6277C130.145 37.0194 129.942 37.3715 129.619 37.7554C129.297 38.1394 128.954 38.444 128.549 38.6799C128.184 38.9052 127.798 39.0511 127.431 39.1071C127.063 39.1631 126.674 39.1398 126.264 39.0371C125.933 38.9132 125.542 38.7206 125.219 38.467ZM129.063 37.2667C129.328 36.9834 129.502 36.6816 129.636 36.3904C129.771 36.0993 129.855 35.7791 129.9 35.4696C129.905 35.1707 129.87 34.8824 129.756 34.6154C129.642 34.3484 129.438 34.0629 129.115 33.8093C128.831 33.5451 128.54 33.4105 128.22 33.3262C127.91 33.2816 127.612 33.2767 127.334 33.3511C127.056 33.4255 126.75 33.5503 126.464 33.7543C126.179 33.9583 125.943 34.1914 125.719 34.4641C125.465 34.7871 125.251 35.0995 125.117 35.3907C124.993 35.7215 124.898 36.002 124.893 36.3009C124.888 36.5999 124.923 36.8881 125.037 37.1552C125.151 37.4222 125.345 37.6679 125.617 37.8925C125.901 38.1567 126.192 38.2913 126.512 38.3755C126.821 38.4201 127.12 38.425 127.398 38.3506C127.715 38.2656 127.982 38.1516 128.268 37.9476C128.604 37.7726 128.839 37.5395 129.063 37.2667Z" fill="white"/>
<path d="M135.383 39.1023L130.117 44.0422C129.91 44.225 129.744 44.3971 129.556 44.4899C129.379 44.6224 129.231 44.7046 129.073 44.7471C128.914 44.7896 128.734 44.7528 128.594 44.7053C128.443 44.6182 128.242 44.502 128.048 44.2562C127.926 44.1188 127.805 43.9814 127.733 43.8731L128.203 43.407C128.336 43.5841 128.458 43.7214 128.558 43.7795C128.669 43.8773 128.759 43.8956 128.889 43.9034C128.979 43.9218 129.098 43.8899 129.206 43.8183C129.315 43.7468 129.423 43.6754 129.56 43.5535L134.895 38.5528L135.383 39.1023ZM136.453 38.1779L135.915 37.5993L136.729 36.8285L137.277 37.4468L136.453 38.1779Z" fill="white"/>
<path d="M136.214 44.1092C136.325 44.2069 136.436 44.3047 136.598 44.4315C136.759 44.5583 136.87 44.656 137.011 44.7034C137.151 44.7509 137.241 44.7693 137.389 44.6871C137.497 44.6155 137.606 44.544 137.714 44.4724C137.989 44.2287 138.163 43.927 138.208 43.6175C138.242 43.2682 138.056 42.8929 137.72 42.4303C137.537 42.2242 137.404 42.0472 137.203 41.931C137.042 41.8042 136.84 41.6881 136.661 41.6513C136.481 41.6144 136.261 41.5882 136.063 41.6413C135.864 41.6945 135.626 41.7582 135.41 41.9013L134.912 41.3121C135.237 41.0974 135.533 40.933 135.821 40.8983C136.109 40.8636 136.408 40.8685 136.678 40.9237C136.959 41.0186 137.239 41.1136 137.462 41.3091C137.724 41.4939 137.957 41.729 138.161 42.0145C138.354 42.2602 138.508 42.5166 138.662 42.773C138.776 43.0401 138.839 43.2781 138.874 43.5664C138.898 43.8151 138.843 44.0849 138.698 44.3363C138.592 44.5772 138.368 44.8499 138.082 45.054L135.4 47.2607C135.194 47.4435 135.067 47.605 135.06 47.7346C135.052 47.8642 135.224 48.0307 135.515 48.1653L135.063 48.5414C135.013 48.5124 134.952 48.4437 134.851 48.3857C134.751 48.3276 134.69 48.2588 134.618 48.1505C134.547 48.0421 134.486 47.9733 134.454 47.8543C134.382 47.746 134.361 47.6667 134.369 47.5371C134.387 47.4471 134.406 47.3572 134.424 47.2672C134.442 47.1772 134.501 47.0767 134.569 47.0157C134.638 46.9548 134.696 46.8542 134.804 46.7826C134.326 46.7409 133.915 46.6382 133.524 46.4456C133.132 46.253 132.798 45.9597 132.494 45.6161C132.311 45.41 132.157 45.1536 132.054 44.9263C131.95 44.6989 131.876 44.4212 131.891 44.162C131.867 43.9133 131.933 43.6832 132.039 43.4423C132.144 43.2015 132.3 42.9896 132.546 42.7962C133.381 42.1048 134.36 42.2677 135.443 43.2954L136.214 44.1092ZM136.713 45.336C136.411 45.1618 136.149 44.977 135.926 44.7815C135.693 44.5464 135.471 44.3508 135.238 44.1157C134.832 43.7141 134.459 43.4314 134.089 43.3181C133.718 43.2048 133.361 43.3006 133.047 43.5549C132.909 43.6767 132.772 43.7985 132.735 43.9785C132.688 44.1187 132.651 44.2987 132.643 44.4283C132.635 44.5579 132.688 44.7562 132.771 44.9043C132.853 45.0523 132.935 45.2003 133.057 45.3377C133.25 45.5835 133.462 45.7393 133.684 45.9348C133.896 46.0906 134.148 46.2358 134.418 46.2911C134.648 46.3569 134.947 46.3618 135.195 46.3377C135.484 46.303 135.7 46.16 135.946 45.9666L136.713 45.336Z" fill="white"/>
<path d="M143.365 49.5473L143.784 50.1578L138.987 53.3565C138.622 53.5818 138.246 53.7674 137.911 53.9424C137.525 54.0883 137.157 54.1443 136.808 54.1104C136.459 54.0764 136.088 53.9631 135.725 53.7201C135.363 53.4772 135.018 53.1443 134.671 52.6421C134.396 52.2483 134.25 51.8622 134.165 51.5449C134.069 51.1879 134.034 50.8997 134.079 50.5901C134.124 50.2806 134.189 50.0504 134.305 49.8492C134.422 49.648 134.548 49.4865 134.725 49.354L135.155 50.0042C134.988 50.1764 134.872 50.3775 134.835 50.5574C134.799 50.7373 134.762 50.9173 134.775 51.1262C134.789 51.3352 134.831 51.4939 134.924 51.6816C135.017 51.8693 135.11 52.057 135.242 52.2341C135.518 52.6279 135.812 52.9318 136.113 53.106C136.415 53.2802 136.725 53.3248 137.063 53.3191C137.391 53.2737 137.709 53.1887 138.015 53.064C138.322 52.9393 138.647 52.7246 138.972 52.5099C138.515 52.5475 138.094 52.4052 137.692 52.1729C137.289 51.9406 136.956 51.6473 136.72 51.2429C136.444 50.8491 136.287 50.4234 136.271 50.0451C136.244 49.6272 136.278 49.2781 136.392 48.9076C136.505 48.5371 136.708 48.185 137.012 47.891C137.305 47.5574 137.62 47.3031 137.974 47.0382C138.368 46.7626 138.743 46.5769 139.169 46.4203C139.555 46.2744 139.962 46.2077 140.362 46.2707C140.75 46.294 141.081 46.4181 141.433 46.6213C141.785 46.8246 142.09 47.1681 142.366 47.5619C142.498 47.739 142.591 47.9267 142.644 48.125C142.697 48.3234 142.761 48.5613 142.774 48.7703C142.788 48.9793 142.772 49.2386 142.746 49.4581C142.68 49.6884 142.614 49.9185 142.498 50.1197L142.509 50.1594L143.365 49.5473ZM140.696 51.3255C141.021 51.1109 141.296 50.8672 141.52 50.5944C141.745 50.3217 141.929 50.0596 142.024 49.7791C142.119 49.4986 142.164 49.189 142.129 48.9007C142.094 48.6124 141.97 48.3056 141.805 48.0096C141.652 47.7532 141.429 47.5578 141.207 47.3623C140.955 47.2171 140.714 47.1115 140.405 47.0669C140.095 47.0223 139.807 47.0571 139.479 47.1024C139.162 47.1875 138.815 47.3228 138.49 47.5375C138.165 47.7521 137.84 47.9667 137.615 48.2395C137.38 48.4725 137.206 48.7743 137.072 49.0655C136.937 49.3566 136.892 49.6661 136.938 49.9941C136.983 50.322 137.068 50.6394 137.283 50.9645C137.487 51.2499 137.709 51.4454 137.961 51.5906C138.212 51.7358 138.532 51.8201 138.831 51.8251C139.13 51.83 139.458 51.7846 139.776 51.6996C140.064 51.6649 140.41 51.5295 140.696 51.3255Z" fill="white"/>
<path d="M146.736 55.6165L147.086 56.2881L141.418 59.2523L141.068 58.5807L141.848 58.1592C141.708 58.1118 141.528 58.075 141.388 58.0275C141.208 57.9907 141.057 57.9035 140.906 57.8164C140.755 57.7293 140.594 57.6025 140.422 57.4361C140.249 57.2696 140.117 57.0926 140.003 56.8256C139.817 56.4502 139.682 56.1038 139.687 55.8049C139.652 55.5166 139.697 55.207 139.802 54.9662C139.908 54.7253 140.053 54.4738 140.299 54.2804C140.545 54.087 140.751 53.9043 141.047 53.7399L144.78 51.8044L145.13 52.4759L141.397 54.4114C140.913 54.6686 140.609 54.9626 140.456 55.3437C140.303 55.7248 140.37 56.1321 140.638 56.6555C140.791 56.9119 140.934 57.1287 141.197 57.3136C141.408 57.4694 141.649 57.5749 141.919 57.6301C142.189 57.6853 142.477 57.6506 142.765 57.6158C143.083 57.5308 143.361 57.4564 143.696 57.2814L146.736 55.6165Z" fill="white"/>
<path d="M146.334 61.4207C146.405 61.5291 146.488 61.6772 146.58 61.8649C146.673 62.0526 146.785 62.1503 146.896 62.248C147.007 62.3458 147.097 62.3642 147.266 62.3613C147.385 62.3294 147.504 62.2975 147.623 62.2657C147.97 62.1303 148.205 61.8973 148.329 61.5665C148.463 61.2753 148.426 60.8177 148.198 60.2837C148.094 60.0563 147.991 59.829 147.858 59.6519C147.726 59.4749 147.604 59.3374 147.442 59.2107C147.281 59.0839 147.101 59.047 146.881 59.0208C146.662 58.9946 146.413 59.0187 146.175 59.0825L145.904 58.3898C146.261 58.2941 146.589 58.2487 146.888 58.2537C147.198 58.2983 147.478 58.3932 147.69 58.549C147.942 58.6942 148.124 58.9003 148.328 59.1857C148.522 59.4315 148.686 59.7276 148.811 60.0343C148.936 60.341 149.01 60.6187 149.045 60.907C149.08 61.1953 149.064 61.4545 149.009 61.7244C148.943 61.9546 148.798 62.2061 148.642 62.4179C148.446 62.6403 148.19 62.7941 147.844 62.9294L144.618 64.2189C144.351 64.333 144.213 64.4548 144.155 64.5553C144.108 64.6956 144.201 64.8833 144.434 65.1184L143.9 65.3467C143.849 65.3176 143.828 65.2383 143.757 65.1299C143.685 65.0215 143.624 64.9528 143.592 64.8338C143.56 64.7148 143.539 64.6355 143.507 64.5165C143.475 64.3975 143.483 64.2678 143.501 64.1778C143.52 64.0879 143.578 63.9873 143.647 63.9264C143.715 63.8655 143.784 63.8046 143.892 63.733C144.001 63.6615 144.08 63.6402 144.189 63.5687C143.757 63.3867 143.365 63.194 143.061 62.8504C142.727 62.5572 142.502 62.1924 142.335 61.7271C142.221 61.46 142.157 61.2221 142.122 60.9338C142.098 60.6852 142.114 60.4259 142.179 60.1957C142.245 59.9655 142.351 59.7246 142.517 59.5524C142.684 59.3803 142.89 59.1975 143.196 59.0728C144.196 58.6775 145.08 59.1209 145.809 60.4135L146.334 61.4207ZM146.465 62.7035C146.232 62.4683 146.028 62.183 145.874 61.9266C145.721 61.6702 145.556 61.3741 145.431 61.0674C145.164 60.5439 144.899 60.1898 144.586 59.9759C144.274 59.762 143.925 59.7281 143.499 59.8846C143.311 59.9775 143.163 60.0595 143.065 60.1708C142.968 60.282 142.881 60.4329 142.833 60.5732C142.786 60.7134 142.789 60.8827 142.791 61.052C142.794 61.2213 142.837 61.3799 142.919 61.528C143.033 61.795 143.187 62.0515 143.341 62.3079C143.523 62.514 143.706 62.7201 143.918 62.8759C144.13 63.0317 144.36 63.0976 144.669 63.1422C144.939 63.1974 145.217 63.123 145.524 62.9983L146.465 62.7035Z" fill="white"/>
<path d="M144.23 66.5761L143.999 65.8728L150.083 63.9874L150.314 64.6907L149.175 65.0385L149.185 65.0782C149.744 65.0987 150.135 65.2913 150.448 65.5052C150.731 65.7694 150.956 66.1342 151.134 66.6392L150.391 66.8809C150.285 66.4842 150.121 66.1881 149.887 65.953C149.665 65.7575 149.453 65.6017 149.173 65.5068C148.892 65.4119 148.593 65.4069 148.265 65.4523C147.937 65.4977 147.609 65.543 147.263 65.6783L144.23 66.5761Z" fill="white"/>
<path d="M145.87 72.6847L145.718 71.96L151.973 70.7092L152.125 71.4339L150.953 71.6628L150.964 71.7025C151.503 71.813 151.895 72.0056 152.179 72.2698C152.422 72.5446 152.619 72.9597 152.717 73.486L151.953 73.6482C151.886 73.2409 151.751 72.8945 151.568 72.6884C151.375 72.4426 151.163 72.2868 150.872 72.1522C150.631 72.0467 150.321 72.0021 149.983 72.0078C149.644 72.0135 149.316 72.059 148.949 72.1149L145.87 72.6847Z" fill="white"/>
<path d="M149.441 75.3837C149.113 75.429 148.796 75.514 148.489 75.6387C148.182 75.7634 147.936 75.9569 147.73 76.1397C147.535 76.3621 147.379 76.5738 147.284 76.8543C147.189 77.1349 147.145 77.4444 147.201 77.812C147.249 78.3093 147.434 78.6847 147.728 78.9886C148.022 79.2924 148.414 79.4851 148.893 79.5268L148.987 80.3521C148.677 80.3075 148.397 80.2125 148.105 80.0779C147.825 79.983 147.563 79.7983 147.34 79.6028C147.118 79.4073 146.925 79.1615 146.8 78.8548C146.675 78.5481 146.55 78.2414 146.524 77.8235C146.475 77.3263 146.477 76.8579 146.63 76.4768C146.744 76.1064 146.947 75.7544 147.211 75.471C147.475 75.1876 147.8 74.973 148.186 74.8271C148.572 74.6811 149.009 74.5642 149.456 74.4869C149.913 74.4493 150.382 74.4514 150.781 74.5144C151.191 74.6171 151.562 74.7304 151.924 74.9733C152.277 75.1766 152.52 75.4514 152.745 75.8162C152.96 76.1413 153.117 76.567 153.154 77.0246C153.258 77.8895 153.032 78.6304 152.504 79.1971C151.975 79.7638 151.134 80.1167 149.981 80.2556L149.441 75.3837ZM150.565 79.419C150.893 79.3736 151.17 79.2992 151.437 79.1851C151.705 79.0711 151.921 78.928 152.117 78.7056C152.283 78.5335 152.428 78.282 152.523 78.0014C152.618 77.7209 152.623 77.422 152.578 77.0941C152.532 76.7661 152.458 76.4884 152.265 76.2426C152.071 75.9969 151.939 75.8197 151.687 75.6746C151.475 75.5187 151.195 75.4238 150.914 75.3289C150.634 75.234 150.335 75.2292 150.036 75.2242L150.565 79.419Z" fill="white"/>
<path d="M149.059 81.7355C148.503 81.8843 148.128 82.0699 147.914 82.3823C147.7 82.6947 147.597 83.1049 147.627 83.6921C147.651 83.9407 147.675 84.1894 147.728 84.3877C147.782 84.5861 147.904 84.7235 148.025 84.8609C148.147 84.9983 148.258 85.096 148.399 85.1435C148.539 85.1909 148.679 85.2383 148.848 85.2355C149.147 85.2404 149.375 85.137 149.531 84.9251C149.686 84.7133 149.792 84.4725 149.876 84.1523C149.96 83.8321 150.005 83.5226 150.079 83.1627C150.113 82.8135 150.237 82.4827 150.321 82.1625C150.445 81.8317 150.59 81.5802 150.836 81.3868C151.071 81.1538 151.388 81.0688 151.806 81.0418C152.354 81.0227 152.785 81.2046 153.14 81.5772C153.495 81.9498 153.683 82.4945 153.705 83.2114C153.717 83.8885 153.577 84.4786 153.305 84.8916C152.994 85.3152 152.521 85.612 151.785 85.7239L151.753 84.9674C152.239 84.8796 152.575 84.7045 152.789 84.3921C153.003 84.0798 153.066 83.6803 153.068 83.2121C153.07 82.7439 152.935 82.3974 152.741 82.1517C152.548 81.9059 152.267 81.8111 151.929 81.8168C151.63 81.8119 151.403 81.9153 151.286 82.1165C151.131 82.3283 151.025 82.5691 150.941 82.8893C150.856 83.2095 150.772 83.5295 150.699 83.8894C150.625 84.2492 150.541 84.5694 150.417 84.9002C150.282 85.1914 150.097 85.4536 149.902 85.676C149.667 85.9091 149.349 85.9941 148.971 86.0104C148.672 86.0055 148.402 85.9502 148.161 85.8447C147.921 85.7392 147.738 85.5331 147.555 85.327C147.412 85.1102 147.258 84.8538 147.173 84.5365C147.088 84.2192 147.043 83.8912 147.027 83.513C147.01 83.1347 147.044 82.7855 147.179 82.4943C147.274 82.2138 147.419 81.9623 147.614 81.7399C147.81 81.5175 148.026 81.3743 148.283 81.2205C148.55 81.1065 148.828 81.0321 149.116 80.9974L149.059 81.7355Z" fill="white"/>
<path d="M151.267 91.5606C151.754 91.4727 152.119 91.2474 152.423 90.9534C152.727 90.6594 152.869 90.2387 152.911 89.7598C152.934 89.3709 152.889 89.043 152.735 88.7866C152.621 88.5196 152.388 88.2844 152.165 88.0889C151.943 87.8934 151.652 87.7588 151.321 87.6349C151.001 87.5506 150.681 87.4664 150.331 87.4324C149.982 87.3985 149.654 87.4438 149.326 87.4891C148.998 87.5345 148.692 87.6593 148.435 87.813C148.179 87.9667 147.944 88.1997 147.798 88.4512C147.614 88.7133 147.529 89.0335 147.506 89.4223C147.485 89.9805 147.602 90.4168 147.867 90.771C148.132 91.1251 148.535 91.3575 149.085 91.5076L149.038 92.2854C148.678 92.2118 148.387 92.0771 148.086 91.9029C147.784 91.7287 147.561 91.5333 147.368 91.2875C147.175 91.0417 147.021 90.7854 146.936 90.468C146.851 90.1507 146.795 89.783 146.818 89.3941C146.849 88.8756 146.952 88.4655 147.155 88.1134C147.358 87.7613 147.623 87.478 147.908 87.274C148.194 87.0699 148.579 86.924 149.016 86.8071C149.452 86.6901 149.881 86.7028 150.349 86.7049C150.788 86.7573 151.227 86.8097 151.608 86.9627C151.99 87.1157 152.342 87.3189 152.625 87.5831C152.908 87.8473 153.163 88.1617 153.309 88.5478C153.454 88.9338 153.521 89.3411 153.479 89.8199C153.422 90.558 153.232 91.119 152.841 91.5639C152.45 92.0088 151.877 92.2476 151.131 92.3199L151.267 91.5606Z" fill="white"/>
<path d="M152.294 98.2577L152.146 98.9774L145.873 97.9374L146.02 97.2178L146.909 97.3622C146.798 97.2644 146.716 97.1163 146.594 96.9789C146.472 96.8415 146.39 96.6935 146.337 96.4951C146.284 96.2968 146.191 96.1091 146.178 95.9001C146.164 95.6912 146.14 95.4426 146.195 95.1728C146.258 94.7732 146.372 94.4027 146.556 94.1406C146.741 93.8785 146.937 93.6561 147.164 93.5526C147.381 93.4095 147.658 93.3351 147.947 93.3004C148.235 93.2656 148.534 93.2706 148.894 93.3442L153.029 94.0218L152.882 94.7414L148.747 94.0639C148.207 93.9535 147.76 94.0307 147.435 94.2454C147.11 94.46 146.867 94.8228 146.806 95.3916C146.762 95.7011 146.746 95.9603 146.86 96.2273C146.974 96.4944 147.078 96.7217 147.261 96.9279C147.443 97.134 147.655 97.2898 147.946 97.4244C148.238 97.5589 148.518 97.6539 148.878 97.7275L152.294 98.2577Z" fill="white"/>
<path d="M148.462 100.135C148.142 100.05 147.793 100.016 147.494 100.012C147.155 100.017 146.877 100.092 146.61 100.206C146.343 100.32 146.137 100.502 145.902 100.735C145.707 100.958 145.572 101.249 145.448 101.58C145.317 102.04 145.354 102.498 145.5 102.884C145.646 103.27 145.951 103.614 146.353 103.846L146.137 104.626C145.875 104.442 145.613 104.257 145.43 104.051C145.208 103.855 145.054 103.599 144.9 103.342C144.746 103.086 144.712 102.798 144.666 102.47C144.621 102.142 144.694 101.782 144.808 101.411C144.929 100.911 145.122 100.519 145.415 100.186C145.708 99.8522 145.993 99.6482 146.329 99.4732C146.676 99.3379 147.072 99.2315 147.501 99.2443C147.929 99.257 148.369 99.3095 148.818 99.4015C149.279 99.5332 149.66 99.6861 150.023 99.9291C150.385 100.172 150.669 100.436 150.923 100.751C151.177 101.065 151.313 101.411 151.379 101.819C151.446 102.226 151.433 102.655 151.33 103.065C151.096 103.935 150.607 104.491 149.896 104.852C149.174 105.173 148.288 105.198 147.177 104.858L148.462 100.135ZM147.975 104.347C148.295 104.431 148.555 104.446 148.853 104.451C149.152 104.456 149.39 104.392 149.657 104.278C149.885 104.175 150.091 103.992 150.297 103.809C150.493 103.587 150.598 103.346 150.682 103.026C150.767 102.706 150.771 102.407 150.737 102.118C150.662 101.841 150.599 101.603 150.405 101.357C150.262 101.14 150.079 100.934 149.817 100.749C149.595 100.554 149.304 100.419 149.023 100.324L147.975 104.347Z" fill="white"/>
</svg>
