<svg width="274" height="172" viewBox="0 0 274 172" fill="none" xmlns="http://www.w3.org/2000/svg">
<path d="M115.213 140.589L117.423 148.202L116.693 148.653L114.204 139.839L115.013 139.367L120.758 145.098L120.797 145.087L118.624 137.294L119.433 136.823L125.887 143.298L125.147 143.709L119.593 138.055L119.554 138.066L121.655 145.75L120.846 146.222L115.213 140.589Z" fill="white"/>
<path d="M112.698 143.899C112.574 143.592 112.409 143.296 112.176 143.061C111.983 142.815 111.76 142.62 111.509 142.474C111.257 142.329 110.987 142.274 110.678 142.229C110.379 142.224 110.051 142.27 109.744 142.394C109.29 142.601 108.975 142.856 108.732 143.218C108.529 143.57 108.437 144.02 108.525 144.507L107.763 144.838C107.718 144.51 107.723 144.211 107.767 143.902C107.812 143.592 107.867 143.323 108.012 143.071C108.158 142.82 108.303 142.568 108.538 142.335C108.773 142.102 109.069 141.938 109.445 141.752C109.899 141.545 110.346 141.468 110.775 141.481C111.203 141.493 111.574 141.607 111.876 141.781C112.177 141.955 112.5 142.209 112.765 142.563C113.02 142.877 113.256 143.282 113.452 143.697C113.648 144.112 113.725 144.559 113.792 144.966C113.859 145.373 113.806 145.813 113.693 146.183C113.58 146.553 113.376 146.906 113.123 147.229C112.859 147.512 112.504 147.777 112.089 147.973C111.288 148.315 110.521 148.308 109.828 147.941C109.134 147.575 108.565 146.877 108.108 145.809L112.698 143.899ZM109.119 146.091C109.244 146.397 109.387 146.614 109.58 146.86C109.763 147.066 109.985 147.261 110.226 147.367C110.467 147.472 110.697 147.538 110.996 147.543C111.256 147.559 111.573 147.474 111.88 147.349C112.186 147.224 112.432 147.031 112.598 146.859C112.765 146.687 112.91 146.435 113.005 146.155C113.1 145.874 113.116 145.615 113.12 145.316C113.125 145.017 113.051 144.74 112.977 144.462L109.119 146.091Z" fill="white"/>
<path d="M105.994 143.315L108.885 151.723L108.182 151.954L105.302 143.585L105.994 143.315Z" fill="white"/>
<path d="M100.989 149.374C101.235 149.819 101.569 150.112 101.95 150.265C102.331 150.418 102.771 150.47 103.247 150.343C103.604 150.247 103.9 150.083 104.135 149.849C104.37 149.616 104.515 149.365 104.61 149.084C104.705 148.804 104.749 148.494 104.744 148.156C104.738 147.817 104.693 147.489 104.608 147.172C104.523 146.855 104.398 146.548 104.234 146.252C104.069 145.956 103.876 145.71 103.653 145.514C103.431 145.319 103.14 145.184 102.859 145.089C102.539 145.005 102.24 145 101.854 145.146C101.339 145.284 100.945 145.56 100.702 145.923C100.459 146.285 100.377 146.775 100.436 147.312L99.6826 147.514C99.6662 147.135 99.6605 146.797 99.7448 146.477C99.7894 146.167 99.924 145.876 100.069 145.625C100.254 145.362 100.45 145.14 100.735 144.936C101.02 144.732 101.327 144.607 101.724 144.501C102.2 144.373 102.657 144.336 103.057 144.399C103.456 144.462 103.837 144.615 104.11 144.839C104.423 145.053 104.677 145.368 104.902 145.732C105.127 146.097 105.284 146.523 105.401 146.959C105.518 147.396 105.584 147.803 105.532 148.242C105.519 148.671 105.417 149.081 105.253 149.422C105.1 149.803 104.886 150.116 104.572 150.37C104.268 150.664 103.893 150.85 103.417 150.977C102.703 151.169 102.065 151.169 101.533 150.929C101.001 150.689 100.585 150.248 100.275 149.566L100.989 149.374Z" fill="white"/>
<path d="M95.7382 145.807C96.1455 145.74 96.5345 145.764 96.8944 145.837C97.2542 145.911 97.5956 146.074 97.908 146.288C98.2204 146.502 98.4748 146.817 98.7107 147.221C98.9466 147.626 99.1137 148.091 99.1726 148.628C99.2498 149.075 99.2478 149.543 99.1848 149.943C99.1324 150.382 99.0191 150.752 98.8158 151.104C98.6126 151.456 98.3483 151.74 98.0232 151.954C97.6981 152.169 97.2831 152.365 96.7858 152.413C96.2992 152.501 95.831 152.499 95.4499 152.346C95.0688 152.193 94.7273 152.03 94.4149 151.816C94.1315 151.552 93.8772 151.237 93.6916 150.862C93.506 150.486 93.3891 150.05 93.3118 149.603C93.2239 149.116 93.2261 148.648 93.2784 148.209C93.3308 147.77 93.4837 147.389 93.6976 147.076C93.9009 146.724 94.1758 146.481 94.5009 146.266C94.9344 145.98 95.331 145.873 95.7382 145.807ZM94.166 149.459C94.222 149.827 94.3177 150.184 94.4424 150.491C94.5671 150.797 94.7605 151.043 94.9539 151.289C95.1763 151.484 95.3881 151.64 95.7083 151.724C95.9888 151.819 96.3381 151.853 96.7348 151.747C97.1024 151.691 97.4488 151.556 97.6946 151.362C97.9403 151.169 98.1358 150.946 98.2703 150.655C98.4049 150.364 98.4601 150.094 98.494 149.745C98.528 149.396 98.5224 149.057 98.4374 148.74C98.3814 148.372 98.2857 148.015 98.1107 147.679C97.986 147.373 97.782 147.087 97.5596 146.892C97.3371 146.696 97.0857 146.551 96.8052 146.456C96.5246 146.361 96.186 146.367 95.8581 146.412C95.4905 146.468 95.1838 146.593 94.8983 146.797C94.6526 146.991 94.457 147.213 94.3224 147.504C94.1878 147.795 94.093 148.076 94.0987 148.414C94.0754 148.803 94.1207 149.131 94.166 149.459Z" fill="white"/>
<path d="M91.6586 146.603L92.415 146.57L92.6713 152.921L91.9147 152.954L91.8687 151.988L91.829 151.999C91.676 152.38 91.4118 152.663 91.047 152.889C90.7219 153.103 90.3252 153.21 89.9073 153.236C89.6084 153.232 89.3492 153.216 89.1693 153.179C88.9893 153.142 88.7881 153.026 88.6372 152.939C88.4863 152.852 88.3645 152.715 88.2823 152.566C88.2001 152.418 88.0783 152.281 88.0252 152.083C87.8432 152.514 87.5499 152.848 87.2142 153.023C86.8494 153.248 86.4527 153.354 85.9952 153.392C85.5772 153.419 85.2174 153.345 84.9263 153.211C84.6748 153.065 84.4629 152.91 84.3092 152.653C84.1661 152.437 84.0521 152.17 84.0067 151.842C83.972 151.553 83.9266 151.225 83.8812 150.897L83.7336 146.856L84.49 146.823L84.6541 151.243C84.652 151.711 84.7872 152.058 84.9806 152.303C85.174 152.549 85.5446 152.662 86.0524 152.654C86.3407 152.619 86.5788 152.555 86.8458 152.441C87.1129 152.327 87.3084 152.105 87.5038 151.882C87.5619 151.782 87.649 151.631 87.6964 151.491C87.7438 151.35 87.7914 151.21 87.7885 151.041C87.836 150.901 87.833 150.731 87.8302 150.562C87.8273 150.393 87.8351 150.263 87.8429 150.133L87.6854 146.689L88.4419 146.657L88.606 151.077C88.6435 151.534 88.7391 151.891 88.9325 152.137C89.1259 152.383 89.4965 152.496 90.044 152.477C90.2927 152.453 90.5703 152.379 90.7977 152.275C91.0647 152.161 91.2601 151.939 91.4556 151.716C91.5533 151.605 91.6008 151.465 91.6483 151.325C91.6957 151.184 91.7432 151.044 91.7404 150.875C91.7772 150.695 91.7849 150.565 91.782 150.396C91.7792 150.227 91.787 150.097 91.7947 149.967L91.6586 146.603Z" fill="white"/>
<path d="M82.2073 149.731C82.2413 149.382 82.2355 149.043 82.1505 148.726C82.0655 148.409 81.9911 148.131 81.7977 147.885C81.6439 147.629 81.4216 147.433 81.1701 147.288C80.9186 147.143 80.5984 147.059 80.2491 147.025C79.7703 146.983 79.3234 147.06 78.9587 147.285C78.5939 147.511 78.3403 147.834 78.169 148.305L77.3409 148.229C77.4754 147.938 77.61 147.647 77.7658 147.435C77.9216 147.223 78.1567 146.99 78.3629 146.807C78.6086 146.614 78.8757 146.5 79.193 146.415C79.5103 146.33 79.8489 146.324 80.2775 146.337C80.796 146.368 81.2168 146.51 81.5689 146.714C81.9209 146.917 82.2042 147.181 82.4189 147.506C82.6336 147.831 82.7689 148.178 82.8461 148.625C82.9128 149.032 82.9503 149.49 82.9086 149.968C82.8668 150.447 82.7641 150.857 82.5715 151.249C82.3788 151.641 82.1756 151.993 81.9114 152.276C81.6472 152.56 81.3221 152.774 80.9361 152.92C80.5501 153.066 80.1428 153.133 79.7036 153.08C78.8359 153.015 78.182 152.638 77.713 151.998C77.2837 151.348 77.0896 150.465 77.2099 149.327L82.2073 149.731ZM78.0281 150.001C77.9835 150.31 78.0182 150.599 78.0926 150.876C78.167 151.154 78.2307 151.392 78.4241 151.638C78.5672 151.854 78.7791 152.01 79.0306 152.155C79.2821 152.301 79.5626 152.395 79.8615 152.4C80.2107 152.434 80.499 152.4 80.7263 152.296C80.9934 152.182 81.2101 152.039 81.4162 151.856C81.6224 151.674 81.7676 151.422 81.9127 151.171C82.0579 150.919 82.1528 150.639 82.1974 150.329L78.0281 150.001Z" fill="white"/>
<path d="M71.7087 145.147C71.7986 145.165 71.9176 145.133 72.0869 145.13C72.2562 145.127 72.3858 145.135 72.5657 145.172C72.9255 145.246 73.1771 145.391 73.3202 145.608C73.4633 145.824 73.5086 146.152 73.3875 146.652L72.4381 151.201L73.3376 151.385L73.1981 151.975L72.2986 151.791L71.9197 153.55L71.2 153.403L71.5391 151.654L70.3697 151.415L70.5091 150.825L71.6787 151.064L72.573 146.786C72.6204 146.645 72.6281 146.516 72.6359 146.386C72.6437 146.257 72.6621 146.167 72.6012 146.098C72.5403 146.029 72.5191 145.95 72.4582 145.881C72.3972 145.812 72.2676 145.805 72.1273 145.757C72.0373 145.739 71.9474 145.72 71.8177 145.713C71.6881 145.705 71.6088 145.726 71.5188 145.708L71.7087 145.147Z" fill="white"/>
<path d="M68.8351 144.258C69.2056 144.371 69.5973 144.564 69.87 144.789C70.1824 145.002 70.4367 145.317 70.6117 145.653C70.7867 145.988 70.893 146.385 70.9306 146.843C70.9682 147.3 70.8867 147.79 70.7763 148.33C70.6445 148.79 70.452 149.182 70.2487 149.534C70.0058 149.896 69.7416 150.18 69.4165 150.394C69.0914 150.609 68.745 150.744 68.3483 150.851C67.941 150.917 67.5124 150.905 67.0413 150.733C66.5809 150.602 66.1786 150.369 65.8556 150.116C65.5722 149.851 65.3178 149.537 65.1825 149.191C65.0472 148.844 64.9409 148.448 64.9536 148.019C64.9663 147.591 65.0187 147.151 65.1504 146.691C65.2715 146.191 65.5038 145.788 65.7467 145.426C65.9897 145.063 66.2935 144.769 66.6187 144.554C66.9438 144.34 67.2901 144.204 67.6974 144.138C68.0254 144.092 68.4143 144.116 68.8351 144.258ZM65.841 146.888C65.7277 147.259 65.6938 147.608 65.6599 147.957C65.6656 148.296 65.7003 148.584 65.7853 148.902C65.8703 149.219 66.0531 149.425 66.2756 149.62C66.498 149.816 66.7998 149.99 67.1703 150.104C67.5407 150.217 67.8793 150.211 68.2072 150.166C68.5246 150.081 68.7916 149.967 69.0374 149.773C69.2831 149.58 69.468 149.318 69.6529 149.056C69.8271 148.754 69.9617 148.463 70.0459 148.143C70.1592 147.772 70.1826 147.383 70.2166 147.034C70.2109 146.695 70.1655 146.367 70.0514 146.1C69.9374 145.833 69.7836 145.577 69.5611 145.381C69.3387 145.186 69.0476 145.051 68.7168 144.927C68.3463 144.814 68.0078 144.82 67.6798 144.865C67.3625 144.95 67.0955 145.064 66.8497 145.258C66.6039 145.451 66.4191 145.713 66.2342 145.975C66.0494 146.237 65.9253 146.568 65.841 146.888Z" fill="white"/>
<path d="M60.6403 141.437C60.7303 141.455 60.8598 141.463 61.0001 141.51C61.1297 141.518 61.3203 141.595 61.4606 141.642C61.7914 141.766 62.0244 142.001 62.1278 142.229C62.2313 142.456 62.1973 142.805 62.0153 143.237L60.1952 147.551L61.0078 147.886L60.7783 148.457L59.9657 148.122L59.2959 149.747L58.6236 149.46L59.2936 147.835L58.1899 147.365L58.4193 146.793L59.523 147.263L61.2085 143.24C61.2559 143.1 61.3034 142.96 61.3615 142.859C61.4195 142.759 61.4379 142.669 61.4061 142.55C61.3848 142.47 61.3635 142.391 61.3026 142.322C61.2417 142.253 61.1411 142.195 61.0008 142.148C60.9109 142.13 60.8103 142.071 60.7203 142.053C60.6303 142.035 60.5405 142.016 60.4108 142.008L60.6403 141.437Z" fill="white"/>
<path d="M60.0777 141.248L56.077 149.165L55.4338 148.827L56.9671 145.823C56.581 145.969 56.1737 146.035 55.8061 146.091C55.4278 146.108 55.068 146.034 54.6762 145.841C54.3348 145.678 54.0119 145.424 53.7788 145.189C53.5351 144.914 53.3997 144.568 53.3331 144.16C53.2984 143.872 53.3246 143.653 53.4301 143.412C53.5356 143.171 53.6015 142.941 53.7573 142.729L55.6468 138.991L56.29 139.329L54.3899 143.027C54.1498 143.559 54.0471 143.969 54.1534 144.366C54.249 144.723 54.5537 145.066 55.0963 145.346C55.2975 145.462 55.5277 145.528 55.697 145.525C55.8769 145.562 56.0859 145.549 56.2842 145.495C56.4826 145.442 56.6412 145.4 56.7892 145.318C56.9372 145.236 57.0854 145.153 57.2228 145.031C57.3999 144.899 57.5266 144.737 57.6137 144.586C57.7008 144.436 57.817 144.234 57.8935 144.044L59.4558 140.989L60.0777 141.248Z" fill="white"/>
<path d="M52.7186 140.753C52.8929 140.451 53.0274 140.16 53.1223 139.88C53.2066 139.56 53.2512 139.25 53.2271 139.001C53.1924 138.713 53.1179 138.435 52.9642 138.179C52.8105 137.923 52.5774 137.687 52.2756 137.513C51.8627 137.241 51.4524 137.139 51.0345 137.166C50.6166 137.192 50.2015 137.389 49.858 137.693L49.1433 137.247C49.3891 137.054 49.6348 136.86 49.8912 136.707C50.1477 136.553 50.4253 136.479 50.7136 136.444C51.0019 136.409 51.3009 136.414 51.6211 136.498C51.9412 136.582 52.272 136.706 52.5844 136.92C52.9974 137.192 53.3417 137.525 53.5564 137.85C53.7816 138.215 53.9169 138.561 53.9333 138.94C53.9892 139.307 53.9262 139.707 53.8236 140.117C53.7209 140.527 53.5283 140.919 53.2563 141.332C52.9843 141.745 52.7308 142.068 52.3767 142.333C52.0225 142.598 51.6974 142.813 51.3007 142.919C50.9147 143.065 50.5364 143.081 50.1369 143.018C49.7374 142.955 49.3272 142.852 48.9539 142.57C48.1889 142.095 47.8099 141.473 47.6873 140.698C47.6043 139.913 47.8386 139.042 48.4697 138.065L52.7186 140.753ZM48.865 139.065C48.6802 139.327 48.5853 139.607 48.4904 139.888C48.3955 140.168 48.3799 140.428 48.4147 140.716C48.4388 140.965 48.5529 141.232 48.696 141.448C48.8498 141.705 49.0721 141.9 49.3342 142.085C49.5963 142.27 49.8768 142.365 50.1864 142.41C50.4959 142.454 50.7446 142.43 50.9719 142.327C51.2496 142.252 51.4664 142.109 51.7228 141.955C51.9792 141.802 52.1747 141.579 52.3702 141.357L48.865 139.065Z" fill="white"/>
<path d="M45.0511 135.454C45.2757 135.181 45.4605 134.919 45.5951 134.628C45.7296 134.337 45.8246 134.056 45.8295 133.758C45.8345 133.459 45.7997 133.17 45.6856 132.903C45.5715 132.636 45.3675 132.351 45.0948 132.126C44.7108 131.804 44.3297 131.651 43.8906 131.599C43.4514 131.546 43.0653 131.692 42.6715 131.968L42.0544 131.41C42.3109 131.257 42.6069 131.092 42.8846 131.018C43.1623 130.943 43.44 130.869 43.739 130.874C44.0379 130.879 44.3473 130.923 44.6385 131.058C44.9296 131.193 45.2314 131.367 45.5544 131.62C45.9383 131.943 46.2033 132.297 46.3889 132.672C46.5349 133.058 46.6306 133.415 46.6073 133.804C46.5839 134.193 46.4706 134.564 46.3176 134.945C46.1249 135.336 45.882 135.699 45.5888 136.033C45.2956 136.366 44.9521 136.671 44.5873 136.896C44.2225 137.122 43.8365 137.268 43.4292 137.334C43.0219 137.401 42.633 137.377 42.2626 137.264C41.8524 137.161 41.5004 136.958 41.1667 136.665C40.4994 136.078 40.1891 135.396 40.1961 134.629C40.2031 133.862 40.6174 133.028 41.3597 132.149L45.0511 135.454ZM41.5064 133.173C41.3109 133.395 41.126 133.657 41.0311 133.938C40.9362 134.218 40.8307 134.459 40.8654 134.747C40.8499 135.007 40.9136 135.245 41.0277 135.512C41.1418 135.779 41.3352 136.025 41.5577 136.22C41.7907 136.455 42.0819 136.59 42.3518 136.645C42.6217 136.7 42.8809 136.716 43.1692 136.681C43.4575 136.646 43.6848 136.543 43.9518 136.429C44.2082 136.275 44.4647 136.121 44.6602 135.899L41.5064 133.173Z" fill="white"/>
<path d="M39.2565 129.693L42.6154 129.218L43.2536 129.855L39.1779 130.352L38.5237 134.099L37.8748 133.422L38.5114 130.403L35.4407 130.843L34.7917 130.167L38.619 129.694L39.3283 125.678L39.9269 126.325L39.2565 129.693Z" fill="white"/>
<path d="M32.785 124.583C32.5131 124.996 32.3205 125.388 32.3474 125.806C32.3347 126.234 32.4806 126.62 32.7959 127.003C33.0396 127.278 33.3123 127.503 33.6034 127.637C33.8839 127.732 34.2042 127.816 34.4925 127.782C34.7807 127.747 35.0981 127.662 35.4048 127.537C35.7115 127.413 35.9969 127.209 36.2427 127.015C36.5281 126.811 36.7236 126.589 36.9481 126.316C37.1727 126.043 37.3178 125.792 37.4021 125.472C37.497 125.191 37.5416 124.882 37.4566 124.564C37.4112 124.236 37.2468 123.94 37.0428 123.655C36.7169 123.232 36.304 122.96 35.8648 122.907C35.4257 122.855 34.9787 122.932 34.4949 123.19L33.9862 122.561C34.2823 122.396 34.6287 122.261 34.9566 122.215C35.274 122.13 35.5729 122.135 35.8824 122.18C36.192 122.225 36.4832 122.359 36.7743 122.494C37.0761 122.668 37.3092 122.903 37.5635 123.218C37.8788 123.601 38.0749 124.016 38.1812 124.412C38.2875 124.809 38.2642 125.198 38.1906 125.558C38.117 125.918 37.9243 126.31 37.6708 126.633C37.4278 126.995 37.124 127.289 36.7408 127.604C36.3866 127.869 36.0218 128.095 35.6358 128.241C35.2497 128.387 34.8425 128.453 34.4642 128.469C34.086 128.486 33.6758 128.383 33.2947 128.23C32.9136 128.077 32.58 127.784 32.3044 127.39C31.846 126.79 31.6072 126.217 31.6277 125.658C31.6376 125.06 31.8777 124.528 32.406 123.962L32.785 124.583Z" fill="white"/>
<path d="M35.1824 120.369L27.8557 125.393L27.437 124.783L34.7637 119.758L35.1824 120.369Z" fill="white"/>
<path d="M26.3938 118.345L26.0147 117.724L31.5289 114.503L31.908 115.125L31.1388 115.586C31.2791 115.633 31.4483 115.63 31.6388 115.707C31.8188 115.744 31.9697 115.831 32.1603 115.907C32.3508 115.984 32.5123 116.111 32.6844 116.277C32.8459 116.404 32.989 116.62 33.1428 116.877C33.368 117.242 33.5034 117.588 33.5381 117.876C33.5728 118.165 33.5679 118.464 33.473 118.744C33.3781 119.025 33.2223 119.236 33.0268 119.459C32.8313 119.681 32.5749 119.835 32.2895 120.039L28.6495 122.162L28.2704 121.541L31.8708 119.428C32.344 119.132 32.6478 118.838 32.7611 118.467C32.8744 118.097 32.7972 117.65 32.5004 117.177C32.3466 116.92 32.1638 116.714 31.952 116.558C31.7402 116.402 31.4598 116.308 31.2005 116.292C30.9306 116.237 30.6422 116.271 30.3249 116.357C30.0472 116.431 29.7406 116.556 29.4048 116.731L26.3938 118.345Z" fill="white"/>
<path d="M29.0082 113.988C29.4707 113.652 29.7136 113.289 29.7873 112.929C29.8609 112.569 29.7836 112.122 29.5661 111.628C29.4521 111.361 29.3196 111.184 29.1978 111.046C29.076 110.909 28.9145 110.782 28.7636 110.695C28.6127 110.608 28.4434 110.611 28.3138 110.603C28.1841 110.595 28.0254 110.638 27.8774 110.72C27.5707 110.845 27.4149 111.057 27.3887 111.276C27.3228 111.506 27.3576 111.795 27.403 112.123C27.4484 112.451 27.5333 112.768 27.629 113.125C27.7247 113.482 27.7701 113.81 27.8154 114.138C27.8211 114.476 27.7765 114.786 27.6816 115.066C27.5867 115.347 27.3119 115.591 26.9365 115.776C26.4421 115.994 25.9844 116.031 25.5027 115.82C25.021 115.609 24.6556 115.197 24.3056 114.526C24.0059 113.883 23.8968 113.317 24.0179 112.817C24.0887 112.288 24.4796 111.843 25.1008 111.464L25.4111 112.146C24.9776 112.432 24.7637 112.745 24.6901 113.105C24.6561 113.454 24.7227 113.861 24.919 114.276C25.1152 114.691 25.3589 114.966 25.6501 115.101C25.9412 115.235 26.2401 115.24 26.5362 115.076C26.8032 114.962 26.9591 114.75 26.9853 114.53C27.0114 114.311 27.0561 114.001 27.0107 113.673C26.9653 113.345 26.8803 113.028 26.8243 112.66C26.7286 112.303 26.6832 111.975 26.6775 111.637C26.6718 111.298 26.7164 110.989 26.851 110.697C26.9856 110.406 27.2207 110.173 27.6068 110.027C27.8738 109.913 28.1515 109.839 28.4108 109.854C28.6701 109.87 28.9504 109.965 29.1623 110.121C29.4137 110.266 29.6363 110.461 29.8297 110.707C30.0231 110.953 30.227 111.238 30.3623 111.585C30.5373 111.92 30.6224 112.238 30.6281 112.576C30.6628 112.865 30.6182 113.174 30.5233 113.455C30.4284 113.735 30.2832 113.987 30.1274 114.199C29.9716 114.41 29.7259 114.604 29.4192 114.728L29.0082 113.988Z" fill="white"/>
<path d="M21.4722 111.246L20.433 111.652L20.1412 110.88L21.1407 110.484L21.4722 111.246ZM28.685 108.335L22.7678 110.686L22.497 109.993L28.4144 107.642L28.685 108.335Z" fill="white"/>
<path d="M22.1161 109.203L21.8638 108.42L26.404 104.738L20.5524 104.477L20.3001 103.695L27.1202 104.078L27.3723 104.861L22.1161 109.203Z" fill="white"/>
<path d="M23.2235 101.593C23.5408 101.508 23.8581 101.423 24.1542 101.259C24.4503 101.095 24.6565 100.912 24.8519 100.689C25.0474 100.467 25.1529 100.226 25.2372 99.9059C25.3214 99.5857 25.3263 99.2867 25.2307 98.9297C25.1031 98.4537 24.9176 98.0783 24.5839 97.7851C24.2503 97.4918 23.8691 97.3389 23.3612 97.3475L23.1884 96.5434C23.4873 96.5484 23.8075 96.6327 24.0774 96.688C24.3579 96.7829 24.5987 96.8883 24.8608 97.0732C25.0832 97.2687 25.3057 97.4642 25.47 97.7603C25.6238 98.0167 25.7591 98.363 25.8654 98.7596C25.9929 99.2356 25.9909 99.7039 25.8882 100.114C25.7855 100.524 25.622 100.866 25.4081 101.178C25.1439 101.461 24.869 101.705 24.5042 101.93C24.1395 102.156 23.7031 102.273 23.2668 102.389C22.8304 102.506 22.3728 102.544 21.9336 102.492C21.4945 102.439 21.1241 102.326 20.743 102.173C20.4015 102.009 20.0784 101.756 19.8241 101.441C19.5698 101.127 19.3842 100.751 19.307 100.304C19.1234 99.4608 19.2601 98.7015 19.7275 98.066C20.195 97.4306 21.0145 96.9984 22.1357 96.7405L23.2235 101.593ZM21.703 97.6642C21.3857 97.7493 21.108 97.8236 20.8516 97.9774C20.5952 98.1311 20.3891 98.3138 20.2333 98.5257C20.0775 98.7375 19.972 98.9784 19.9168 99.2483C19.8615 99.5182 19.8566 99.817 19.9417 100.134C20.0267 100.452 20.1407 100.719 20.3234 100.925C20.5062 101.131 20.7287 101.326 20.9299 101.443C21.1707 101.548 21.4512 101.643 21.7211 101.698C21.991 101.754 22.29 101.758 22.6179 101.713L21.703 97.6642Z" fill="white"/>
<path d="M19.8532 88.3813C19.3878 88.5485 19.0336 88.8134 18.78 89.1364C18.5371 89.4991 18.4344 89.9092 18.472 90.3668C18.4883 90.7451 18.6131 91.0518 18.7668 91.3082C18.9602 91.554 19.1826 91.7495 19.4447 91.9344C19.7068 92.1192 20.027 92.2034 20.3366 92.248C20.6461 92.2926 20.9953 92.3266 21.3232 92.2812C21.6618 92.2756 21.9792 92.1906 22.2966 92.1055C22.6139 92.0205 22.91 91.8561 23.1161 91.6733C23.3619 91.4799 23.5573 91.2575 23.6919 90.9663C23.8264 90.6752 23.8711 90.3656 23.8547 89.9874C23.7959 89.4504 23.6286 88.9851 23.295 88.6919C22.9613 88.3987 22.53 88.2167 22.0008 88.1459L21.9576 87.3497C22.3068 87.3836 22.627 87.4679 22.9578 87.5918C23.2489 87.7264 23.5401 87.861 23.7731 88.0961C24.0062 88.3313 24.1996 88.5771 24.3136 88.8441C24.4383 89.1508 24.5339 89.5078 24.5503 89.8861C24.5985 90.3834 24.5461 90.8225 24.3931 91.2036C24.2402 91.5847 24.0263 91.8971 23.7621 92.1805C23.4873 92.4241 23.1622 92.6389 22.7365 92.7955C22.3505 92.9414 21.9035 93.0186 21.4459 93.0562C20.9883 93.0937 20.5598 93.081 20.1496 92.9783C19.7395 92.8756 19.3584 92.7227 19.046 92.5088C18.7336 92.2949 18.4396 91.9911 18.225 91.6659C17.9997 91.3012 17.8934 90.9045 17.8451 90.4072C17.7728 89.6613 17.9123 89.0713 18.2423 88.5577C18.583 88.0838 19.0852 87.7368 19.8098 87.5851L19.8532 88.3813Z" fill="white"/>
<path d="M24.3884 83.8931C24.3757 84.3217 24.3022 84.6815 24.1386 85.0229C23.975 85.3644 23.761 85.6768 23.4968 85.9601C23.222 86.2038 22.8573 86.4292 22.4316 86.5857C22.0059 86.7423 21.5086 86.7905 20.9504 86.77C20.4822 86.7679 20.0324 86.676 19.6619 86.5627C19.2411 86.4203 18.8997 86.2567 18.6163 85.9925C18.333 85.7283 18.0787 85.4137 17.9037 85.078C17.7287 84.7423 17.6409 84.2557 17.6826 83.7769C17.6741 83.269 17.7767 82.8588 17.9693 82.4671C18.1726 82.115 18.3865 81.8026 18.701 81.5482C19.0155 81.2939 19.3512 81.119 19.7981 81.0418C20.1948 80.9355 20.6524 80.8978 21.1206 80.8999C21.6285 80.8914 22.0783 80.9835 22.4991 81.1258C22.9199 81.2682 23.2719 81.4714 23.5552 81.7356C23.8386 81.9998 24.0532 82.3249 24.1992 82.7109C24.3345 83.0573 24.4011 83.4646 24.3884 83.8931ZM21.074 81.6778C20.6851 81.6544 20.3571 81.6998 20.0001 81.7954C19.6827 81.8805 19.3761 82.0051 19.1197 82.1589C18.8633 82.3126 18.6677 82.535 18.5332 82.8262C18.388 83.0777 18.3144 83.4375 18.291 83.8264C18.2677 84.2153 18.3527 84.5326 18.4774 84.8393C18.6418 85.1354 18.8246 85.3415 19.047 85.537C19.2694 85.7325 19.6002 85.8564 19.9204 85.9407C20.2406 86.025 20.5898 86.0589 20.9391 86.0929C21.3279 86.1162 21.6956 86.0602 22.0129 85.9751C22.3303 85.8901 22.6369 85.7655 22.8827 85.5721C23.1391 85.4184 23.324 85.1562 23.4295 84.9153C23.5747 84.6638 23.6589 84.3437 23.6426 83.9655C23.6659 83.5766 23.5809 83.2592 23.4166 82.9631C23.2628 82.7067 23.0694 82.461 22.8073 82.2762C22.5452 82.0913 22.2541 81.9567 21.9339 81.8724C21.7618 81.706 21.4126 81.6721 21.074 81.6778Z" fill="white"/>
<path d="M24.4275 80.2269L15.5887 79.4491L15.646 78.7111L24.4848 79.4888L24.4275 80.2269Z" fill="white"/>
<path d="M24.6381 78.0017L15.8333 76.8748L15.9302 76.1261L24.735 77.253L24.6381 78.0017Z" fill="white"/>
<path d="M21.948 75.1082C22.3079 75.1819 22.6069 75.1868 22.9348 75.1415C23.2628 75.0961 23.5404 75.0217 23.8075 74.9076C24.0745 74.7936 24.2806 74.6108 24.4655 74.3487C24.6504 74.0866 24.7849 73.7955 24.8295 73.4859C24.9109 72.9965 24.884 72.5785 24.6984 72.2031C24.5128 71.8277 24.2187 71.5238 23.737 71.3128L23.9027 70.5031C24.1938 70.6377 24.4559 70.8226 24.6784 71.0181C24.9008 71.2136 25.0941 71.4593 25.2373 71.676C25.391 71.9324 25.4654 72.2101 25.5108 72.538C25.5562 72.866 25.5222 73.2152 25.4592 73.6147C25.3778 74.1042 25.1958 74.5356 24.9422 74.8587C24.6886 75.1817 24.4138 75.4254 24.0781 75.6003C23.7423 75.7753 23.3456 75.8816 22.9277 75.9086C22.5098 75.9355 22.0813 75.9228 21.6315 75.8307C21.1817 75.7387 20.7609 75.5964 20.3692 75.4037C19.9775 75.2111 19.6941 74.947 19.4398 74.6325C19.1854 74.318 19.0105 73.9823 18.9042 73.5856C18.7979 73.1889 18.7709 72.7709 18.863 72.3211C19.018 71.4718 19.4458 70.8471 20.1463 70.4468C20.8468 70.0465 21.7223 69.982 22.8521 70.2319L21.948 75.1082ZM22.1361 70.8915C21.8265 70.8469 21.5277 70.8419 21.2287 70.837C20.9404 70.8717 20.7024 70.9356 20.446 71.0893C20.1896 71.243 20.0126 71.3755 19.8674 71.6269C19.7116 71.8388 19.577 72.1298 19.5324 72.4394C19.4481 72.7596 19.4828 73.0478 19.5572 73.3255C19.6316 73.6032 19.735 73.8305 19.9178 74.0367C20.1006 74.2428 20.2834 74.4489 20.5349 74.5941C20.7864 74.7393 21.0378 74.8844 21.3579 74.9687L22.1361 70.8915Z" fill="white"/>
<path d="M23.1673 64.5788C22.6594 64.5873 22.2627 64.6936 21.8979 64.9189C21.5331 65.1442 21.2903 65.5069 21.1586 65.9674C21.0453 66.3378 21.0509 66.6764 21.0856 66.9647C21.1706 67.282 21.2847 67.549 21.4781 67.7948C21.6715 68.0406 21.9336 68.2255 22.1958 68.4103C22.4975 68.5845 22.7887 68.7191 23.1088 68.8033C23.429 68.8876 23.7492 68.9719 24.0878 68.9662C24.4264 68.9605 24.7252 68.9655 25.0319 68.8408C25.3493 68.7557 25.6058 68.602 25.8013 68.3795C25.9967 68.1571 26.1709 67.8554 26.2842 67.4849C26.445 66.9742 26.4471 66.5059 26.2111 66.1014C26.0149 65.6864 25.6813 65.3932 25.189 65.1425L25.4155 64.4016C25.7569 64.5652 26.019 64.75 26.2521 64.9852C26.4852 65.2203 26.6786 65.4661 26.7927 65.7331C26.9068 66.0001 26.9918 66.3175 27.0372 66.6455C27.0429 66.9841 27.0089 67.3333 26.9062 67.7434C26.7454 68.2542 26.5528 68.6458 26.2886 68.9292C26.0244 69.2126 25.7099 69.4669 25.3635 69.6022C25.0172 69.7376 24.61 69.8042 24.1814 69.7915C23.7528 69.7787 23.3136 69.7264 22.8929 69.584C22.4721 69.4417 22.091 69.2886 21.7283 69.0457C21.3656 68.8028 21.0822 68.5386 20.8675 68.2135C20.6529 67.8884 20.4673 67.513 20.4007 67.1058C20.3341 66.6985 20.3467 66.2699 20.4784 65.8094C20.7157 65.1081 21.0458 64.5946 21.5083 64.2581C21.9709 63.9216 22.5764 63.8018 23.3251 63.8988L23.1673 64.5788Z" fill="white"/>
<path d="M28.7549 62.1033C28.7365 62.1933 28.7287 62.323 28.7209 62.4526C28.7132 62.5822 28.6763 62.7621 28.5999 62.9526C28.4759 63.2835 28.291 63.5456 28.0239 63.6597C27.7966 63.7631 27.4474 63.7292 26.987 63.5975L22.6255 61.9176L22.3012 62.7697L21.7295 62.5403L22.0538 61.6882L20.3998 61.0685L20.6767 60.3566L22.3308 60.9763L22.75 59.8436L23.3216 60.0731L22.9024 61.2057L26.9727 62.751C27.1129 62.7984 27.2533 62.8458 27.3538 62.9039C27.4438 62.9223 27.5735 62.9301 27.6634 62.9485C27.7428 62.9272 27.8221 62.906 27.8802 62.8054C27.9382 62.7048 28.0069 62.6439 28.0544 62.5037C28.0728 62.4137 28.1308 62.3132 28.1492 62.2232C28.1676 62.1332 28.186 62.0432 28.1938 61.9136L28.7549 62.1033Z" fill="white"/>
<path d="M29.0134 61.4813L23.1537 58.97L23.4413 58.2978L29.301 60.809L29.0134 61.4813ZM21.8199 58.4346L20.8168 58.0231L21.1228 57.2609L22.1259 57.6724L21.8199 58.4346Z" fill="white"/>
<path d="M31.075 57.4428C30.8717 57.7948 30.6577 58.1072 30.3433 58.3615C30.0684 58.6052 29.7328 58.7802 29.3467 58.9262C28.9897 59.0218 28.5824 59.0885 28.1326 58.9964C27.6934 58.944 27.2224 58.7726 26.7301 58.5219C26.3277 58.2896 25.9649 58.0467 25.6313 57.7534C25.3373 57.4496 25.0831 57.1351 24.9477 56.7888C24.7727 56.453 24.7061 56.0457 24.7294 55.6569C24.7421 55.2283 24.8448 54.8182 25.0665 54.3761C25.2882 53.9341 25.5813 53.6005 25.8958 53.3461C26.2103 53.0918 26.5568 52.9565 26.9534 52.8502C27.3104 52.7546 27.739 52.7672 28.1385 52.8302C28.5486 52.9329 28.9694 53.0753 29.4008 53.2573C29.8428 53.479 30.2161 53.7615 30.5498 54.0547C30.8438 54.3586 31.069 54.7234 31.2043 55.0697C31.3397 55.4161 31.4063 55.8234 31.383 56.2123C31.3702 56.6408 31.2676 57.051 31.075 57.4428ZM29.0445 53.9905C28.7031 53.8269 28.3723 53.703 28.0521 53.6187C27.7319 53.5344 27.433 53.5295 27.105 53.5748C26.8168 53.6096 26.5498 53.7236 26.304 53.917C26.0476 54.0707 25.823 54.3435 25.67 54.7246C25.5064 55.066 25.4222 55.3862 25.4279 55.7248C25.4336 56.0634 25.508 56.341 25.6617 56.5974C25.8154 56.8539 26.0088 57.0996 26.2419 57.3348C26.4749 57.5699 26.7767 57.7441 27.0785 57.9184C27.4199 58.082 27.801 58.2349 28.1106 58.2795C28.4704 58.3531 28.7694 58.3582 29.0471 58.2838C29.3354 58.2491 29.6024 58.135 29.8481 57.9416C30.0939 57.7482 30.2894 57.5257 30.453 57.1843C30.6166 56.8428 30.7008 56.5227 30.6951 56.1841C30.6894 55.8455 30.615 55.5678 30.4613 55.3114C30.3076 55.055 30.1142 54.8092 29.8811 54.5741C29.6481 54.3389 29.3357 54.125 29.0445 53.9905Z" fill="white"/>
<path d="M32.9461 53.6256L32.558 54.2397L27.1708 50.7941L27.5589 50.1799L28.3239 50.6551C28.2176 50.2584 28.1511 49.8512 28.1744 49.4623C28.1581 49.084 28.3109 48.7029 28.5539 48.3402C28.7678 48.0278 29.032 47.7445 29.3175 47.5405C29.6029 47.3364 29.9492 47.2011 30.3778 47.2138C30.6767 47.2187 30.8964 47.245 31.1372 47.3505C31.3781 47.456 31.5792 47.5721 31.791 47.7279L35.3252 49.9695L34.9371 50.5838L31.4426 48.3315C30.9793 48.0305 30.5189 47.8987 30.1513 47.9547C29.7836 48.0107 29.4294 48.2757 29.0994 48.7893C28.9832 48.9905 28.9068 49.181 28.8699 49.3609C28.8331 49.5408 28.807 49.7604 28.8098 49.9297C28.8233 50.1387 28.8658 50.2974 28.9083 50.4561C28.9905 50.6041 29.0833 50.7918 29.1548 50.9002C29.2873 51.0772 29.4092 51.2147 29.5707 51.3414C29.7322 51.4682 29.8937 51.595 30.0949 51.7111L32.9461 53.6256Z" fill="white"/>
<path d="M39.4426 45.0399C39.1784 45.3232 38.8639 45.5776 38.5282 45.7526C38.1925 45.9276 37.8355 46.0232 37.4572 46.0396C37.079 46.0559 36.6794 45.9929 36.2586 45.8506C35.8379 45.7082 35.4249 45.4362 34.9906 45.0849C34.657 44.7917 34.3524 44.4481 34.1271 44.0833C33.9018 43.7186 33.7559 43.3325 33.6999 42.9649C33.6439 42.5972 33.6672 42.2084 33.7699 41.7983C33.8832 41.4278 34.1155 41.0254 34.4378 40.6414C34.7601 40.2575 35.1142 39.9925 35.5002 39.8466C35.8862 39.7006 36.2433 39.6051 36.6321 39.6284C37.021 39.6517 37.4206 39.7147 37.8123 39.9073C38.204 40.1 38.5667 40.343 38.9004 40.6362C39.2843 40.9585 39.5889 41.302 39.8248 41.7064C40.0501 42.0712 40.1961 42.4572 40.2231 42.8751C40.2791 43.2427 40.2557 43.6316 40.1134 44.0524C39.9391 44.3541 39.7359 44.7062 39.4426 45.0399ZM38.3216 41.1739C38.0383 40.9097 37.7366 40.7354 37.4348 40.5612C37.133 40.387 36.8128 40.3027 36.5536 40.2871C36.2943 40.2716 35.9664 40.3169 35.6887 40.3913C35.4217 40.5054 35.1362 40.7094 34.872 40.9928C34.6078 41.2762 34.4732 41.5673 34.3889 41.8875C34.3443 42.197 34.3394 42.4959 34.4138 42.7736C34.4989 43.0909 34.613 43.358 34.817 43.6434C35.021 43.9289 35.2541 44.164 35.4871 44.3992C35.7705 44.6634 36.0829 44.8773 36.4137 45.0013C36.7048 45.1358 37.025 45.22 37.3346 45.2646C37.6335 45.2696 37.9218 45.2348 38.1888 45.1207C38.4558 45.0067 38.7016 44.8133 38.9658 44.5299C39.23 44.2466 39.3646 43.9554 39.4489 43.6353C39.5332 43.3151 39.4984 43.0268 39.424 42.7492C39.339 42.4318 39.225 42.1647 39.0209 41.8793C38.7985 41.6838 38.5944 41.3984 38.3216 41.1739Z" fill="white"/>
<path d="M37.2529 38.6115L36.8372 38.1702L37.5029 37.4817L36.8037 36.7763C36.4488 36.4037 36.2235 36.0389 36.1782 35.7109C36.1222 35.3433 36.2461 35.0125 36.6186 34.6576C36.6873 34.5967 36.7851 34.4854 36.8538 34.4245C36.9225 34.3636 36.9912 34.3026 37.0996 34.2311L37.5657 34.7015C37.4177 34.7836 37.3093 34.8552 37.2115 34.9664C37.0741 35.0883 36.987 35.2391 36.9793 35.3687C36.9715 35.4984 36.9636 35.628 36.9955 35.747C37.0274 35.866 37.0989 35.9744 37.2102 36.0721C37.2817 36.1805 37.393 36.2782 37.5042 36.3759L38.0816 36.944L38.9534 36.0727L39.3693 36.514L38.4974 37.3853L42.5707 41.4806L42.0317 42.0077L37.9584 37.9123L37.2529 38.6115Z" fill="white"/>
<path d="M41.7809 31.701L46.4176 37.8987L45.749 38.4179L40.4103 31.3455L41.1476 30.7653L49.9257 33.8551L49.9654 33.8445L45.2891 27.6574L45.9577 27.1382L51.2964 34.2106L50.5194 34.8014L41.7809 31.701Z" fill="white"/>
<path d="M52.2505 33.6574L47.7789 26.0126L52.7009 23.1207L53.0402 23.7525L48.8584 26.2335L50.4885 28.9853L54.3056 26.7296L54.6846 27.3508L50.8676 29.6064L53.0014 33.2861L52.2505 33.6574Z" fill="white"/>
<path d="M53.2157 22.8128L59.0771 20.0943L59.3768 20.7368L56.8466 21.9249L60.2785 29.3382L59.5277 29.7094L56.0959 22.2962L53.5657 23.4843L53.2157 22.8128Z" fill="white"/>
<path d="M62.9136 25.9965C63.2104 26.4696 63.5441 26.763 63.8749 26.8869C64.2453 27.0002 64.6633 26.9732 65.208 26.7848C65.4857 26.7104 65.6628 26.5778 65.8399 26.4454C66.0169 26.3129 66.1146 26.2017 66.2017 26.0508C66.2888 25.8999 66.3363 25.7596 66.3334 25.5903C66.3306 25.421 66.3384 25.2914 66.2959 25.1328C66.1712 24.8261 65.999 24.6596 65.7688 24.5938C65.5385 24.5279 65.229 24.4833 64.9407 24.518C64.6021 24.5237 64.2742 24.5691 63.9462 24.6145C63.5786 24.6705 63.2506 24.7158 62.9014 24.6818C62.5522 24.6479 62.2823 24.5927 62.0308 24.4475C61.7794 24.3023 61.5753 24.0168 61.4294 23.6308C61.2515 23.1257 61.2933 22.647 61.5546 22.1943C61.816 21.7416 62.2785 21.405 62.9422 21.1847C63.6059 20.9643 64.1825 20.8949 64.6932 21.0557C65.2039 21.2164 65.6091 21.618 65.9485 22.2498L65.2451 22.4808C64.9986 22.0367 64.7152 21.7725 64.3554 21.6989C63.9955 21.6253 63.6172 21.6415 63.1519 21.8087C62.7262 21.9653 62.4011 22.18 62.2559 22.4314C62.071 22.6935 62.0662 22.9925 62.1909 23.2992C62.2653 23.5769 62.4374 23.7433 62.7179 23.8382C62.9481 23.9041 63.2577 23.9486 63.5566 23.9536C63.8952 23.9479 64.2231 23.9025 64.5511 23.8572C64.9187 23.8012 65.2573 23.7955 65.6065 23.8295C65.9557 23.8634 66.2363 23.9583 66.4877 24.1035C66.7392 24.2487 66.9432 24.5342 67.0892 24.9202C67.2033 25.1872 67.238 25.4756 67.1828 25.7455C67.1275 26.0154 67.022 26.2562 66.8662 26.468C66.7104 26.6798 66.4752 26.9129 66.2188 27.0666C65.9228 27.231 65.6267 27.3953 65.2803 27.5306C64.9339 27.6659 64.606 27.7113 64.2674 27.717C63.9685 27.7121 63.6589 27.6675 63.4074 27.5223C63.1666 27.4168 62.9045 27.2319 62.7217 27.0258C62.5389 26.8197 62.3852 26.5632 62.2711 26.2962L62.9136 25.9965Z" fill="white"/>
<path d="M74.137 15.8469L74.8616 15.6953L76.5518 24.383L75.8272 24.5346L75.6195 23.4424L75.5798 23.453C75.5139 23.6832 75.3979 23.8844 75.2817 24.0856C75.1656 24.2868 74.999 24.4589 74.822 24.5914C74.6449 24.7239 74.4678 24.8563 74.2404 24.9597C74.0131 25.0632 73.8544 25.1057 73.6561 25.1589C73.1298 25.2574 72.7012 25.2446 72.3017 25.1816C71.9312 25.0683 71.5898 24.9048 71.2668 24.6512C70.9834 24.387 70.7292 24.0725 70.5435 23.697C70.3579 23.3216 70.2409 22.8853 70.124 22.449C70.0468 22.002 70.0198 21.5841 70.0325 21.1555C70.0452 20.727 70.1586 20.3565 70.3222 20.0151C70.4858 19.6736 70.7394 19.3506 71.0645 19.1359C71.379 18.8816 71.765 18.7357 72.241 18.6082C72.688 18.5309 73.1165 18.5436 73.5663 18.6357C74.0268 18.7674 74.3788 18.9707 74.6835 19.3142L74.137 15.8469ZM75.2071 21.4272C75.1511 21.0595 75.0264 20.7528 74.8621 20.4567C74.6977 20.1607 74.5042 19.9149 74.2818 19.7195C74.0593 19.524 73.8079 19.3787 73.4878 19.2944C73.2072 19.1995 72.9083 19.1947 72.5407 19.2507C72.1731 19.3066 71.8373 19.4815 71.5915 19.6749C71.3458 19.8683 71.1608 20.1305 71.0263 20.4217C70.8917 20.7128 70.8472 21.0223 70.8132 21.3715C70.7792 21.7208 70.8352 22.0885 70.9415 22.4851C71.0081 22.8924 71.1329 23.199 71.2972 23.4951C71.4616 23.7912 71.6443 23.9974 71.9064 24.1822C72.1182 24.338 72.4093 24.4726 72.6792 24.5278C72.9491 24.5831 73.2481 24.5879 73.5654 24.5029C73.8828 24.4179 74.1894 24.2932 74.4352 24.0998C74.6809 23.9064 74.8368 23.6945 74.9714 23.4034C75.1059 23.1122 75.2008 22.8318 75.1951 22.4932C75.319 22.1624 75.3027 21.7842 75.2071 21.4272Z" fill="white"/>
<path d="M77.872 21.223C77.9174 21.5509 77.9628 21.8788 78.0875 22.1855C78.2122 22.4922 78.3659 22.7487 78.5487 22.9549C78.7315 23.161 78.9829 23.3062 79.274 23.4408C79.5546 23.5356 79.8641 23.5802 80.2424 23.5639C80.7396 23.5157 81.1256 23.3697 81.4295 23.0757C81.7333 22.7817 81.9367 22.4296 82.0181 21.9401L82.8539 21.8863C82.7696 22.2065 82.7144 22.4763 82.5799 22.7675C82.4453 23.0586 82.2894 23.2704 82.094 23.4928C81.8985 23.7152 81.6421 23.869 81.3354 23.9937C81.0287 24.1184 80.6717 24.2141 80.304 24.2701C79.8068 24.3183 79.3677 24.2659 78.9866 24.1129C78.6054 23.9599 78.293 23.7461 78.0097 23.4819C77.766 23.2071 77.5514 22.882 77.3948 22.4563C77.2489 22.0702 77.1319 21.6339 77.0943 21.1763C77.0567 20.7187 77.0694 20.2902 77.1615 19.8404C77.2642 19.4302 77.4171 19.0492 77.6204 18.6971C77.8236 18.345 78.1381 18.0906 78.4632 17.876C78.7883 17.6613 79.2246 17.5444 79.6822 17.5068C80.5577 17.4423 81.2591 17.6795 81.8259 18.2079C82.3635 18.7866 82.7163 19.6274 82.8049 20.7515L77.872 21.223ZM81.95 20.2578C81.9046 19.9299 81.8699 19.6416 81.7558 19.3745C81.6418 19.1075 81.4985 18.8908 81.3158 18.6847C81.1436 18.5182 80.8923 18.3731 80.6514 18.2675C80.3709 18.1726 80.101 18.1174 79.773 18.1627C79.445 18.2081 79.1674 18.2825 78.911 18.4363C78.6942 18.5794 78.4881 18.7621 78.3322 18.9739C78.1764 19.1857 78.0313 19.4372 77.9761 19.7071C77.8812 19.9876 77.8366 20.2972 77.8317 20.5961L81.95 20.2578Z" fill="white"/>
<path d="M88.8259 14.9714L89.5534 14.989L89.4239 23.8668L88.6963 23.8491L88.6977 22.7434L88.658 22.7541C88.5419 22.9552 88.4258 23.1564 88.2487 23.2889C88.0823 23.461 87.9052 23.5935 87.6778 23.6969C87.4505 23.8004 87.2627 23.8932 87.0644 23.9463C86.8661 23.9994 86.6571 24.013 86.4482 24.0264C85.9297 23.9953 85.4904 23.9428 85.1384 23.7396C84.7863 23.5363 84.4739 23.3225 84.2592 22.9974C84.0446 22.6723 83.8696 22.3365 83.7634 21.9399C83.6571 21.5432 83.6194 21.0856 83.6215 20.6174C83.6342 20.1888 83.6866 19.7496 83.829 19.3288C83.9316 18.9187 84.1348 18.5666 84.3884 18.2436C84.6526 17.9602 84.9274 17.7166 85.3029 17.531C85.6783 17.3454 86.0855 17.2787 86.5538 17.2808C87.022 17.2829 87.4321 17.3856 87.8345 17.6179C88.2368 17.8502 88.5705 18.1433 88.7958 18.5081L88.8259 14.9714ZM88.7323 20.6509C88.7266 20.3123 88.7102 19.934 88.5856 19.6273C88.5005 19.31 88.3361 19.014 88.1824 18.7576C87.989 18.5118 87.7666 18.3163 87.5151 18.1712C87.2637 18.026 86.9434 17.9417 86.6048 17.9473C86.2159 17.924 85.8986 18.009 85.6025 18.1734C85.3064 18.3377 85.1004 18.5205 84.9156 18.7826C84.7307 19.0447 84.596 19.3359 84.5224 19.6957C84.4488 20.0556 84.3752 20.4154 84.4022 20.8334C84.3788 21.2222 84.4348 21.5898 84.5595 21.8965C84.6842 22.2032 84.7983 22.4703 85.0207 22.6658C85.2035 22.8719 85.4655 23.0568 85.7064 23.1623C85.9472 23.2679 86.2674 23.352 86.5663 23.357C86.9049 23.3513 87.2329 23.3059 87.4893 23.1522C87.7563 23.0381 88.0022 22.8447 88.187 22.5826C88.3719 22.3205 88.517 22.069 88.6013 21.7488C88.6749 21.389 88.7089 21.0397 88.7323 20.6509Z" fill="white"/>
<path d="M90.7792 24.0149L91.3695 17.6497L92.1075 17.707L91.5174 24.0722L90.7792 24.0149ZM91.426 16.2741L91.5173 15.1867L92.3454 15.2625L92.254 16.3498L91.426 16.2741Z" fill="white"/>
<path d="M97.8037 20.5597C97.7555 20.0624 97.5699 19.6871 97.3156 19.3726C97.0216 19.0687 96.6696 18.8653 96.1801 18.7839C95.8202 18.7103 95.4922 18.7558 95.1855 18.8805C94.8788 19.0052 94.6621 19.1483 94.427 19.3813C94.2315 19.6038 94.0467 19.8658 93.9227 20.1966C93.7882 20.4877 93.7038 20.808 93.6698 21.1572C93.6359 21.5064 93.5913 21.8159 93.6367 22.1439C93.6821 22.4718 93.7671 22.7892 93.8812 23.0562C93.9952 23.3233 94.1886 23.5691 94.4507 23.754C94.6732 23.9494 95.0039 24.0734 95.4034 24.1364C95.9432 24.2468 96.4299 24.1589 96.7841 23.894C97.1489 23.6687 97.4207 23.2557 97.5815 22.745L98.3805 22.8709C98.2565 23.2018 98.1221 23.493 97.8976 23.7657C97.7127 24.0278 97.4775 24.2608 97.2211 24.4146C96.9647 24.5683 96.658 24.693 96.3407 24.778C96.0127 24.8234 95.6344 24.8397 95.2349 24.7767C94.7455 24.6952 94.3247 24.5529 93.962 24.3099C93.5993 24.067 93.3556 23.7922 93.1806 23.4565C93.0056 23.1207 92.8597 22.7348 92.8327 22.3169C92.7661 21.9096 92.8078 21.4307 92.8602 20.9915C92.9126 20.5524 93.055 20.1315 93.2583 19.7795C93.4509 19.3877 93.7044 19.0648 93.9792 18.8211C94.254 18.5774 94.6188 18.352 95.0048 18.2061C95.3908 18.0601 95.8195 18.0728 96.2984 18.1145C97.0074 18.2222 97.5896 18.4914 98.0055 18.9326C98.4107 19.3342 98.6097 19.9185 98.6027 20.6857L97.8037 20.5597Z" fill="white"/>
<path d="M102.436 22.294C102.566 22.3017 102.746 22.3386 102.915 22.3358C103.084 22.3329 103.254 22.3301 103.423 22.3272C103.542 22.2953 103.65 22.2237 103.698 22.0835C103.756 21.9829 103.803 21.8427 103.822 21.7528C103.895 21.3929 103.89 21.0542 103.725 20.7582C103.561 20.4621 103.209 20.2588 102.619 20.1193C102.389 20.0535 102.129 20.038 101.91 20.0118C101.69 19.9856 101.492 20.0387 101.293 20.0918C101.095 20.145 100.958 20.2669 100.791 20.439C100.625 20.6112 100.509 20.8123 100.403 21.0532L99.6729 20.8662C99.7862 20.4958 99.971 20.2336 100.166 20.0112C100.362 19.7888 100.618 19.635 100.885 19.5209C101.152 19.4069 101.441 19.3722 101.779 19.3665C102.078 19.3714 102.428 19.4054 102.748 19.4897C103.068 19.5739 103.348 19.6688 103.6 19.814C103.851 19.9592 104.063 20.1151 104.246 20.3212C104.429 20.5273 104.532 20.7547 104.567 21.043C104.602 21.3312 104.597 21.6302 104.483 22.0006L103.604 25.3823C103.549 25.6522 103.522 25.8718 103.623 25.9299C103.724 25.988 103.914 26.0644 104.242 26.0191L104.092 26.5695C104.052 26.5801 103.923 26.5723 103.843 26.5935C103.764 26.6148 103.624 26.5674 103.494 26.5596C103.404 26.5412 103.264 26.4937 103.163 26.4357C103.063 26.3776 102.962 26.3195 102.901 26.2508C102.84 26.1821 102.819 26.1028 102.787 25.9838C102.766 25.9044 102.774 25.7748 102.752 25.6955C102.771 25.6055 102.779 25.4758 102.797 25.3859C102.403 25.6615 102.017 25.8074 101.57 25.8847C101.123 25.9619 100.695 25.9492 100.234 25.8175C99.9643 25.7623 99.7236 25.6567 99.4721 25.5115C99.2206 25.3664 99.0485 25.1999 98.9054 24.9832C98.7623 24.7664 98.6588 24.5391 98.5951 24.3011C98.5313 24.0631 98.5362 23.7641 98.6311 23.4836C98.9023 22.4331 99.7615 21.9904 101.259 22.1844L102.436 22.294ZM103.553 22.9725C103.225 23.0179 102.887 23.0236 102.577 22.979C102.268 22.9344 101.958 22.8898 101.649 22.8452C101.109 22.7347 100.651 22.7723 100.255 22.8786C99.9081 23.0139 99.644 23.2973 99.5413 23.7075C99.5045 23.8874 99.4677 24.0673 99.5103 24.2259C99.5528 24.3846 99.6349 24.5326 99.7065 24.641C99.778 24.7493 99.9396 24.8761 100.09 24.9633C100.241 25.0504 100.392 25.1375 100.572 25.1744C100.853 25.2693 101.152 25.2742 101.45 25.2791C101.749 25.284 101.987 25.2202 102.265 25.1458C102.532 25.0317 102.709 24.8993 102.915 24.7165C103.121 24.5337 103.227 24.2929 103.311 23.9727L103.553 22.9725Z" fill="white"/>
<path d="M106.788 27.5899C106.698 27.5715 106.568 27.5638 106.439 27.556C106.309 27.5482 106.129 27.5113 105.949 27.4745C105.619 27.3505 105.356 27.1658 105.253 26.9384C105.15 26.711 105.144 26.3724 105.315 25.9013L106.805 21.4634L105.963 21.1788L106.153 20.6178L106.994 20.9024L107.564 19.2193L108.265 19.4565L107.696 21.1397L108.818 21.5192L108.628 22.0803L107.506 21.7007L106.101 25.8185C106.053 25.9587 106.006 26.0989 105.988 26.1889C105.969 26.2788 105.961 26.4085 105.983 26.4878C106.004 26.5671 106.025 26.6465 106.126 26.7046C106.187 26.7733 106.327 26.8207 106.467 26.8681C106.557 26.8865 106.658 26.9447 106.748 26.9631C106.838 26.9815 106.967 26.9893 107.057 27.0077L106.788 27.5899Z" fill="white"/>
<path d="M108.93 25.1032C108.806 25.434 108.721 25.7542 108.677 26.0637C108.632 26.3733 108.667 26.6616 108.741 26.9393C108.816 27.217 108.969 27.4733 109.163 27.7191C109.356 27.9649 109.618 28.1497 109.949 28.2737C110.38 28.4557 110.82 28.5081 111.256 28.3912C111.653 28.2849 112.017 28.0596 112.289 27.6466L113.052 27.9525C112.856 28.1749 112.621 28.4081 112.375 28.6015C112.129 28.7949 111.862 28.9089 111.595 29.023C111.318 29.0974 111.029 29.1321 110.691 29.1378C110.392 29.1329 110.021 29.0195 109.64 28.8665C109.159 28.6555 108.796 28.4126 108.542 28.0981C108.248 27.7942 108.073 27.4585 107.977 27.1015C107.881 26.7445 107.854 26.3266 107.917 25.9271C107.97 25.4879 108.072 25.0778 108.254 24.6464C108.436 24.215 108.679 23.8523 108.973 23.5186C109.266 23.185 109.58 22.9307 109.916 22.7557C110.252 22.5807 110.648 22.4744 111.066 22.4475C111.484 22.4205 111.884 22.4835 112.315 22.6656C113.128 23.0005 113.655 23.5394 113.857 24.2931C114.098 25.0361 113.965 25.9649 113.524 27.0183L108.93 25.1032ZM113.002 26.1803C113.136 25.8891 113.192 25.6192 113.236 25.3097C113.281 25.0001 113.257 24.7515 113.153 24.5241C113.09 24.2861 112.936 24.0297 112.753 23.8236C112.57 23.6175 112.308 23.4327 112.017 23.2981C111.726 23.1636 111.416 23.1189 111.168 23.143C110.919 23.1671 110.641 23.2415 110.374 23.3556C110.107 23.4696 109.901 23.6524 109.695 23.8352C109.5 24.0576 109.304 24.2801 109.159 24.5316L113.002 26.1803Z" fill="white"/>
<path d="M121.491 24.7135L122.134 25.0513L117.842 32.8335L117.199 32.4957L117.74 31.5004C117.563 31.6329 117.336 31.7363 117.098 31.8001C116.86 31.8638 116.651 31.8774 116.442 31.8908C116.222 31.8647 116.002 31.8385 115.783 31.8123C115.553 31.7465 115.362 31.67 115.211 31.5829C114.759 31.3215 114.425 31.0282 114.171 30.7137C113.916 30.3993 113.781 30.0529 113.714 29.6456C113.658 29.2779 113.682 28.8891 113.784 28.479C113.887 28.0688 114.069 27.6374 114.262 27.2456C114.494 26.8433 114.748 26.5203 115.041 26.1867C115.345 25.8927 115.659 25.6384 116.005 25.503C116.352 25.3677 116.749 25.2614 117.137 25.2847C117.526 25.3081 117.936 25.4108 118.389 25.6721C118.791 25.9044 119.125 26.1976 119.39 26.5518C119.666 26.9456 119.812 27.3316 119.81 27.7999L121.491 24.7135ZM118.775 29.6501C118.949 29.3483 119.073 29.0176 119.147 28.6577C119.231 28.3376 119.225 27.999 119.19 27.7107C119.156 27.4224 119.042 27.1554 118.888 26.899C118.734 26.6426 118.512 26.4471 118.21 26.2728C117.869 26.1092 117.538 25.9853 117.239 25.9803C116.9 25.986 116.622 26.0604 116.316 26.1851C116.009 26.3098 115.774 26.5429 115.539 26.7759C115.314 27.0487 115.1 27.3611 114.897 27.7132C114.694 28.0653 114.57 28.396 114.536 28.7452C114.491 29.0547 114.486 29.3538 114.561 29.6314C114.635 29.9091 114.749 30.176 114.932 30.3822C115.115 30.5883 115.337 30.7838 115.589 30.929C115.891 31.1032 116.211 31.1875 116.51 31.1924C116.809 31.1973 117.097 31.1626 117.353 31.0089C117.62 30.8948 117.906 30.6907 118.141 30.4577C118.376 30.2246 118.572 30.0022 118.775 29.6501Z" fill="white"/>
<path d="M122.973 36.4326C122.883 36.4142 122.783 36.3561 122.642 36.3086C122.502 36.2612 122.351 36.1741 122.2 36.087C121.888 35.8731 121.734 35.6167 121.67 35.3787C121.607 35.1407 121.731 34.8099 122.003 34.3969L124.739 30.6453L124.003 30.1197L124.383 29.6352L125.119 30.1606L126.181 28.7283L126.766 29.1668L125.744 30.5885L126.702 31.3096L126.322 31.7941L125.363 31.073L122.783 34.6129C122.685 34.7241 122.638 34.8644 122.53 34.9359C122.472 35.0365 122.414 35.1371 122.435 35.2164C122.416 35.3064 122.438 35.3857 122.499 35.4544C122.559 35.5231 122.631 35.6314 122.782 35.7185C122.843 35.7873 122.943 35.8454 123.033 35.8638C123.134 35.9219 123.224 35.9403 123.325 35.9983L122.973 36.4326Z" fill="white"/>
<path d="M125.219 38.467C124.935 38.2028 124.681 37.8883 124.466 37.5632C124.291 37.2275 124.196 36.8705 124.169 36.4525C124.152 36.0743 124.215 35.6748 124.358 35.2541C124.5 34.8333 124.772 34.4203 125.123 33.986C125.406 33.6127 125.76 33.3477 126.114 33.0827C126.479 32.8575 126.865 32.7116 127.222 32.6159C127.59 32.5599 128.018 32.5726 128.378 32.6462C128.788 32.7489 129.14 32.9522 129.524 33.2744C129.908 33.5967 130.173 33.9509 130.359 34.3263C130.544 34.7017 130.6 35.0694 130.617 35.4476C130.593 35.8365 130.53 36.2359 130.338 36.6277C130.145 37.0194 129.942 37.3715 129.619 37.7554C129.297 38.1394 128.954 38.444 128.549 38.6799C128.184 38.9052 127.798 39.0511 127.431 39.1071C127.063 39.1631 126.674 39.1398 126.264 39.0371C125.933 38.9132 125.542 38.7206 125.219 38.467ZM129.063 37.2667C129.328 36.9834 129.502 36.6816 129.636 36.3904C129.771 36.0993 129.855 35.7791 129.9 35.4696C129.905 35.1707 129.87 34.8824 129.756 34.6154C129.642 34.3484 129.438 34.0629 129.115 33.8093C128.831 33.5451 128.54 33.4105 128.22 33.3262C127.91 33.2816 127.612 33.2767 127.334 33.3511C127.056 33.4255 126.75 33.5503 126.464 33.7543C126.179 33.9583 125.943 34.1914 125.719 34.4641C125.465 34.7871 125.251 35.0995 125.117 35.3907C124.993 35.7215 124.898 36.002 124.893 36.3009C124.888 36.5999 124.923 36.8881 125.037 37.1552C125.151 37.4222 125.345 37.6679 125.617 37.8925C125.901 38.1567 126.192 38.2913 126.512 38.3755C126.821 38.4201 127.12 38.425 127.398 38.3506C127.715 38.2656 127.982 38.1516 128.268 37.9476C128.604 37.7726 128.839 37.5395 129.063 37.2667Z" fill="white"/>
<path d="M135.383 39.1023L130.117 44.0422C129.91 44.225 129.744 44.3971 129.556 44.4899C129.379 44.6224 129.231 44.7046 129.073 44.7471C128.914 44.7896 128.734 44.7528 128.594 44.7053C128.443 44.6182 128.242 44.502 128.048 44.2562C127.926 44.1188 127.805 43.9814 127.733 43.8731L128.203 43.407C128.336 43.5841 128.458 43.7214 128.558 43.7795C128.669 43.8773 128.759 43.8956 128.889 43.9034C128.979 43.9218 129.098 43.8899 129.206 43.8183C129.315 43.7468 129.423 43.6754 129.56 43.5535L134.895 38.5528L135.383 39.1023ZM136.453 38.1779L135.915 37.5993L136.729 36.8285L137.277 37.4468L136.453 38.1779Z" fill="white"/>
<path d="M136.214 44.1092C136.325 44.2069 136.436 44.3047 136.598 44.4315C136.759 44.5583 136.871 44.656 137.011 44.7034C137.151 44.7509 137.241 44.7693 137.389 44.6871C137.497 44.6155 137.606 44.544 137.714 44.4724C137.989 44.2287 138.163 43.927 138.208 43.6175C138.242 43.2682 138.056 42.8929 137.72 42.4303C137.537 42.2242 137.404 42.0472 137.203 41.931C137.042 41.8042 136.84 41.6881 136.661 41.6513C136.481 41.6144 136.261 41.5882 136.063 41.6413C135.864 41.6945 135.626 41.7582 135.41 41.9013L134.912 41.3121C135.237 41.0974 135.533 40.933 135.821 40.8983C136.109 40.8636 136.408 40.8685 136.678 40.9237C136.959 41.0186 137.239 41.1136 137.462 41.3091C137.724 41.4939 137.957 41.729 138.161 42.0145C138.354 42.2602 138.508 42.5166 138.662 42.773C138.776 43.0401 138.84 43.2781 138.874 43.5664C138.898 43.8151 138.843 44.0849 138.698 44.3363C138.592 44.5772 138.368 44.8499 138.082 45.054L135.4 47.2607C135.194 47.4435 135.067 47.605 135.06 47.7346C135.052 47.8642 135.224 48.0307 135.515 48.1653L135.063 48.5414C135.013 48.5124 134.952 48.4437 134.851 48.3857C134.751 48.3276 134.69 48.2588 134.618 48.1505C134.547 48.0421 134.486 47.9733 134.454 47.8543C134.382 47.746 134.361 47.6667 134.369 47.5371C134.387 47.4471 134.406 47.3572 134.424 47.2672C134.442 47.1772 134.501 47.0767 134.569 47.0157C134.638 46.9548 134.696 46.8542 134.805 46.7826C134.326 46.7409 133.915 46.6382 133.524 46.4456C133.132 46.253 132.798 45.9597 132.494 45.6161C132.311 45.41 132.157 45.1536 132.054 44.9263C131.95 44.6989 131.876 44.4212 131.891 44.162C131.867 43.9133 131.933 43.6832 132.039 43.4423C132.144 43.2015 132.3 42.9896 132.546 42.7962C133.381 42.1048 134.36 42.2677 135.443 43.2954L136.214 44.1092ZM136.713 45.336C136.411 45.1618 136.149 44.977 135.926 44.7815C135.693 44.5464 135.471 44.3508 135.238 44.1157C134.833 43.7141 134.459 43.4314 134.089 43.3181C133.718 43.2048 133.361 43.3006 133.047 43.5549C132.909 43.6767 132.772 43.7985 132.735 43.9785C132.688 44.1187 132.651 44.2987 132.643 44.4283C132.635 44.5579 132.688 44.7562 132.771 44.9043C132.853 45.0523 132.935 45.2003 133.057 45.3377C133.25 45.5835 133.462 45.7393 133.684 45.9348C133.896 46.0906 134.148 46.2358 134.418 46.2911C134.648 46.3569 134.947 46.3618 135.195 46.3377C135.484 46.303 135.7 46.16 135.946 45.9666L136.713 45.336Z" fill="white"/>
<path d="M143.365 49.5473L143.784 50.1578L138.986 53.3565C138.622 53.5818 138.246 53.7674 137.911 53.9424C137.525 54.0883 137.157 54.1443 136.808 54.1104C136.458 54.0764 136.088 53.9631 135.725 53.7201C135.363 53.4772 135.018 53.1443 134.671 52.6421C134.396 52.2483 134.25 51.8622 134.165 51.5449C134.069 51.1879 134.034 50.8997 134.079 50.5901C134.123 50.2806 134.189 50.0504 134.305 49.8492C134.422 49.648 134.548 49.4865 134.725 49.354L135.155 50.0042C134.988 50.1764 134.872 50.3775 134.835 50.5574C134.799 50.7373 134.762 50.9173 134.775 51.1262C134.789 51.3352 134.831 51.4939 134.924 51.6816C135.017 51.8693 135.11 52.057 135.242 52.2341C135.518 52.6279 135.812 52.9318 136.113 53.106C136.415 53.2802 136.725 53.3248 137.063 53.3191C137.391 53.2737 137.709 53.1887 138.015 53.064C138.322 52.9393 138.647 52.7246 138.972 52.5099C138.515 52.5475 138.094 52.4052 137.692 52.1729C137.289 51.9406 136.955 51.6473 136.72 51.2429C136.444 50.8491 136.287 50.4234 136.271 50.0451C136.244 49.6272 136.278 49.2781 136.391 48.9076C136.505 48.5371 136.708 48.185 137.012 47.891C137.305 47.5574 137.62 47.3031 137.974 47.0382C138.368 46.7626 138.743 46.5769 139.169 46.4203C139.555 46.2744 139.962 46.2077 140.362 46.2707C140.75 46.294 141.081 46.4181 141.433 46.6213C141.785 46.8246 142.09 47.1681 142.366 47.5619C142.498 47.739 142.591 47.9267 142.644 48.125C142.697 48.3234 142.761 48.5613 142.774 48.7703C142.788 48.9793 142.772 49.2386 142.746 49.4581C142.68 49.6884 142.614 49.9185 142.498 50.1197L142.509 50.1594L143.365 49.5473ZM140.696 51.3255C141.021 51.1109 141.296 50.8672 141.52 50.5944C141.745 50.3217 141.929 50.0596 142.024 49.7791C142.119 49.4986 142.164 49.189 142.129 48.9007C142.094 48.6124 141.97 48.3056 141.805 48.0096C141.651 47.7532 141.429 47.5578 141.207 47.3623C140.955 47.2171 140.714 47.1115 140.405 47.0669C140.095 47.0223 139.807 47.0571 139.479 47.1024C139.162 47.1875 138.815 47.3228 138.49 47.5375C138.165 47.7521 137.84 47.9667 137.615 48.2395C137.38 48.4725 137.206 48.7743 137.071 49.0655C136.937 49.3566 136.892 49.6661 136.938 49.9941C136.983 50.322 137.068 50.6394 137.283 50.9645C137.487 51.2499 137.709 51.4454 137.961 51.5906C138.212 51.7358 138.532 51.8201 138.831 51.8251C139.13 51.83 139.458 51.7846 139.775 51.6996C140.064 51.6649 140.41 51.5295 140.696 51.3255Z" fill="white"/>
<path d="M146.736 55.6165L147.086 56.2881L141.418 59.2523L141.068 58.5807L141.848 58.1592C141.708 58.1118 141.528 58.075 141.388 58.0275C141.208 57.9907 141.057 57.9035 140.906 57.8164C140.755 57.7293 140.594 57.6025 140.422 57.4361C140.249 57.2696 140.117 57.0926 140.003 56.8256C139.817 56.4502 139.682 56.1038 139.687 55.8049C139.652 55.5166 139.697 55.207 139.802 54.9662C139.908 54.7253 140.053 54.4738 140.299 54.2804C140.544 54.087 140.751 53.9043 141.047 53.7399L144.78 51.8044L145.129 52.4759L141.397 54.4114C140.913 54.6686 140.609 54.9626 140.456 55.3437C140.303 55.7248 140.37 56.1321 140.638 56.6555C140.791 56.9119 140.934 57.1287 141.197 57.3136C141.408 57.4694 141.649 57.5749 141.919 57.6301C142.189 57.6853 142.477 57.6506 142.765 57.6158C143.083 57.5308 143.361 57.4564 143.696 57.2814L146.736 55.6165Z" fill="white"/>
<path d="M146.334 61.4207C146.405 61.5291 146.488 61.6772 146.58 61.8649C146.673 62.0526 146.785 62.1503 146.896 62.248C147.007 62.3458 147.097 62.3642 147.266 62.3613C147.385 62.3294 147.504 62.2975 147.623 62.2657C147.969 62.1303 148.205 61.8973 148.329 61.5665C148.463 61.2753 148.426 60.8177 148.197 60.2837C148.094 60.0563 147.991 59.829 147.858 59.6519C147.726 59.4749 147.604 59.3374 147.442 59.2107C147.281 59.0839 147.101 59.047 146.881 59.0208C146.662 58.9946 146.413 59.0187 146.175 59.0825L145.904 58.3898C146.261 58.2941 146.589 58.2487 146.888 58.2537C147.198 58.2983 147.478 58.3932 147.69 58.549C147.942 58.6942 148.124 58.9003 148.328 59.1857C148.522 59.4315 148.686 59.7276 148.811 60.0343C148.936 60.341 149.01 60.6187 149.045 60.907C149.079 61.1953 149.064 61.4545 149.009 61.7244C148.943 61.9546 148.798 62.2061 148.642 62.4179C148.446 62.6403 148.19 62.7941 147.844 62.9294L144.618 64.2189C144.351 64.333 144.213 64.4548 144.155 64.5553C144.108 64.6956 144.201 64.8833 144.434 65.1184L143.9 65.3467C143.849 65.3176 143.828 65.2383 143.757 65.1299C143.685 65.0215 143.624 64.9528 143.592 64.8338C143.56 64.7148 143.539 64.6355 143.507 64.5165C143.475 64.3975 143.483 64.2678 143.501 64.1778C143.52 64.0879 143.578 63.9873 143.647 63.9264C143.715 63.8655 143.784 63.8046 143.892 63.733C144.001 63.6615 144.08 63.6402 144.189 63.5687C143.757 63.3867 143.365 63.194 143.061 62.8504C142.727 62.5572 142.502 62.1924 142.335 61.7271C142.221 61.46 142.157 61.2221 142.122 60.9338C142.098 60.6852 142.113 60.4259 142.179 60.1957C142.245 59.9655 142.351 59.7246 142.517 59.5524C142.684 59.3803 142.89 59.1975 143.196 59.0728C144.196 58.6775 145.08 59.1209 145.809 60.4135L146.334 61.4207ZM146.465 62.7035C146.232 62.4683 146.028 62.183 145.874 61.9266C145.721 61.6702 145.556 61.3741 145.431 61.0674C145.164 60.5439 144.899 60.1898 144.586 59.9759C144.274 59.762 143.925 59.7281 143.499 59.8846C143.311 59.9775 143.163 60.0595 143.065 60.1708C142.968 60.282 142.881 60.4329 142.833 60.5732C142.786 60.7134 142.789 60.8827 142.791 61.052C142.794 61.2213 142.837 61.3799 142.919 61.528C143.033 61.795 143.187 62.0515 143.341 62.3079C143.523 62.514 143.706 62.7201 143.918 62.8759C144.13 63.0317 144.36 63.0976 144.669 63.1422C144.939 63.1974 145.217 63.123 145.524 62.9983L146.465 62.7035Z" fill="white"/>
<path d="M144.23 66.5761L143.999 65.8728L150.083 63.9874L150.314 64.6907L149.175 65.0385L149.185 65.0782C149.744 65.0987 150.135 65.2913 150.448 65.5052C150.731 65.7694 150.956 66.1342 151.134 66.6392L150.391 66.8809C150.285 66.4842 150.121 66.1881 149.887 65.953C149.665 65.7575 149.453 65.6017 149.173 65.5068C148.892 65.4119 148.593 65.4069 148.265 65.4523C147.937 65.4977 147.609 65.543 147.263 65.6783L144.23 66.5761Z" fill="white"/>
<path d="M145.87 72.6847L145.718 71.96L151.973 70.7092L152.125 71.4339L150.953 71.6628L150.964 71.7025C151.504 71.813 151.895 72.0056 152.179 72.2698C152.422 72.5446 152.619 72.9597 152.717 73.486L151.953 73.6482C151.886 73.2409 151.751 72.8945 151.568 72.6884C151.375 72.4426 151.163 72.2868 150.872 72.1522C150.631 72.0467 150.321 72.0021 149.983 72.0078C149.644 72.0135 149.316 72.059 148.949 72.1149L145.87 72.6847Z" fill="white"/>
<path d="M149.441 75.3837C149.113 75.429 148.796 75.514 148.489 75.6387C148.182 75.7634 147.936 75.9569 147.73 76.1397C147.535 76.3621 147.379 76.5738 147.284 76.8543C147.189 77.1349 147.145 77.4444 147.201 77.812C147.249 78.3093 147.434 78.6847 147.728 78.9886C148.022 79.2924 148.414 79.4851 148.893 79.5268L148.987 80.3521C148.677 80.3075 148.397 80.2125 148.105 80.0779C147.825 79.983 147.563 79.7983 147.34 79.6028C147.118 79.4073 146.925 79.1615 146.8 78.8548C146.675 78.5481 146.55 78.2414 146.524 77.8235C146.475 77.3263 146.477 76.8579 146.63 76.4768C146.744 76.1064 146.947 75.7544 147.211 75.471C147.475 75.1876 147.8 74.973 148.186 74.8271C148.572 74.6811 149.009 74.5642 149.456 74.4869C149.913 74.4493 150.382 74.4514 150.781 74.5144C151.191 74.6171 151.562 74.7304 151.924 74.9733C152.277 75.1766 152.52 75.4514 152.745 75.8162C152.96 76.1413 153.117 76.567 153.154 77.0246C153.258 77.8895 153.032 78.6304 152.504 79.1971C151.975 79.7638 151.134 80.1167 149.981 80.2556L149.441 75.3837ZM150.565 79.419C150.893 79.3736 151.17 79.2992 151.437 79.1851C151.704 79.0711 151.921 78.928 152.117 78.7056C152.283 78.5335 152.428 78.282 152.523 78.0014C152.618 77.7209 152.623 77.422 152.578 77.0941C152.532 76.7661 152.458 76.4884 152.265 76.2426C152.071 75.9969 151.939 75.8197 151.687 75.6746C151.475 75.5187 151.195 75.4238 150.914 75.3289C150.634 75.234 150.335 75.2292 150.036 75.2242L150.565 79.419Z" fill="white"/>
<path d="M149.059 81.7355C148.503 81.8843 148.128 82.0699 147.914 82.3823C147.7 82.6947 147.597 83.1049 147.627 83.6921C147.651 83.9407 147.675 84.1894 147.728 84.3877C147.782 84.5861 147.903 84.7235 148.025 84.8609C148.147 84.9983 148.258 85.096 148.399 85.1435C148.539 85.1909 148.679 85.2383 148.848 85.2355C149.147 85.2404 149.375 85.137 149.531 84.9251C149.686 84.7133 149.792 84.4725 149.876 84.1523C149.96 83.8321 150.005 83.5226 150.079 83.1627C150.113 82.8135 150.237 82.4827 150.321 82.1625C150.445 81.8317 150.59 81.5802 150.836 81.3868C151.071 81.1538 151.388 81.0688 151.806 81.0418C152.354 81.0227 152.785 81.2046 153.14 81.5772C153.495 81.9498 153.683 82.4945 153.705 83.2114C153.717 83.8885 153.577 84.4786 153.305 84.8916C152.994 85.3152 152.52 85.612 151.785 85.7239L151.753 84.9674C152.239 84.8796 152.575 84.7045 152.789 84.3921C153.003 84.0798 153.066 83.6803 153.068 83.2121C153.07 82.7439 152.935 82.3974 152.741 82.1517C152.548 81.9059 152.267 81.8111 151.929 81.8168C151.63 81.8119 151.402 81.9153 151.286 82.1165C151.131 82.3283 151.025 82.5691 150.941 82.8893C150.856 83.2095 150.772 83.5295 150.699 83.8894C150.625 84.2492 150.541 84.5694 150.417 84.9002C150.282 85.1914 150.097 85.4536 149.902 85.676C149.667 85.9091 149.349 85.9941 148.971 86.0104C148.672 86.0055 148.402 85.9502 148.161 85.8447C147.921 85.7392 147.738 85.5331 147.555 85.327C147.412 85.1102 147.258 84.8538 147.173 84.5365C147.088 84.2192 147.043 83.8912 147.026 83.513C147.01 83.1347 147.044 82.7855 147.179 82.4943C147.273 82.2138 147.419 81.9623 147.614 81.7399C147.81 81.5175 148.026 81.3743 148.283 81.2205C148.55 81.1065 148.828 81.0321 149.116 80.9974L149.059 81.7355Z" fill="white"/>
<path d="M151.267 91.5606C151.754 91.4727 152.119 91.2474 152.423 90.9534C152.727 90.6594 152.869 90.2387 152.911 89.7598C152.934 89.3709 152.889 89.043 152.735 88.7866C152.621 88.5196 152.388 88.2844 152.165 88.0889C151.943 87.8934 151.652 87.7588 151.321 87.6349C151.001 87.5506 150.681 87.4664 150.331 87.4324C149.982 87.3985 149.654 87.4438 149.326 87.4891C148.998 87.5345 148.692 87.6593 148.435 87.813C148.179 87.9667 147.944 88.1997 147.798 88.4512C147.614 88.7133 147.529 89.0335 147.506 89.4223C147.485 89.9805 147.602 90.4168 147.867 90.771C148.132 91.1251 148.535 91.3575 149.085 91.5076L149.038 92.2854C148.678 92.2118 148.387 92.0771 148.086 91.9029C147.784 91.7287 147.561 91.5333 147.368 91.2875C147.175 91.0417 147.021 90.7854 146.936 90.468C146.851 90.1507 146.795 89.783 146.818 89.3941C146.849 88.8756 146.952 88.4655 147.155 88.1134C147.358 87.7613 147.623 87.478 147.908 87.274C148.194 87.0699 148.58 86.924 149.016 86.8071C149.452 86.6901 149.881 86.7028 150.349 86.7049C150.788 86.7573 151.227 86.8097 151.608 86.9627C151.99 87.1157 152.342 87.3189 152.625 87.5831C152.908 87.8473 153.163 88.1617 153.309 88.5478C153.455 88.9338 153.521 89.3411 153.479 89.8199C153.422 90.558 153.232 91.119 152.841 91.5639C152.45 92.0088 151.877 92.2476 151.131 92.3199L151.267 91.5606Z" fill="white"/>
<path d="M152.294 98.2577L152.146 98.9774L145.873 97.9374L146.02 97.2178L146.909 97.3622C146.798 97.2644 146.716 97.1163 146.594 96.9789C146.472 96.8415 146.39 96.6935 146.337 96.4951C146.284 96.2968 146.191 96.1091 146.178 95.9001C146.164 95.6912 146.14 95.4426 146.195 95.1728C146.258 94.7732 146.372 94.4027 146.556 94.1406C146.741 93.8785 146.937 93.6561 147.164 93.5526C147.381 93.4095 147.658 93.3351 147.947 93.3004C148.235 93.2656 148.534 93.2706 148.894 93.3442L153.029 94.0218L152.882 94.7414L148.747 94.0639C148.207 93.9535 147.76 94.0307 147.435 94.2454C147.11 94.46 146.867 94.8228 146.807 95.3916C146.762 95.7011 146.746 95.9603 146.86 96.2273C146.974 96.4944 147.078 96.7217 147.261 96.9279C147.443 97.134 147.655 97.2898 147.946 97.4244C148.238 97.5589 148.518 97.6539 148.878 97.7275L152.294 98.2577Z" fill="white"/>
<path d="M148.462 100.135C148.142 100.05 147.793 100.016 147.494 100.012C147.155 100.017 146.878 100.092 146.61 100.206C146.343 100.32 146.137 100.502 145.902 100.735C145.707 100.958 145.572 101.249 145.448 101.58C145.317 102.04 145.354 102.498 145.5 102.884C145.646 103.27 145.951 103.614 146.353 103.846L146.137 104.626C145.875 104.442 145.613 104.257 145.43 104.051C145.208 103.855 145.054 103.599 144.9 103.342C144.746 103.086 144.712 102.798 144.666 102.47C144.621 102.142 144.695 101.782 144.808 101.411C144.929 100.911 145.122 100.519 145.415 100.186C145.708 99.8522 145.993 99.6482 146.329 99.4732C146.676 99.3379 147.072 99.2315 147.501 99.2443C147.929 99.257 148.369 99.3095 148.818 99.4015C149.279 99.5332 149.66 99.6861 150.023 99.9291C150.385 100.172 150.669 100.436 150.923 100.751C151.177 101.065 151.313 101.411 151.379 101.819C151.446 102.226 151.433 102.655 151.331 103.065C151.096 103.935 150.607 104.491 149.896 104.852C149.174 105.173 148.288 105.198 147.177 104.858L148.462 100.135ZM147.975 104.347C148.295 104.431 148.555 104.446 148.853 104.451C149.152 104.456 149.39 104.392 149.658 104.278C149.885 104.175 150.091 103.992 150.297 103.809C150.493 103.587 150.598 103.346 150.682 103.026C150.767 102.706 150.772 102.407 150.737 102.118C150.662 101.841 150.599 101.603 150.405 101.357C150.262 101.14 150.079 100.934 149.817 100.749C149.595 100.554 149.304 100.419 149.023 100.324L147.975 104.347Z" fill="white"/>
<path d="M130.08 130L126.576 123.64H125.592V130H121.488V113.152H128.376C129.704 113.152 130.832 113.384 131.76 113.848C132.704 114.312 133.408 114.952 133.872 115.768C134.336 116.568 134.568 117.464 134.568 118.456C134.568 119.576 134.248 120.576 133.608 121.456C132.984 122.336 132.056 122.96 130.824 123.328L134.712 130H130.08ZM125.592 120.736H128.136C128.888 120.736 129.448 120.552 129.816 120.184C130.2 119.816 130.392 119.296 130.392 118.624C130.392 117.984 130.2 117.48 129.816 117.112C129.448 116.744 128.888 116.56 128.136 116.56H125.592V120.736ZM138.608 115.216C137.888 115.216 137.296 115.008 136.832 114.592C136.384 114.16 136.16 113.632 136.16 113.008C136.16 112.368 136.384 111.84 136.832 111.424C137.296 110.992 137.888 110.776 138.608 110.776C139.312 110.776 139.888 110.992 140.336 111.424C140.8 111.84 141.032 112.368 141.032 113.008C141.032 113.632 140.8 114.16 140.336 114.592C139.888 115.008 139.312 115.216 138.608 115.216ZM140.648 116.608V130H136.544V116.608H140.648ZM142.206 123.304C142.206 121.912 142.486 120.696 143.046 119.656C143.622 118.616 144.414 117.816 145.422 117.256C146.446 116.696 147.614 116.416 148.926 116.416C150.606 116.416 152.006 116.856 153.126 117.736C154.262 118.616 155.006 119.856 155.358 121.456H150.99C150.622 120.432 149.91 119.92 148.854 119.92C148.102 119.92 147.502 120.216 147.054 120.808C146.606 121.384 146.382 122.216 146.382 123.304C146.382 124.392 146.606 125.232 147.054 125.824C147.502 126.4 148.102 126.688 148.854 126.688C149.91 126.688 150.622 126.176 150.99 125.152H155.358C155.006 126.72 154.262 127.952 153.126 128.848C151.99 129.744 150.59 130.192 148.926 130.192C147.614 130.192 146.446 129.912 145.422 129.352C144.414 128.792 143.622 127.992 143.046 126.952C142.486 125.912 142.206 124.696 142.206 123.304ZM165.186 116.464C166.722 116.464 167.954 116.976 168.882 118C169.81 119.008 170.274 120.4 170.274 122.176V130H166.194V122.728C166.194 121.832 165.962 121.136 165.498 120.64C165.034 120.144 164.41 119.896 163.626 119.896C162.842 119.896 162.218 120.144 161.754 120.64C161.29 121.136 161.058 121.832 161.058 122.728V130H156.954V112.24H161.058V118.408C161.474 117.816 162.042 117.344 162.762 116.992C163.482 116.64 164.29 116.464 165.186 116.464ZM187.571 113.152V124.624C187.571 126.4 187.067 127.768 186.059 128.728C185.067 129.688 183.723 130.168 182.027 130.168C180.251 130.168 178.827 129.664 177.755 128.656C176.683 127.648 176.147 126.216 176.147 124.36H180.227C180.227 125.064 180.371 125.6 180.659 125.968C180.947 126.32 181.363 126.496 181.907 126.496C182.403 126.496 182.787 126.336 183.059 126.016C183.331 125.696 183.467 125.232 183.467 124.624V113.152H187.571ZM189.47 123.28C189.47 121.904 189.726 120.696 190.238 119.656C190.766 118.616 191.478 117.816 192.374 117.256C193.27 116.696 194.27 116.416 195.374 116.416C196.318 116.416 197.142 116.608 197.846 116.992C198.566 117.376 199.118 117.88 199.502 118.504V116.608H203.606V130H199.502V128.104C199.102 128.728 198.542 129.232 197.822 129.616C197.118 130 196.294 130.192 195.35 130.192C194.262 130.192 193.27 129.912 192.374 129.352C191.478 128.776 190.766 127.968 190.238 126.928C189.726 125.872 189.47 124.656 189.47 123.28ZM199.502 123.304C199.502 122.28 199.214 121.472 198.638 120.88C198.078 120.288 197.39 119.992 196.574 119.992C195.758 119.992 195.062 120.288 194.486 120.88C193.926 121.456 193.646 122.256 193.646 123.28C193.646 124.304 193.926 125.12 194.486 125.728C195.062 126.32 195.758 126.616 196.574 126.616C197.39 126.616 198.078 126.32 198.638 125.728C199.214 125.136 199.502 124.328 199.502 123.304ZM211.064 116.416C212.008 116.416 212.832 116.608 213.536 116.992C214.256 117.376 214.808 117.88 215.192 118.504V116.608H219.296V129.976C219.296 131.208 219.048 132.32 218.552 133.312C218.072 134.32 217.328 135.12 216.32 135.712C215.328 136.304 214.088 136.6 212.6 136.6C210.616 136.6 209.008 136.128 207.776 135.184C206.544 134.256 205.84 132.992 205.664 131.392H209.72C209.848 131.904 210.152 132.304 210.632 132.592C211.112 132.896 211.704 133.048 212.408 133.048C213.256 133.048 213.928 132.8 214.424 132.304C214.936 131.824 215.192 131.048 215.192 129.976V128.08C214.792 128.704 214.24 129.216 213.536 129.616C212.832 130 212.008 130.192 211.064 130.192C209.96 130.192 208.96 129.912 208.064 129.352C207.168 128.776 206.456 127.968 205.928 126.928C205.416 125.872 205.16 124.656 205.16 123.28C205.16 121.904 205.416 120.696 205.928 119.656C206.456 118.616 207.168 117.816 208.064 117.256C208.96 116.696 209.96 116.416 211.064 116.416ZM215.192 123.304C215.192 122.28 214.904 121.472 214.328 120.88C213.768 120.288 213.08 119.992 212.264 119.992C211.448 119.992 210.752 120.288 210.176 120.88C209.616 121.456 209.336 122.256 209.336 123.28C209.336 124.304 209.616 125.12 210.176 125.728C210.752 126.32 211.448 126.616 212.264 126.616C213.08 126.616 213.768 126.32 214.328 125.728C214.904 125.136 215.192 124.328 215.192 123.304ZM234.889 116.608V130H230.785V128.176C230.369 128.768 229.801 129.248 229.081 129.616C228.377 129.968 227.593 130.144 226.729 130.144C225.705 130.144 224.801 129.92 224.017 129.472C223.233 129.008 222.625 128.344 222.193 127.48C221.761 126.616 221.545 125.6 221.545 124.432V116.608H225.625V123.88C225.625 124.776 225.857 125.472 226.321 125.968C226.785 126.464 227.409 126.712 228.193 126.712C228.993 126.712 229.625 126.464 230.089 125.968C230.553 125.472 230.785 124.776 230.785 123.88V116.608H234.889ZM236.42 123.28C236.42 121.904 236.676 120.696 237.188 119.656C237.716 118.616 238.428 117.816 239.324 117.256C240.22 116.696 241.22 116.416 242.324 116.416C243.268 116.416 244.092 116.608 244.796 116.992C245.516 117.376 246.068 117.88 246.452 118.504V116.608H250.556V130H246.452V128.104C246.052 128.728 245.492 129.232 244.772 129.616C244.068 130 243.244 130.192 242.3 130.192C241.212 130.192 240.22 129.912 239.324 129.352C238.428 128.776 237.716 127.968 237.188 126.928C236.676 125.872 236.42 124.656 236.42 123.28ZM246.452 123.304C246.452 122.28 246.164 121.472 245.588 120.88C245.028 120.288 244.34 119.992 243.524 119.992C242.708 119.992 242.012 120.288 241.436 120.88C240.876 121.456 240.596 122.256 240.596 123.28C240.596 124.304 240.876 125.12 241.436 125.728C242.012 126.32 242.708 126.616 243.524 126.616C244.34 126.616 245.028 126.32 245.588 125.728C246.164 125.136 246.452 124.328 246.452 123.304ZM257.03 118.84C257.51 118.104 258.11 117.528 258.83 117.112C259.55 116.68 260.35 116.464 261.23 116.464V120.808H260.102C259.078 120.808 258.31 121.032 257.798 121.48C257.286 121.912 257.03 122.68 257.03 123.784V130H252.926V116.608H257.03V118.84ZM266.431 126.616H272.239V130H261.847V126.736L267.415 119.992H261.895V116.608H272.119V119.872L266.431 126.616Z" fill="#52CC83"/>
<path d="M130.08 130L129.905 130.097L129.962 130.2H130.08V130ZM126.576 123.64L126.751 123.543L126.694 123.44H126.576V123.64ZM125.592 123.64V123.44H125.392V123.64H125.592ZM125.592 130V130.2H125.792V130H125.592ZM121.488 130H121.288V130.2H121.488V130ZM121.488 113.152V112.952H121.288V113.152H121.488ZM131.76 113.848L131.671 114.027L131.672 114.027L131.76 113.848ZM133.872 115.768L133.698 115.867L133.699 115.868L133.872 115.768ZM133.608 121.456L133.446 121.338L133.445 121.34L133.608 121.456ZM130.824 123.328L130.767 123.136L130.523 123.209L130.651 123.429L130.824 123.328ZM134.712 130V130.2H135.06L134.885 129.899L134.712 130ZM125.592 120.736H125.392V120.936H125.592V120.736ZM129.816 120.184L129.678 120.04L129.675 120.043L129.816 120.184ZM129.816 117.112L129.675 117.253L129.678 117.256L129.816 117.112ZM125.592 116.56V116.36H125.392V116.56H125.592ZM130.255 129.903L126.751 123.543L126.401 123.737L129.905 130.097L130.255 129.903ZM126.576 123.44H125.592V123.84H126.576V123.44ZM125.392 123.64V130H125.792V123.64H125.392ZM125.592 129.8H121.488V130.2H125.592V129.8ZM121.688 130V113.152H121.288V130H121.688ZM121.488 113.352H128.376V112.952H121.488V113.352ZM128.376 113.352C129.681 113.352 130.777 113.58 131.671 114.027L131.849 113.669C130.887 113.188 129.727 112.952 128.376 112.952V113.352ZM131.672 114.027C132.584 114.476 133.256 115.09 133.698 115.867L134.046 115.669C133.56 114.814 132.824 114.148 131.848 113.669L131.672 114.027ZM133.699 115.868C134.144 116.636 134.368 117.497 134.368 118.456H134.768C134.768 117.431 134.528 116.5 134.045 115.668L133.699 115.868ZM134.368 118.456C134.368 119.535 134.061 120.494 133.446 121.338L133.77 121.574C134.435 120.658 134.768 119.617 134.768 118.456H134.368ZM133.445 121.34C132.851 122.177 131.964 122.779 130.767 123.136L130.881 123.52C132.148 123.141 133.117 122.495 133.771 121.572L133.445 121.34ZM130.651 123.429L134.539 130.101L134.885 129.899L130.997 123.227L130.651 123.429ZM134.712 129.8H130.08V130.2H134.712V129.8ZM125.592 120.936H128.136V120.536H125.592V120.936ZM128.136 120.936C128.917 120.936 129.538 120.745 129.957 120.325L129.675 120.043C129.358 120.359 128.859 120.536 128.136 120.536V120.936ZM129.954 120.328C130.388 119.913 130.592 119.335 130.592 118.624H130.192C130.192 119.257 130.012 119.719 129.678 120.04L129.954 120.328ZM130.592 118.624C130.592 117.941 130.386 117.381 129.954 116.968L129.678 117.256C130.014 117.579 130.192 118.027 130.192 118.624H130.592ZM129.957 116.971C129.538 116.551 128.917 116.36 128.136 116.36V116.76C128.859 116.76 129.358 116.937 129.675 117.253L129.957 116.971ZM128.136 116.36H125.592V116.76H128.136V116.36ZM125.392 116.56V120.736H125.792V116.56H125.392ZM136.832 114.592L136.693 114.736L136.699 114.741L136.832 114.592ZM136.832 111.424L136.968 111.571L136.969 111.57L136.832 111.424ZM140.336 111.424L140.197 111.568L140.203 111.573L140.336 111.424ZM140.336 114.592L140.472 114.739L140.473 114.738L140.336 114.592ZM140.648 116.608H140.848V116.408H140.648V116.608ZM140.648 130V130.2H140.848V130H140.648ZM136.544 130H136.344V130.2H136.544V130ZM136.544 116.608V116.408H136.344V116.608H136.544ZM138.608 115.016C137.929 115.016 137.387 114.821 136.966 114.443L136.699 114.741C137.205 115.195 137.847 115.416 138.608 115.416V115.016ZM136.971 114.448C136.562 114.054 136.36 113.578 136.36 113.008H135.96C135.96 113.686 136.206 114.266 136.693 114.736L136.971 114.448ZM136.36 113.008C136.36 112.421 136.563 111.947 136.968 111.571L136.696 111.277C136.205 111.733 135.96 112.315 135.96 113.008H136.36ZM136.969 111.57C137.39 111.178 137.931 110.976 138.608 110.976V110.576C137.845 110.576 137.202 110.806 136.696 111.278L136.969 111.57ZM138.608 110.976C139.268 110.976 139.792 111.177 140.197 111.568L140.475 111.28C139.985 110.807 139.357 110.576 138.608 110.576V110.976ZM140.203 111.573C140.623 111.95 140.832 112.423 140.832 113.008H141.232C141.232 112.313 140.977 111.73 140.47 111.275L140.203 111.573ZM140.832 113.008C140.832 113.575 140.624 114.051 140.2 114.446L140.473 114.738C140.976 114.269 141.232 113.689 141.232 113.008H140.832ZM140.2 114.445C139.795 114.822 139.27 115.016 138.608 115.016V115.416C139.355 115.416 139.982 115.194 140.472 114.739L140.2 114.445ZM140.448 116.608V130H140.848V116.608H140.448ZM140.648 129.8H136.544V130.2H140.648V129.8ZM136.744 130V116.608H136.344V130H136.744ZM136.544 116.808H140.648V116.408H136.544V116.808ZM143.046 119.656L142.871 119.559L142.87 119.561L143.046 119.656ZM145.422 117.256L145.326 117.081L145.325 117.081L145.422 117.256ZM153.126 117.736L153.003 117.893L153.004 117.894L153.126 117.736ZM155.358 121.456V121.656H155.607L155.554 121.413L155.358 121.456ZM150.99 121.456L150.802 121.524L150.85 121.656H150.99V121.456ZM147.054 120.808L147.212 120.931L147.214 120.929L147.054 120.808ZM147.054 125.824L146.895 125.945L146.897 125.947L147.054 125.824ZM150.99 125.152V124.952H150.85L150.802 125.084L150.99 125.152ZM155.358 125.152L155.554 125.196L155.608 124.952H155.358V125.152ZM153.126 128.848L153.003 128.691L153.003 128.691L153.126 128.848ZM145.422 129.352L145.325 129.527L145.326 129.527L145.422 129.352ZM143.046 126.952L142.87 127.047L142.871 127.049L143.046 126.952ZM142.406 123.304C142.406 121.939 142.681 120.757 143.222 119.751L142.87 119.561C142.292 120.635 142.006 121.885 142.006 123.304H142.406ZM143.221 119.753C143.78 118.745 144.545 117.972 145.52 117.431L145.325 117.081C144.283 117.66 143.465 118.487 142.871 119.559L143.221 119.753ZM145.518 117.431C146.509 116.889 147.644 116.616 148.926 116.616V116.216C147.585 116.216 146.383 116.503 145.326 117.081L145.518 117.431ZM148.926 116.616C150.57 116.616 151.924 117.046 153.003 117.893L153.25 117.579C152.089 116.666 150.643 116.216 148.926 116.216V116.616ZM153.004 117.894C154.098 118.741 154.82 119.938 155.163 121.499L155.554 121.413C155.193 119.774 154.427 118.491 153.249 117.578L153.004 117.894ZM155.358 121.256H150.99V121.656H155.358V121.256ZM151.179 121.388C150.984 120.848 150.693 120.426 150.297 120.142C149.901 119.857 149.416 119.72 148.854 119.72V120.12C149.349 120.12 149.748 120.239 150.064 120.466C150.38 120.694 150.629 121.04 150.802 121.524L151.179 121.388ZM148.854 119.72C148.041 119.72 147.381 120.045 146.895 120.687L147.214 120.929C147.623 120.387 148.164 120.12 148.854 120.12V119.72ZM146.897 120.685C146.411 121.31 146.182 122.192 146.182 123.304H146.582C146.582 122.24 146.802 121.458 147.212 120.931L146.897 120.685ZM146.182 123.304C146.182 124.416 146.411 125.305 146.895 125.945L147.214 125.703C146.802 125.159 146.582 124.368 146.582 123.304H146.182ZM146.897 125.947C147.384 126.573 148.043 126.888 148.854 126.888V126.488C148.162 126.488 147.621 126.227 147.212 125.701L146.897 125.947ZM148.854 126.888C149.416 126.888 149.901 126.751 150.297 126.466C150.693 126.182 150.984 125.76 151.179 125.22L150.802 125.084C150.629 125.568 150.38 125.914 150.064 126.142C149.748 126.369 149.349 126.488 148.854 126.488V126.888ZM150.99 125.352H155.358V124.952H150.99V125.352ZM155.163 125.108C154.82 126.637 154.098 127.827 153.003 128.691L153.25 129.005C154.426 128.077 155.193 126.803 155.554 125.196L155.163 125.108ZM153.003 128.691C151.907 129.555 150.553 129.992 148.926 129.992V130.392C150.628 130.392 152.074 129.933 153.25 129.005L153.003 128.691ZM148.926 129.992C147.644 129.992 146.509 129.719 145.518 129.177L145.326 129.527C146.383 130.105 147.585 130.392 148.926 130.392V129.992ZM145.52 129.177C144.545 128.636 143.78 127.863 143.221 126.855L142.871 127.049C143.465 128.121 144.283 128.948 145.325 129.527L145.52 129.177ZM143.222 126.857C142.681 125.851 142.406 124.669 142.406 123.304H142.006C142.006 124.723 142.292 125.973 142.87 127.047L143.222 126.857ZM168.882 118L168.733 118.134L168.734 118.135L168.882 118ZM170.274 130V130.2H170.474V130H170.274ZM166.194 130H165.994V130.2H166.194V130ZM165.498 120.64L165.352 120.777L165.352 120.777L165.498 120.64ZM161.754 120.64L161.9 120.777L161.9 120.777L161.754 120.64ZM161.058 130V130.2H161.258V130H161.058ZM156.954 130H156.754V130.2H156.954V130ZM156.954 112.24V112.04H156.754V112.24H156.954ZM161.058 112.24H161.258V112.04H161.058V112.24ZM161.058 118.408H160.858V119.04L161.221 118.523L161.058 118.408ZM162.762 116.992L162.674 116.812L162.674 116.812L162.762 116.992ZM165.186 116.664C166.672 116.664 167.848 117.157 168.733 118.134L169.03 117.866C168.059 116.795 166.771 116.264 165.186 116.264V116.664ZM168.734 118.135C169.619 119.097 170.074 120.435 170.074 122.176H170.474C170.474 120.365 170 118.919 169.029 117.865L168.734 118.135ZM170.074 122.176V130H170.474V122.176H170.074ZM170.274 129.8H166.194V130.2H170.274V129.8ZM166.394 130V122.728H165.994V130H166.394ZM166.394 122.728C166.394 121.798 166.152 121.047 165.644 120.503L165.352 120.777C165.771 121.225 165.994 121.866 165.994 122.728H166.394ZM165.644 120.503C165.136 119.961 164.456 119.696 163.626 119.696V120.096C164.364 120.096 164.931 120.327 165.352 120.777L165.644 120.503ZM163.626 119.696C162.796 119.696 162.115 119.961 161.608 120.503L161.9 120.777C162.32 120.327 162.888 120.096 163.626 120.096V119.696ZM161.608 120.503C161.099 121.047 160.858 121.798 160.858 122.728H161.258C161.258 121.866 161.48 121.225 161.9 120.777L161.608 120.503ZM160.858 122.728V130H161.258V122.728H160.858ZM161.058 129.8H156.954V130.2H161.058V129.8ZM157.154 130V112.24H156.754V130H157.154ZM156.954 112.44H161.058V112.04H156.954V112.44ZM160.858 112.24V118.408H161.258V112.24H160.858ZM161.221 118.523C161.616 117.961 162.156 117.51 162.849 117.172L162.674 116.812C161.927 117.178 161.331 117.671 160.894 118.293L161.221 118.523ZM162.849 117.172C163.539 116.835 164.316 116.664 165.186 116.664V116.264C164.263 116.264 163.424 116.445 162.674 116.812L162.849 117.172ZM187.571 113.152H187.771V112.952H187.571V113.152ZM186.059 128.728L185.922 128.583L185.92 128.584L186.059 128.728ZM177.755 128.656L177.618 128.802L177.618 128.802L177.755 128.656ZM176.147 124.36V124.16H175.947V124.36H176.147ZM180.227 124.36H180.427V124.16H180.227V124.36ZM180.659 125.968L180.502 126.091L180.505 126.095L180.659 125.968ZM183.059 126.016L182.907 125.886L182.907 125.886L183.059 126.016ZM183.467 113.152V112.952H183.267V113.152H183.467ZM187.371 113.152V124.624H187.771V113.152H187.371ZM187.371 124.624C187.371 126.361 186.88 127.671 185.922 128.583L186.197 128.873C187.255 127.865 187.771 126.439 187.771 124.624H187.371ZM185.92 128.584C184.974 129.5 183.684 129.968 182.027 129.968V130.368C183.763 130.368 185.161 129.876 186.199 128.872L185.92 128.584ZM182.027 129.968C180.291 129.968 178.92 129.476 177.892 128.51L177.618 128.802C178.735 129.852 180.212 130.368 182.027 130.368V129.968ZM177.892 128.51C176.871 127.549 176.347 126.176 176.347 124.36H175.947C175.947 126.256 176.496 127.747 177.618 128.802L177.892 128.51ZM176.147 124.56H180.227V124.16H176.147V124.56ZM180.027 124.36C180.027 125.087 180.176 125.674 180.502 126.091L180.817 125.845C180.567 125.526 180.427 125.041 180.427 124.36H180.027ZM180.505 126.095C180.838 126.502 181.316 126.696 181.907 126.696V126.296C181.41 126.296 181.057 126.138 180.814 125.841L180.505 126.095ZM181.907 126.696C182.45 126.696 182.895 126.518 183.212 126.146L182.907 125.886C182.68 126.154 182.356 126.296 181.907 126.296V126.696ZM183.212 126.146C183.526 125.776 183.667 125.259 183.667 124.624H183.267C183.267 125.205 183.137 125.616 182.907 125.886L183.212 126.146ZM183.667 124.624V113.152H183.267V124.624H183.667ZM183.467 113.352H187.571V112.952H183.467V113.352ZM190.238 119.656L190.06 119.565L190.059 119.568L190.238 119.656ZM192.374 117.256L192.48 117.426L192.48 117.426L192.374 117.256ZM197.846 116.992L197.751 117.168L197.752 117.168L197.846 116.992ZM199.502 118.504L199.332 118.609L199.702 119.211V118.504H199.502ZM199.502 116.608V116.408H199.302V116.608H199.502ZM203.606 116.608H203.806V116.408H203.606V116.608ZM203.606 130V130.2H203.806V130H203.606ZM199.502 130H199.302V130.2H199.502V130ZM199.502 128.104H199.702V127.421L199.334 127.996L199.502 128.104ZM197.822 129.616L197.728 129.44L197.727 129.44L197.822 129.616ZM192.374 129.352L192.266 129.52L192.268 129.522L192.374 129.352ZM190.238 126.928L190.058 127.015L190.06 127.019L190.238 126.928ZM198.638 120.88L198.493 121.017L198.495 121.019L198.638 120.88ZM194.486 120.88L194.343 120.741L194.343 120.741L194.486 120.88ZM194.486 125.728L194.339 125.864L194.343 125.867L194.486 125.728ZM198.638 125.728L198.495 125.589L198.493 125.591L198.638 125.728ZM189.67 123.28C189.67 121.929 189.922 120.752 190.418 119.744L190.059 119.568C189.531 120.64 189.27 121.879 189.27 123.28H189.67ZM190.417 119.747C190.93 118.736 191.618 117.964 192.48 117.426L192.268 117.086C191.338 117.668 190.603 118.496 190.06 119.565L190.417 119.747ZM192.48 117.426C193.343 116.886 194.306 116.616 195.374 116.616V116.216C194.235 116.216 193.198 116.506 192.268 117.086L192.48 117.426ZM195.374 116.616C196.291 116.616 197.081 116.802 197.751 117.168L197.942 116.816C197.204 116.414 196.346 116.216 195.374 116.216V116.616ZM197.752 117.168C198.445 117.538 198.969 118.018 199.332 118.609L199.673 118.399C199.268 117.742 198.688 117.214 197.941 116.816L197.752 117.168ZM199.702 118.504V116.608H199.302V118.504H199.702ZM199.502 116.808H203.606V116.408H199.502V116.808ZM203.406 116.608V130H203.806V116.608H203.406ZM203.606 129.8H199.502V130.2H203.606V129.8ZM199.702 130V128.104H199.302V130H199.702ZM199.334 127.996C198.954 128.588 198.421 129.07 197.728 129.44L197.917 129.792C198.664 129.394 199.251 128.868 199.671 128.212L199.334 127.996ZM197.727 129.44C197.057 129.806 196.267 129.992 195.35 129.992V130.392C196.322 130.392 197.18 130.194 197.918 129.792L197.727 129.44ZM195.35 129.992C194.299 129.992 193.344 129.722 192.48 129.182L192.268 129.522C193.197 130.102 194.226 130.392 195.35 130.392V129.992ZM192.483 129.184C191.619 128.629 190.93 127.849 190.417 126.837L190.06 127.019C190.603 128.087 191.338 128.923 192.266 129.52L192.483 129.184ZM190.418 126.841C189.922 125.816 189.67 124.631 189.67 123.28H189.27C189.27 124.681 189.531 125.928 190.058 127.015L190.418 126.841ZM199.702 123.304C199.702 122.241 199.402 121.378 198.782 120.741L198.495 121.019C199.027 121.566 199.302 122.319 199.302 123.304H199.702ZM198.784 120.743C198.186 120.111 197.445 119.792 196.574 119.792V120.192C197.336 120.192 197.971 120.465 198.493 121.017L198.784 120.743ZM196.574 119.792C195.704 119.792 194.956 120.11 194.343 120.741L194.63 121.019C195.169 120.466 195.813 120.192 196.574 120.192V119.792ZM194.343 120.741C193.738 121.363 193.446 122.219 193.446 123.28H193.846C193.846 122.293 194.115 121.549 194.63 121.019L194.343 120.741ZM193.446 123.28C193.446 124.342 193.738 125.21 194.339 125.863L194.634 125.593C194.115 125.03 193.846 124.266 193.846 123.28H193.446ZM194.343 125.867C194.956 126.498 195.704 126.816 196.574 126.816V126.416C195.813 126.416 195.169 126.142 194.63 125.589L194.343 125.867ZM196.574 126.816C197.445 126.816 198.186 126.497 198.784 125.865L198.493 125.591C197.971 126.143 197.336 126.416 196.574 126.416V126.816ZM198.782 125.867C199.402 125.23 199.702 124.367 199.702 123.304H199.302C199.302 124.289 199.027 125.042 198.495 125.589L198.782 125.867ZM213.536 116.992L213.44 117.168L213.441 117.168L213.536 116.992ZM215.192 118.504L215.021 118.609L215.392 119.211V118.504H215.192ZM215.192 116.608V116.408H214.992V116.608H215.192ZM219.296 116.608H219.496V116.408H219.296V116.608ZM218.552 133.312L218.373 133.223L218.371 133.226L218.552 133.312ZM216.32 135.712L216.218 135.54L216.217 135.54L216.32 135.712ZM207.776 135.184L207.897 135.025L207.896 135.024L207.776 135.184ZM205.664 131.392V131.192H205.44L205.465 131.414L205.664 131.392ZM209.72 131.392L209.914 131.343L209.876 131.192H209.72V131.392ZM210.632 132.592L210.739 132.423L210.734 132.421L210.632 132.592ZM214.424 132.304L214.287 132.158L214.282 132.163L214.424 132.304ZM215.192 128.08H215.392V127.397L215.023 127.972L215.192 128.08ZM213.536 129.616L213.631 129.792L213.634 129.79L213.536 129.616ZM208.064 129.352L207.955 129.52L207.958 129.522L208.064 129.352ZM205.928 126.928L205.748 127.015L205.749 127.019L205.928 126.928ZM205.928 119.656L205.749 119.565L205.748 119.568L205.928 119.656ZM208.064 117.256L208.17 117.426L208.17 117.426L208.064 117.256ZM214.328 120.88L214.182 121.017L214.184 121.019L214.328 120.88ZM210.176 120.88L210.032 120.741L210.032 120.741L210.176 120.88ZM210.176 125.728L210.028 125.864L210.032 125.867L210.176 125.728ZM214.328 125.728L214.184 125.589L214.182 125.591L214.328 125.728ZM211.064 116.616C211.98 116.616 212.77 116.802 213.44 117.168L213.631 116.816C212.893 116.414 212.035 116.216 211.064 116.216V116.616ZM213.441 117.168C214.134 117.538 214.658 118.018 215.021 118.609L215.362 118.399C214.957 117.742 214.377 117.214 213.63 116.816L213.441 117.168ZM215.392 118.504V116.608H214.992V118.504H215.392ZM215.192 116.808H219.296V116.408H215.192V116.808ZM219.096 116.608V129.976H219.496V116.608H219.096ZM219.096 129.976C219.096 131.18 218.853 132.261 218.373 133.223L218.73 133.401C219.242 132.379 219.496 131.236 219.496 129.976H219.096ZM218.371 133.226C217.909 134.196 217.193 134.967 216.218 135.54L216.421 135.884C217.462 135.273 218.234 134.444 218.732 133.398L218.371 133.226ZM216.217 135.54C215.264 136.109 214.062 136.4 212.6 136.4V136.8C214.113 136.8 215.391 136.499 216.422 135.884L216.217 135.54ZM212.6 136.4C210.647 136.4 209.086 135.936 207.897 135.025L207.654 135.343C208.929 136.32 210.584 136.8 212.6 136.8V136.4ZM207.896 135.024C206.71 134.131 206.033 132.918 205.862 131.37L205.465 131.414C205.646 133.066 206.377 134.381 207.655 135.344L207.896 135.024ZM205.664 131.592H209.72V131.192H205.664V131.592ZM209.525 131.441C209.667 132.007 210.006 132.45 210.529 132.763L210.734 132.421C210.297 132.158 210.028 131.801 209.914 131.343L209.525 131.441ZM210.524 132.761C211.043 133.09 211.675 133.248 212.408 133.248V132.848C211.732 132.848 211.18 132.702 210.739 132.423L210.524 132.761ZM212.408 133.248C213.297 133.248 214.024 132.987 214.565 132.445L214.282 132.163C213.831 132.613 213.214 132.848 212.408 132.848V133.248ZM214.56 132.45C215.13 131.916 215.392 131.074 215.392 129.976H214.992C214.992 131.022 214.741 131.732 214.287 132.158L214.56 132.45ZM215.392 129.976V128.08H214.992V129.976H215.392ZM215.023 127.972C214.642 128.566 214.115 129.057 213.437 129.442L213.634 129.79C214.364 129.375 214.941 128.842 215.36 128.188L215.023 127.972ZM213.44 129.44C212.77 129.806 211.98 129.992 211.064 129.992V130.392C212.035 130.392 212.893 130.194 213.631 129.792L213.44 129.44ZM211.064 129.992C209.995 129.992 209.032 129.722 208.17 129.182L207.958 129.522C208.887 130.102 209.924 130.392 211.064 130.392V129.992ZM208.172 129.184C207.308 128.629 206.619 127.849 206.106 126.837L205.749 127.019C206.292 128.087 207.027 128.923 207.955 129.52L208.172 129.184ZM206.107 126.841C205.611 125.816 205.36 124.631 205.36 123.28H204.96C204.96 124.681 205.22 125.928 205.748 127.015L206.107 126.841ZM205.36 123.28C205.36 121.929 205.611 120.752 206.107 119.744L205.748 119.568C205.22 120.64 204.96 121.879 204.96 123.28H205.36ZM206.106 119.747C206.619 118.736 207.307 117.964 208.17 117.426L207.958 117.086C207.028 117.668 206.292 118.496 205.749 119.565L206.106 119.747ZM208.17 117.426C209.032 116.886 209.995 116.616 211.064 116.616V116.216C209.924 116.216 208.887 116.506 207.958 117.086L208.17 117.426ZM215.392 123.304C215.392 122.241 215.091 121.378 214.471 120.741L214.184 121.019C214.716 121.566 214.992 122.319 214.992 123.304H215.392ZM214.473 120.743C213.875 120.111 213.134 119.792 212.264 119.792V120.192C213.025 120.192 213.66 120.465 214.182 121.017L214.473 120.743ZM212.264 119.792C211.393 119.792 210.645 120.11 210.032 120.741L210.319 121.019C210.858 120.466 211.502 120.192 212.264 120.192V119.792ZM210.032 120.741C209.427 121.363 209.136 122.219 209.136 123.28H209.536C209.536 122.293 209.804 121.549 210.319 121.019L210.032 120.741ZM209.136 123.28C209.136 124.342 209.427 125.21 210.028 125.863L210.323 125.593C209.804 125.03 209.536 124.266 209.536 123.28H209.136ZM210.032 125.867C210.645 126.498 211.393 126.816 212.264 126.816V126.416C211.502 126.416 210.858 126.142 210.319 125.589L210.032 125.867ZM212.264 126.816C213.134 126.816 213.875 126.497 214.473 125.865L214.182 125.591C213.66 126.143 213.025 126.416 212.264 126.416V126.816ZM214.471 125.867C215.091 125.23 215.392 124.367 215.392 123.304H214.992C214.992 124.289 214.716 125.042 214.184 125.589L214.471 125.867ZM234.889 116.608H235.089V116.408H234.889V116.608ZM234.889 130V130.2H235.089V130H234.889ZM230.785 130H230.585V130.2H230.785V130ZM230.785 128.176H230.985V127.544L230.621 128.061L230.785 128.176ZM229.081 129.616L229.17 129.795L229.172 129.794L229.081 129.616ZM224.017 129.472L223.915 129.644L223.917 129.646L224.017 129.472ZM222.193 127.48L222.014 127.569L222.014 127.569L222.193 127.48ZM221.545 116.608V116.408H221.345V116.608H221.545ZM225.625 116.608H225.825V116.408H225.625V116.608ZM226.321 125.968L226.175 126.105L226.175 126.105L226.321 125.968ZM230.785 116.608V116.408H230.585V116.608H230.785ZM234.689 116.608V130H235.089V116.608H234.689ZM234.889 129.8H230.785V130.2H234.889V129.8ZM230.985 130V128.176H230.585V130H230.985ZM230.621 128.061C230.226 128.623 229.684 129.083 228.99 129.438L229.172 129.794C229.917 129.413 230.511 128.913 230.948 128.291L230.621 128.061ZM228.991 129.437C228.318 129.774 227.565 129.944 226.729 129.944V130.344C227.621 130.344 228.436 130.162 229.17 129.795L228.991 129.437ZM226.729 129.944C225.735 129.944 224.866 129.727 224.116 129.298L223.917 129.646C224.735 130.113 225.674 130.344 226.729 130.344V129.944ZM224.118 129.3C223.37 128.857 222.787 128.222 222.371 127.391L222.014 127.569C222.462 128.466 223.096 129.159 223.915 129.644L224.118 129.3ZM222.371 127.391C221.956 126.56 221.745 125.575 221.745 124.432H221.345C221.345 125.625 221.565 126.672 222.014 127.569L222.371 127.391ZM221.745 124.432V116.608H221.345V124.432H221.745ZM221.545 116.808H225.625V116.408H221.545V116.808ZM225.425 116.608V123.88H225.825V116.608H225.425ZM225.425 123.88C225.425 124.81 225.666 125.561 226.175 126.105L226.467 125.831C226.047 125.383 225.825 124.742 225.825 123.88H225.425ZM226.175 126.105C226.682 126.647 227.363 126.912 228.193 126.912V126.512C227.455 126.512 226.887 126.281 226.467 125.831L226.175 126.105ZM228.193 126.912C229.037 126.912 229.726 126.648 230.235 126.105L229.943 125.831C229.523 126.28 228.948 126.512 228.193 126.512V126.912ZM230.235 126.105C230.743 125.561 230.985 124.81 230.985 123.88H230.585C230.585 124.742 230.362 125.383 229.943 125.831L230.235 126.105ZM230.985 123.88V116.608H230.585V123.88H230.985ZM230.785 116.808H234.889V116.408H230.785V116.808ZM237.188 119.656L237.01 119.565L237.009 119.568L237.188 119.656ZM239.324 117.256L239.43 117.426L239.43 117.426L239.324 117.256ZM244.796 116.992L244.701 117.168L244.702 117.168L244.796 116.992ZM246.452 118.504L246.282 118.609L246.652 119.211V118.504H246.452ZM246.452 116.608V116.408H246.252V116.608H246.452ZM250.556 116.608H250.756V116.408H250.556V116.608ZM250.556 130V130.2H250.756V130H250.556ZM246.452 130H246.252V130.2H246.452V130ZM246.452 128.104H246.652V127.421L246.284 127.996L246.452 128.104ZM244.772 129.616L244.678 129.44L244.677 129.44L244.772 129.616ZM239.324 129.352L239.216 129.52L239.218 129.522L239.324 129.352ZM237.188 126.928L237.008 127.015L237.01 127.019L237.188 126.928ZM245.588 120.88L245.443 121.017L245.445 121.019L245.588 120.88ZM241.436 120.88L241.293 120.741L241.293 120.741L241.436 120.88ZM241.436 125.728L241.289 125.864L241.293 125.867L241.436 125.728ZM245.588 125.728L245.445 125.589L245.443 125.591L245.588 125.728ZM236.62 123.28C236.62 121.929 236.872 120.752 237.368 119.744L237.009 119.568C236.481 120.64 236.22 121.879 236.22 123.28H236.62ZM237.367 119.747C237.88 118.736 238.568 117.964 239.43 117.426L239.218 117.086C238.288 117.668 237.553 118.496 237.01 119.565L237.367 119.747ZM239.43 117.426C240.293 116.886 241.256 116.616 242.324 116.616V116.216C241.185 116.216 240.148 116.506 239.218 117.086L239.43 117.426ZM242.324 116.616C243.241 116.616 244.031 116.802 244.701 117.168L244.892 116.816C244.154 116.414 243.296 116.216 242.324 116.216V116.616ZM244.702 117.168C245.395 117.538 245.919 118.018 246.282 118.609L246.623 118.399C246.218 117.742 245.638 117.214 244.891 116.816L244.702 117.168ZM246.652 118.504V116.608H246.252V118.504H246.652ZM246.452 116.808H250.556V116.408H246.452V116.808ZM250.356 116.608V130H250.756V116.608H250.356ZM250.556 129.8H246.452V130.2H250.556V129.8ZM246.652 130V128.104H246.252V130H246.652ZM246.284 127.996C245.904 128.588 245.371 129.07 244.678 129.44L244.867 129.792C245.614 129.394 246.201 128.868 246.621 128.212L246.284 127.996ZM244.677 129.44C244.007 129.806 243.217 129.992 242.3 129.992V130.392C243.272 130.392 244.13 130.194 244.868 129.792L244.677 129.44ZM242.3 129.992C241.249 129.992 240.294 129.722 239.43 129.182L239.218 129.522C240.147 130.102 241.176 130.392 242.3 130.392V129.992ZM239.433 129.184C238.569 128.629 237.88 127.849 237.367 126.837L237.01 127.019C237.553 128.087 238.288 128.923 239.216 129.52L239.433 129.184ZM237.368 126.841C236.872 125.816 236.62 124.631 236.62 123.28H236.22C236.22 124.681 236.481 125.928 237.008 127.015L237.368 126.841ZM246.652 123.304C246.652 122.241 246.352 121.378 245.732 120.741L245.445 121.019C245.977 121.566 246.252 122.319 246.252 123.304H246.652ZM245.734 120.743C245.136 120.111 244.395 119.792 243.524 119.792V120.192C244.286 120.192 244.921 120.465 245.443 121.017L245.734 120.743ZM243.524 119.792C242.654 119.792 241.906 120.11 241.293 120.741L241.58 121.019C242.119 120.466 242.763 120.192 243.524 120.192V119.792ZM241.293 120.741C240.688 121.363 240.396 122.219 240.396 123.28H240.796C240.796 122.293 241.065 121.549 241.58 121.019L241.293 120.741ZM240.396 123.28C240.396 124.342 240.688 125.21 241.289 125.863L241.584 125.593C241.065 125.03 240.796 124.266 240.796 123.28H240.396ZM241.293 125.867C241.906 126.498 242.654 126.816 243.524 126.816V126.416C242.763 126.416 242.119 126.142 241.58 125.589L241.293 125.867ZM243.524 126.816C244.395 126.816 245.136 126.497 245.734 125.865L245.443 125.591C244.921 126.143 244.286 126.416 243.524 126.416V126.816ZM245.732 125.867C246.352 125.23 246.652 124.367 246.652 123.304H246.252C246.252 124.289 245.977 125.042 245.445 125.589L245.732 125.867ZM257.03 118.84H256.83V119.513L257.197 118.949L257.03 118.84ZM258.83 117.112L258.93 117.285L258.932 117.283L258.83 117.112ZM261.23 116.464H261.43V116.264H261.23V116.464ZM261.23 120.808V121.008H261.43V120.808H261.23ZM257.798 121.48L257.926 121.633L257.929 121.631L257.798 121.48ZM257.03 130V130.2H257.23V130H257.03ZM252.926 130H252.726V130.2H252.926V130ZM252.926 116.608V116.408H252.726V116.608H252.926ZM257.03 116.608H257.23V116.408H257.03V116.608ZM257.197 118.949C257.661 118.238 258.238 117.685 258.93 117.285L258.729 116.939C257.981 117.371 257.358 117.97 256.862 118.731L257.197 118.949ZM258.932 117.283C259.62 116.871 260.384 116.664 261.23 116.664V116.264C260.315 116.264 259.479 116.489 258.727 116.941L258.932 117.283ZM261.03 116.464V120.808H261.43V116.464H261.03ZM261.23 120.608H260.102V121.008H261.23V120.608ZM260.102 120.608C259.053 120.608 258.229 120.837 257.666 121.329L257.929 121.631C258.39 121.227 259.102 121.008 260.102 121.008V120.608ZM257.669 121.327C257.089 121.816 256.83 122.658 256.83 123.784H257.23C257.23 122.702 257.482 122.008 257.926 121.633L257.669 121.327ZM256.83 123.784V130H257.23V123.784H256.83ZM257.03 129.8H252.926V130.2H257.03V129.8ZM253.126 130V116.608H252.726V130H253.126ZM252.926 116.808H257.03V116.408H252.926V116.808ZM256.83 116.608V118.84H257.23V116.608H256.83ZM266.431 126.616L266.278 126.487L266.001 126.816H266.431V126.616ZM272.239 126.616H272.439V126.416H272.239V126.616ZM272.239 130V130.2H272.439V130H272.239ZM261.847 130H261.647V130.2H261.847V130ZM261.847 126.736L261.693 126.609L261.647 126.664V126.736H261.847ZM267.415 119.992L267.569 120.119L267.84 119.792H267.415V119.992ZM261.895 119.992H261.695V120.192H261.895V119.992ZM261.895 116.608V116.408H261.695V116.608H261.895ZM272.119 116.608H272.319V116.408H272.119V116.608ZM272.119 119.872L272.272 120.001L272.319 119.945V119.872H272.119ZM266.431 126.816H272.239V126.416H266.431V126.816ZM272.039 126.616V130H272.439V126.616H272.039ZM272.239 129.8H261.847V130.2H272.239V129.8ZM262.047 130V126.736H261.647V130H262.047ZM262.001 126.863L267.569 120.119L267.261 119.865L261.693 126.609L262.001 126.863ZM267.415 119.792H261.895V120.192H267.415V119.792ZM262.095 119.992V116.608H261.695V119.992H262.095ZM261.895 116.808H272.119V116.408H261.895V116.808ZM271.919 116.608V119.872H272.319V116.608H271.919ZM271.966 119.743L266.278 126.487L266.584 126.745L272.272 120.001L271.966 119.743Z" fill="#52CC83"/>
</svg>
