<svg width="22" height="18" viewBox="0 0 22 18" fill="none" xmlns="http://www.w3.org/2000/svg">
<path d="M11.3284 17.6548C10.8253 17.6552 10.3328 17.5136 9.90931 17.2468C8.70793 16.4879 6.39745 14.9305 4.44306 13.0289C2.04464 10.6933 0.828369 8.49366 0.828369 6.48954C0.828369 5.09696 1.24741 3.82101 2.04031 2.80007C2.79221 1.8293 3.85435 1.13506 5.0561 0.828892C6.25784 0.52272 7.52944 0.622383 8.66661 1.11187C9.68441 1.54348 10.5922 2.27118 11.3284 3.23687C12.0646 2.26882 12.9723 1.54112 13.9901 1.11187C15.1273 0.622383 16.3989 0.52272 17.6006 0.828892C18.8024 1.13506 19.8645 1.8293 20.6164 2.80007C21.4093 3.82101 21.8284 5.09696 21.8284 6.48954C21.8284 8.49366 20.6121 10.6923 18.2137 13.027C16.2593 14.9286 13.9498 16.486 12.7474 17.2449C12.3242 17.5124 11.8316 17.6547 11.3284 17.6548ZM6.43446 1.83815C6.05437 1.83781 5.67592 1.88704 5.30901 1.98454C4.3881 2.23298 3.57538 2.77105 2.99517 3.51643C2.36372 4.3296 2.02974 5.3581 2.02974 6.49143C2.02974 8.16877 3.12587 10.086 5.28835 12.1902C7.16249 14.0158 9.3956 15.5194 10.5585 16.2513C10.7881 16.3955 11.0549 16.4721 11.3274 16.4721C11.5999 16.4721 11.8667 16.3955 12.0963 16.2513C13.2592 15.5175 15.4904 14.0139 17.3665 12.1902C19.5289 10.086 20.6251 8.16877 20.6251 6.49143C20.6251 5.3581 20.2911 4.33149 19.6596 3.51643C19.0794 2.77105 18.2667 2.23298 17.3458 1.98454C15.7038 1.54632 13.3967 2.00437 11.8445 4.60443C11.7916 4.69328 11.7159 4.76698 11.625 4.8182C11.5342 4.86941 11.4312 4.89636 11.3264 4.89636C11.2217 4.89636 11.1187 4.86941 11.0279 4.8182C10.937 4.76698 10.8613 4.69328 10.8084 4.60443C9.58878 2.55782 7.89917 1.83815 6.43446 1.83815Z" fill="white"/>
</svg>
