<svg width="18" height="18" viewBox="0 0 18 18" fill="none" xmlns="http://www.w3.org/2000/svg">
<path d="M9.00003 18C6.55576 18 6.24926 17.9896 5.2893 17.9458C4.33136 17.9021 3.67712 17.75 3.10464 17.5275C2.51281 17.2975 2.0109 16.9898 1.51057 16.4895C1.01022 15.9891 0.702463 15.4872 0.472488 14.8953C0.24999 14.3229 0.0978791 13.6686 0.0541242 12.7107C0.0103425 11.7507 0 11.4442 0 8.99997C0 6.55576 0.0103425 6.24926 0.0541242 5.2893C0.0978791 4.33136 0.24999 3.67712 0.472488 3.10467C0.70249 2.51284 1.01025 2.01093 1.51057 1.51055C2.01093 1.01022 2.51281 0.702462 3.10464 0.472461C3.67712 0.250016 4.33136 0.0978777 5.2893 0.0541496C6.24926 0.010368 6.55576 -4.34217e-07 9.00003 -4.34217e-07C11.4442 -4.34217e-07 11.7507 0.010368 12.7107 0.0541496C13.6686 0.0978509 14.3229 0.250016 14.8953 0.472461C15.4872 0.702462 15.9891 1.01022 16.4895 1.51055C16.9898 2.01093 17.2975 2.51284 17.5275 3.10467C17.75 3.67712 17.9021 4.33136 17.9459 5.2893C17.9896 6.24926 18 6.55576 18 8.99997C18 11.4442 17.9896 11.7507 17.9459 12.7107C17.9021 13.6686 17.75 14.3229 17.5275 14.8953C17.2975 15.4872 16.9898 15.9891 16.4895 16.4895C15.9891 16.9898 15.4872 17.2975 14.8953 17.5275C14.3229 17.75 13.6686 17.9021 12.7107 17.9458C11.7507 17.9896 11.4442 18 9.00003 18ZM9.00003 16.3784C11.4031 16.3784 11.6878 16.3692 12.6368 16.3259C13.5143 16.2859 13.9908 16.1393 14.3079 16.016C14.7281 15.8527 15.0279 15.6577 15.3428 15.3428C15.6577 15.0279 15.8527 14.728 16.016 14.308C16.1393 13.9908 16.2859 13.5143 16.3259 12.6368C16.3692 11.6877 16.3784 11.4031 16.3784 9C16.3784 6.59691 16.3692 6.31225 16.3259 5.36323C16.2859 4.48572 16.1393 4.00918 16.016 3.69207C15.8527 3.27194 15.6577 2.97214 15.3428 2.65723C15.0279 2.34227 14.728 2.14726 14.308 1.98397C13.9908 1.86072 13.5143 1.7141 12.6368 1.6741C11.6879 1.6308 11.4033 1.62161 9 1.62161C6.59672 1.62161 6.31214 1.6308 5.36323 1.67413C4.48572 1.7141 4.00918 1.86072 3.69208 1.98397C3.27194 2.14726 2.97214 2.34227 2.65723 2.65723C2.34229 2.97214 2.14726 3.27197 1.98397 3.69205C1.86072 4.00918 1.71413 4.48575 1.6741 5.36323C1.6308 6.31225 1.62161 6.59691 1.62161 9C1.62161 11.4031 1.6308 11.6877 1.6741 12.6368C1.71413 13.5143 1.86072 13.9908 1.98397 14.3079C2.14726 14.7281 2.34229 15.0279 2.6572 15.3428C2.97214 15.6577 3.27197 15.8527 3.69205 16.016C4.00918 16.1393 4.48575 16.2859 5.36323 16.3259C6.31225 16.3692 6.59694 16.3784 9.00003 16.3784Z" fill="white"/>
<path d="M9.00003 6C7.34313 6 5.99999 7.34314 5.99999 8.99998C5.99999 10.6569 7.34313 12 9.00003 12C10.6569 12 12 10.6569 12 8.99998C12 7.34314 10.6569 6 9.00003 6ZM9.00003 13.6216C6.44754 13.6216 4.37838 11.5525 4.37838 8.99998C4.37838 6.44754 6.44754 4.37839 9.00003 4.37839C11.5525 4.37839 13.6216 6.44754 13.6216 8.99998C13.6216 11.5525 11.5525 13.6216 9.00003 13.6216ZM14.8842 13.8042C14.8842 13.2077 14.4007 12.7242 13.8042 12.7242C13.2078 12.7242 12.7242 13.2077 12.7242 13.8042C12.7242 14.4007 13.2078 14.8842 13.8042 14.8842C14.4007 14.8842 14.8842 14.4007 14.8842 13.8042Z" fill="white"/>
</svg>
