<svg width="20" height="18" viewBox="0 0 20 18" fill="#ffff" xmlns="http://www.w3.org/2000/svg">
<path d="M19.4702 17.277V17.2762H19.4749V11.0278C19.4749 7.97103 18.7475 5.61633 14.7972 5.61633C12.8981 5.61633 11.6238 6.55906 11.1035 7.45281H11.0486V5.90171H7.30307V17.2762H11.2031V11.644C11.2031 10.161 11.5139 8.72706 13.544 8.72706C15.5442 8.72706 15.574 10.4194 15.574 11.7391V17.277H19.4702Z" fill="#ffff"/>
<path d="M0.973782 5.61633H4.86885V17.277H0.973782L0.973782 5.61633Z" fill="#ffff"/>
<path d="M3.16496 0.271973C1.95544 0.271973 0.973993 1.24679 0.973993 2.44814C0.973993 3.64949 1.95544 4.6447 3.16496 4.6447C4.37448 4.6447 5.35593 3.64949 5.35593 2.44814C5.35517 1.24679 4.37372 0.271973 3.16496 0.271973V0.271973Z" fill="#ffff"/>
</svg>
