<svg width="126" height="19" viewBox="0 0 126 19" fill="none" xmlns="http://www.w3.org/2000/svg">
<path d="M13.911 15.4029C13.4404 14.4252 13.2145 13.9641 13.0074 13.4476C12.1603 11.4553 11.8968 10.8282 11.6144 10.2379C11.0121 8.92816 10.5791 8.50388 9.61908 8.20874C10.5415 7.91359 10.9368 7.71068 11.4074 7.28641C12.1415 6.60388 12.518 5.57087 12.518 4.26116C12.518 1.60485 10.7485 0.0553391 7.69903 0.0553391H2.80478C1.52475 0.0553391 0.828258 0.0368927 0 0C0.112944 0.885436 0.150592 1.56796 0.150592 2.71165V12.6359C0.150592 14.001 0.112944 14.5544 0 15.4029H4.04717C3.93422 14.5544 3.89658 13.8718 3.89658 12.6175V9.59223H5.81663C6.419 9.59223 6.8896 9.73981 7.2849 10.0903C7.7555 10.4961 7.98139 10.9204 8.58376 12.5252C9.1673 14.0563 9.39319 14.8126 9.50614 15.4029H13.911ZM3.89658 6.43786V3.15437H6.85195C8.01904 3.15437 8.62141 3.68932 8.62141 4.72233C8.62141 5.77379 7.94374 6.43786 6.83312 6.43786H3.89658Z" fill="#52CC83"/>
<path d="M14.4242 0.0553391V2.82233H18.2455V0.0553391H14.4242ZM14.3677 4.15048C14.4807 4.98058 14.5183 5.73689 14.5183 6.93592V12.6175C14.5183 13.7981 14.4807 14.499 14.3677 15.4029H18.302C18.2078 14.6097 18.1514 13.6136 18.1514 12.6175V6.93592C18.1514 5.64466 18.189 4.9068 18.302 4.15048H14.3677Z" fill="#52CC83"/>
<path d="M30.4515 7.56311C29.8304 5.10971 27.8162 3.70777 24.9173 3.70777C21.2466 3.70777 18.8748 6.06893 18.8748 9.75825C18.8748 11.566 19.4771 13.1893 20.5689 14.2408C21.6043 15.2738 23.1478 15.8272 24.9549 15.8272C27.1385 15.8272 28.8515 15.0709 29.7927 13.7058C30.1504 13.1709 30.3763 12.6728 30.5833 11.8796L27.1197 11.3447C27.0444 11.7689 26.9503 11.9534 26.7809 12.1932C26.4044 12.7097 25.7267 13.0049 24.9926 13.0049C23.4867 13.0049 22.5266 11.7136 22.5266 9.72136C22.5266 7.69223 23.4302 6.51165 24.9549 6.51165C25.6326 6.51165 26.1597 6.73301 26.5362 7.15728C26.7809 7.43398 26.8938 7.69223 27.0632 8.24563L30.4515 7.56311Z" fill="#52CC83"/>
<path d="M35.0037 15.4029C34.8908 14.4437 34.8531 13.6689 34.8531 12.6175V8.87282C35.6061 7.65534 36.6226 6.95437 37.6956 6.95437C38.2226 6.95437 38.6368 7.12039 38.9003 7.45243C39.1262 7.76602 39.2015 8.09806 39.2015 8.83592V12.6175C39.2015 13.7427 39.1638 14.5175 39.0509 15.4029H42.9663C42.8722 14.6282 42.8157 13.7058 42.8157 12.6359V8.00583C42.8157 6.54854 42.4957 5.64466 41.7427 4.9068C41.0462 4.22427 40.0297 3.87379 38.7497 3.87379C37.1497 3.87379 35.9638 4.33495 34.8343 5.40485C34.8343 5.23883 34.8531 4.94369 34.8531 4.79612V2.84078C34.8531 1.53107 34.8908 0.86699 35.0037 0.0553391H31.1072C31.2201 0.774757 31.2577 1.56796 31.2577 2.84078V12.6175C31.2577 13.7612 31.2201 14.5359 31.1072 15.4029H35.0037Z" fill="#52CC83"/>
<path d="M50.1455 0.0553391V2.82233H53.9667V0.0553391H50.1455ZM50.0702 4.15048C50.1831 4.92524 50.2208 5.64466 50.2208 6.93592L50.2396 15.6427C50.2396 16.3068 49.8819 16.6573 49.2043 16.6573C48.6395 16.6573 48.3384 16.4544 48.0748 15.8456L44.95 17.1738C45.8536 18.4097 47.2842 19 49.336 19C50.842 19 52.1032 18.5942 52.8938 17.8748C53.5526 17.2845 53.8726 16.4359 53.8726 15.2738V6.93592C53.8726 5.60777 53.9103 4.79612 54.0232 4.15048H50.0702Z" fill="#52CC83"/>
<path d="M62.8732 8.1165C61.5178 8.1534 60.9531 8.17184 60.219 8.24563C58.5248 8.3932 57.2636 8.78058 56.3036 9.44466C55.4 10.0534 54.9294 10.9757 54.9294 12.1379C54.9294 13.1524 55.2871 14.0379 55.9647 14.6466C56.7177 15.3291 57.7907 15.6612 59.2213 15.6612C60.7649 15.6612 61.819 15.3476 62.8732 14.5544V15.4029H66.525C66.4309 14.5728 66.3933 13.9087 66.3933 12.7835V7.80291C66.3933 6.14272 65.8662 5.12816 64.6614 4.48252C63.9273 4.09515 62.572 3.83689 61.179 3.83689C59.3531 3.83689 57.9601 4.18738 56.9436 4.88835C56.153 5.44175 55.7388 6.03204 55.3624 7.12039L58.9578 7.69223C59.2401 6.78835 59.8801 6.40097 61.0849 6.40097C62.3273 6.40097 62.8732 6.8068 62.8732 7.69223V8.1165ZM62.8732 10.9942C62.8732 11.5476 62.6284 12.0456 62.1955 12.4146C61.6872 12.8388 60.8402 13.1155 60.0684 13.1155C59.0895 13.1155 58.5248 12.7282 58.5248 12.0641C58.5248 11.5291 58.9389 11.068 59.6166 10.8466C60.3884 10.6068 61.1978 10.5146 62.8732 10.4777V10.9942Z" fill="#52CC83"/>
<path d="M67.3942 16.8417C68.7118 18.2621 70.406 18.8893 72.9661 18.8893C74.8485 18.8893 76.4297 18.5019 77.4462 17.801C78.7639 16.8971 79.4039 15.4029 79.4039 13.1893V6.71456C79.4039 5.62621 79.4415 4.98058 79.5545 4.15048H75.865V4.53786C75.865 4.74078 75.865 4.79612 75.865 4.94369C74.8485 4.18738 73.832 3.87379 72.439 3.87379C69.2201 3.87379 67.093 6.03204 67.093 9.31553C67.093 12.6728 69.1636 14.7757 72.439 14.7757C73.8885 14.7757 74.905 14.4068 75.865 13.5583C75.8273 14.5359 75.6579 15.0893 75.2626 15.532C74.8108 16.067 74.0014 16.3437 72.9661 16.3437C71.7237 16.3437 70.7637 15.9194 70.1048 15.0893L67.3942 16.8417ZM70.6695 9.33398C70.6695 7.61845 71.6484 6.4932 73.1543 6.4932C74.6791 6.4932 75.7897 7.67379 75.7897 9.31553C75.7897 10.9573 74.6791 12.1194 73.1355 12.1194C71.6484 12.1194 70.6695 11.0311 70.6695 9.33398Z" fill="#52CC83"/>
<path d="M88.5559 4.15048C88.6688 5.10971 88.7065 5.88447 88.7065 6.91748V10.699C87.9724 11.8796 86.9182 12.599 85.8829 12.599C85.337 12.599 84.9229 12.4146 84.6593 12.0825C84.4334 11.7874 84.3581 11.4553 84.3581 10.699V6.91748C84.3581 5.81068 84.3958 5.03592 84.5087 4.15048H80.5933C80.6875 4.92524 80.7439 5.84757 80.7439 6.91748V11.5476C80.7439 13.0049 81.0639 13.9087 81.8169 14.6466C82.5322 15.3291 83.5487 15.6796 84.8099 15.6796C86.41 15.6796 87.4829 15.2369 88.7253 14.0932C88.7065 14.2223 88.7065 14.499 88.7065 14.5913V15.3845H92.4525C92.3395 14.6466 92.3019 13.8903 92.3019 12.6175V6.91748C92.3019 5.79223 92.3395 5.01748 92.4525 4.15048H88.5559Z" fill="#52CC83"/>
<path d="M101.043 8.1165C99.688 8.1534 99.1232 8.17184 98.3891 8.24563C96.6949 8.3932 95.4337 8.78058 94.4737 9.44466C93.5702 10.0534 93.0996 10.9757 93.0996 12.1379C93.0996 13.1524 93.4572 14.0379 94.1349 14.6466C94.8878 15.3291 95.9608 15.6612 97.3914 15.6612C98.935 15.6612 99.9892 15.3476 101.043 14.5544V15.4029H104.695C104.601 14.5728 104.563 13.9087 104.563 12.7835V7.80291C104.563 6.14272 104.036 5.12816 102.832 4.48252C102.097 4.09515 100.742 3.83689 99.3491 3.83689C97.5232 3.83689 96.1302 4.18738 95.1137 4.88835C94.3231 5.44175 93.909 6.03204 93.5325 7.12039L97.1279 7.69223C97.4103 6.78835 98.0503 6.40097 99.255 6.40097C100.497 6.40097 101.043 6.8068 101.043 7.69223V8.1165ZM101.043 10.9942C101.043 11.5476 100.799 12.0456 100.366 12.4146C99.8574 12.8388 99.0103 13.1155 98.2385 13.1155C97.2597 13.1155 96.6949 12.7282 96.6949 12.0641C96.6949 11.5291 97.1091 11.068 97.7867 10.8466C98.5585 10.6068 99.368 10.5146 101.043 10.4777V10.9942Z" fill="#52CC83"/>
<path d="M115.127 4.15048C114.242 3.96602 113.866 3.92913 113.263 3.92913C111.55 3.92913 110.421 4.42718 109.499 5.60777V4.15048H105.753C105.865 4.94369 105.903 5.58932 105.903 6.93592V12.6175C105.903 13.8165 105.865 14.4806 105.753 15.4029H109.649C109.536 14.5175 109.499 13.8165 109.499 12.6359V9.75825C109.574 8.9466 109.706 8.55922 110.063 8.1165C110.609 7.45243 111.343 7.12039 112.303 7.12039C112.887 7.12039 113.357 7.21262 114.223 7.47087L115.127 4.15048Z" fill="#52CC83"/>
<path d="M114.875 12.0456C115.063 12.9311 115.251 13.3738 115.628 13.8903C116.532 15.1078 118.207 15.735 120.579 15.735C122.593 15.735 124.136 15.2738 125.04 14.3883C125.661 13.7981 126 12.9126 126 11.935C126 10.6068 125.416 9.70291 124.193 9.11262C123.534 8.78058 122.95 8.61456 121.106 8.22718C119.242 7.82136 118.847 7.63689 118.847 7.13883C118.847 6.65922 119.449 6.34563 120.428 6.34563C121.445 6.34563 121.915 6.67767 122.009 7.43398L125.642 7.0466C125.341 6.01359 125.04 5.47864 124.419 4.94369C123.534 4.15048 122.198 3.76311 120.409 3.76311C117.266 3.76311 115.364 5.10971 115.364 7.3233C115.364 7.95049 115.534 8.57767 115.835 9.07573C116.193 9.62913 116.814 10.0534 117.717 10.3854C118.339 10.5883 119.073 10.7728 120.503 11.0495C121.539 11.2524 121.783 11.3262 122.047 11.4738C122.31 11.6214 122.461 11.8612 122.461 12.1379C122.461 12.7097 121.821 13.0233 120.692 13.0233C119.43 13.0233 118.79 12.599 118.602 11.6398L114.875 12.0456Z" fill="#52CC83"/>
</svg>
