<svg width="121" height="23" viewBox="0 0 121 23" fill="none" xmlns="http://www.w3.org/2000/svg">
<path d="M7.4 17L4.48 11.7H3.66V17H0.24V2.96H5.98C7.08667 2.96 8.02667 3.15333 8.8 3.54C9.58667 3.92667 10.1733 4.46 10.56 5.14C10.9467 5.80667 11.14 6.55333 11.14 7.38C11.14 8.31333 10.8733 9.14667 10.34 9.88C9.82 10.6133 9.04667 11.1333 8.02 11.44L11.26 17H7.4ZM3.66 9.28H5.78C6.40667 9.28 6.87333 9.12667 7.18 8.82C7.5 8.51333 7.66 8.08 7.66 7.52C7.66 6.98667 7.5 6.56667 7.18 6.26C6.87333 5.95333 6.40667 5.8 5.78 5.8H3.66V9.28ZM14.5069 4.68C13.9069 4.68 13.4135 4.50667 13.0269 4.16C12.6535 3.8 12.4669 3.36 12.4669 2.84C12.4669 2.30667 12.6535 1.86667 13.0269 1.52C13.4135 1.16 13.9069 0.979999 14.5069 0.979999C15.0935 0.979999 15.5735 1.16 15.9469 1.52C16.3335 1.86667 16.5269 2.30667 16.5269 2.84C16.5269 3.36 16.3335 3.8 15.9469 4.16C15.5735 4.50667 15.0935 4.68 14.5069 4.68ZM16.2069 5.84V17H12.7869V5.84H16.2069ZM17.5053 11.42C17.5053 10.26 17.7386 9.24667 18.2053 8.38C18.6853 7.51333 19.3453 6.84667 20.1853 6.38C21.0386 5.91333 22.012 5.68 23.1053 5.68C24.5053 5.68 25.672 6.04667 26.6053 6.78C27.552 7.51333 28.172 8.54667 28.4653 9.88H24.8253C24.5186 9.02667 23.9253 8.6 23.0453 8.6C22.4186 8.6 21.9186 8.84667 21.5453 9.34C21.172 9.82 20.9853 10.5133 20.9853 11.42C20.9853 12.3267 21.172 13.0267 21.5453 13.52C21.9186 14 22.4186 14.24 23.0453 14.24C23.9253 14.24 24.5186 13.8133 24.8253 12.96H28.4653C28.172 14.2667 27.552 15.2933 26.6053 16.04C25.6586 16.7867 24.492 17.16 23.1053 17.16C22.012 17.16 21.0386 16.9267 20.1853 16.46C19.3453 15.9933 18.6853 15.3267 18.2053 14.46C17.7386 13.5933 17.5053 12.58 17.5053 11.42ZM36.6547 5.72C37.9347 5.72 38.9614 6.14667 39.7347 7C40.508 7.84 40.8947 9 40.8947 10.48V17H37.4947V10.94C37.4947 10.1933 37.3014 9.61333 36.9147 9.2C36.528 8.78667 36.008 8.58 35.3547 8.58C34.7014 8.58 34.1814 8.78667 33.7947 9.2C33.408 9.61333 33.2147 10.1933 33.2147 10.94V17H29.7947V2.2H33.2147V7.34C33.5614 6.84667 34.0347 6.45333 34.6347 6.16C35.2347 5.86667 35.908 5.72 36.6547 5.72ZM48.2095 4.68C47.6095 4.68 47.1162 4.50667 46.7295 4.16C46.3562 3.8 46.1695 3.36 46.1695 2.84C46.1695 2.30667 46.3562 1.86667 46.7295 1.52C47.1162 1.16 47.6095 0.979999 48.2095 0.979999C48.7962 0.979999 49.2762 1.16 49.6495 1.52C50.0362 1.86667 50.2295 2.30667 50.2295 2.84C50.2295 3.36 50.0362 3.8 49.6495 4.16C49.2762 4.50667 48.7962 4.68 48.2095 4.68ZM49.9295 18.44C49.9295 19.8133 49.5829 20.8 48.8895 21.4C48.1962 22.0133 47.2295 22.32 45.9895 22.32H44.6495V19.42H45.4695C45.8429 19.42 46.1095 19.3467 46.2695 19.2C46.4295 19.0533 46.5095 18.8133 46.5095 18.48V5.84H49.9295V18.44ZM51.2084 11.4C51.2084 10.2533 51.4218 9.24667 51.8484 8.38C52.2884 7.51333 52.8818 6.84667 53.6284 6.38C54.3751 5.91333 55.2084 5.68 56.1284 5.68C56.9151 5.68 57.6018 5.84 58.1884 6.16C58.7884 6.48 59.2484 6.9 59.5684 7.42V5.84H62.9884V17H59.5684V15.42C59.2351 15.94 58.7684 16.36 58.1684 16.68C57.5818 17 56.8951 17.16 56.1084 17.16C55.2018 17.16 54.3751 16.9267 53.6284 16.46C52.8818 15.98 52.2884 15.3067 51.8484 14.44C51.4218 13.56 51.2084 12.5467 51.2084 11.4ZM59.5684 11.42C59.5684 10.5667 59.3284 9.89333 58.8484 9.4C58.3818 8.90667 57.8084 8.66 57.1284 8.66C56.4484 8.66 55.8684 8.90667 55.3884 9.4C54.9218 9.88 54.6884 10.5467 54.6884 11.4C54.6884 12.2533 54.9218 12.9333 55.3884 13.44C55.8684 13.9333 56.4484 14.18 57.1284 14.18C57.8084 14.18 58.3818 13.9333 58.8484 13.44C59.3284 12.9467 59.5684 12.2733 59.5684 11.42ZM69.2027 5.68C69.9893 5.68 70.676 5.84 71.2627 6.16C71.8627 6.48 72.3227 6.9 72.6427 7.42V5.84H76.0627V16.98C76.0627 18.0067 75.856 18.9333 75.4427 19.76C75.0427 20.6 74.4227 21.2667 73.5827 21.76C72.756 22.2533 71.7227 22.5 70.4827 22.5C68.8293 22.5 67.4893 22.1067 66.4627 21.32C65.436 20.5467 64.8493 19.4933 64.7027 18.16H68.0827C68.1893 18.5867 68.4427 18.92 68.8427 19.16C69.2427 19.4133 69.736 19.54 70.3227 19.54C71.0293 19.54 71.5893 19.3333 72.0027 18.92C72.4293 18.52 72.6427 17.8733 72.6427 16.98V15.4C72.3093 15.92 71.8493 16.3467 71.2627 16.68C70.676 17 69.9893 17.16 69.2027 17.16C68.2827 17.16 67.4493 16.9267 66.7027 16.46C65.956 15.98 65.3627 15.3067 64.9227 14.44C64.496 13.56 64.2827 12.5467 64.2827 11.4C64.2827 10.2533 64.496 9.24667 64.9227 8.38C65.3627 7.51333 65.956 6.84667 66.7027 6.38C67.4493 5.91333 68.2827 5.68 69.2027 5.68ZM72.6427 11.42C72.6427 10.5667 72.4027 9.89333 71.9227 9.4C71.456 8.90667 70.8827 8.66 70.2027 8.66C69.5227 8.66 68.9427 8.90667 68.4627 9.4C67.996 9.88 67.7627 10.5467 67.7627 11.4C67.7627 12.2533 67.996 12.9333 68.4627 13.44C68.9427 13.9333 69.5227 14.18 70.2027 14.18C70.8827 14.18 71.456 13.9333 71.9227 13.44C72.4027 12.9467 72.6427 12.2733 72.6427 11.42ZM89.0569 5.84V17H85.6369V15.48C85.2902 15.9733 84.8169 16.3733 84.2169 16.68C83.6302 16.9733 82.9769 17.12 82.2569 17.12C81.4035 17.12 80.6502 16.9333 79.9969 16.56C79.3435 16.1733 78.8369 15.62 78.4769 14.9C78.1169 14.18 77.9369 13.3333 77.9369 12.36V5.84H81.3369V11.9C81.3369 12.6467 81.5302 13.2267 81.9169 13.64C82.3035 14.0533 82.8235 14.26 83.4769 14.26C84.1435 14.26 84.6702 14.0533 85.0569 13.64C85.4435 13.2267 85.6369 12.6467 85.6369 11.9V5.84H89.0569ZM90.3334 11.4C90.3334 10.2533 90.5468 9.24667 90.9734 8.38C91.4134 7.51333 92.0068 6.84667 92.7534 6.38C93.5001 5.91333 94.3334 5.68 95.2534 5.68C96.0401 5.68 96.7268 5.84 97.3134 6.16C97.9134 6.48 98.3734 6.9 98.6934 7.42V5.84H102.113V17H98.6934V15.42C98.3601 15.94 97.8934 16.36 97.2934 16.68C96.7068 17 96.0201 17.16 95.2334 17.16C94.3268 17.16 93.5001 16.9267 92.7534 16.46C92.0068 15.98 91.4134 15.3067 90.9734 14.44C90.5468 13.56 90.3334 12.5467 90.3334 11.4ZM98.6934 11.42C98.6934 10.5667 98.4534 9.89333 97.9734 9.4C97.5068 8.90667 96.9334 8.66 96.2534 8.66C95.5734 8.66 94.9934 8.90667 94.5134 9.4C94.0468 9.88 93.8134 10.5467 93.8134 11.4C93.8134 12.2533 94.0468 12.9333 94.5134 13.44C94.9934 13.9333 95.5734 14.18 96.2534 14.18C96.9334 14.18 97.5068 13.9333 97.9734 13.44C98.4534 12.9467 98.6934 12.2733 98.6934 11.42ZM107.508 7.7C107.908 7.08667 108.408 6.60667 109.008 6.26C109.608 5.9 110.274 5.72 111.008 5.72V9.34H110.068C109.214 9.34 108.574 9.52667 108.148 9.9C107.721 10.26 107.508 10.9 107.508 11.82V17H104.088V5.84H107.508V7.7ZM115.342 14.18H120.182V17H111.522V14.28L116.162 8.66H111.562V5.84H120.082V8.56L115.342 14.18Z" fill="#52CC83"/>
</svg>
