<svg width="152" height="27" viewBox="0 0 152 27" fill="none" xmlns="http://www.w3.org/2000/svg">
<path d="M9.08 20L5.576 13.64H4.592V20H0.488V3.152H7.376C8.704 3.152 9.832 3.384 10.76 3.848C11.704 4.312 12.408 4.952 12.872 5.768C13.336 6.568 13.568 7.464 13.568 8.456C13.568 9.576 13.248 10.576 12.608 11.456C11.984 12.336 11.056 12.96 9.824 13.328L13.712 20H9.08ZM4.592 10.736H7.136C7.888 10.736 8.448 10.552 8.816 10.184C9.2 9.816 9.392 9.296 9.392 8.624C9.392 7.984 9.2 7.48 8.816 7.112C8.448 6.744 7.888 6.56 7.136 6.56H4.592V10.736ZM17.6082 5.216C16.8882 5.216 16.2962 5.008 15.8322 4.592C15.3842 4.16 15.1602 3.632 15.1602 3.008C15.1602 2.368 15.3842 1.84 15.8322 1.424C16.2962 0.991999 16.8882 0.775999 17.6082 0.775999C18.3122 0.775999 18.8882 0.991999 19.3362 1.424C19.8002 1.84 20.0322 2.368 20.0322 3.008C20.0322 3.632 19.8002 4.16 19.3362 4.592C18.8882 5.008 18.3122 5.216 17.6082 5.216ZM19.6482 6.608V20H15.5442V6.608H19.6482ZM21.2064 13.304C21.2064 11.912 21.4864 10.696 22.0464 9.656C22.6224 8.616 23.4144 7.816 24.4224 7.256C25.4464 6.696 26.6144 6.416 27.9264 6.416C29.6064 6.416 31.0064 6.856 32.1264 7.736C33.2624 8.616 34.0064 9.856 34.3584 11.456H29.9904C29.6224 10.432 28.9104 9.92 27.8544 9.92C27.1024 9.92 26.5024 10.216 26.0544 10.808C25.6064 11.384 25.3824 12.216 25.3824 13.304C25.3824 14.392 25.6064 15.232 26.0544 15.824C26.5024 16.4 27.1024 16.688 27.8544 16.688C28.9104 16.688 29.6224 16.176 29.9904 15.152H34.3584C34.0064 16.72 33.2624 17.952 32.1264 18.848C30.9904 19.744 29.5904 20.192 27.9264 20.192C26.6144 20.192 25.4464 19.912 24.4224 19.352C23.4144 18.792 22.6224 17.992 22.0464 16.952C21.4864 15.912 21.2064 14.696 21.2064 13.304ZM44.1856 6.464C45.7216 6.464 46.9536 6.976 47.8816 8C48.8096 9.008 49.2736 10.4 49.2736 12.176V20H45.1936V12.728C45.1936 11.832 44.9616 11.136 44.4976 10.64C44.0336 10.144 43.4096 9.896 42.6256 9.896C41.8416 9.896 41.2176 10.144 40.7536 10.64C40.2896 11.136 40.0576 11.832 40.0576 12.728V20H35.9536V2.24H40.0576V8.408C40.4736 7.816 41.0416 7.344 41.7616 6.992C42.4816 6.64 43.2896 6.464 44.1856 6.464ZM66.5714 3.152V14.624C66.5714 16.4 66.0674 17.768 65.0594 18.728C64.0674 19.688 62.7234 20.168 61.0274 20.168C59.2514 20.168 57.8274 19.664 56.7554 18.656C55.6834 17.648 55.1474 16.216 55.1474 14.36H59.2274C59.2274 15.064 59.3714 15.6 59.6594 15.968C59.9474 16.32 60.3634 16.496 60.9074 16.496C61.4034 16.496 61.7874 16.336 62.0594 16.016C62.3314 15.696 62.4674 15.232 62.4674 14.624V3.152H66.5714ZM68.4704 13.28C68.4704 11.904 68.7264 10.696 69.2384 9.656C69.7664 8.616 70.4784 7.816 71.3744 7.256C72.2704 6.696 73.2704 6.416 74.3744 6.416C75.3184 6.416 76.1424 6.608 76.8464 6.992C77.5664 7.376 78.1184 7.88 78.5024 8.504V6.608H82.6064V20H78.5024V18.104C78.1024 18.728 77.5424 19.232 76.8224 19.616C76.1184 20 75.2944 20.192 74.3504 20.192C73.2624 20.192 72.2704 19.912 71.3744 19.352C70.4784 18.776 69.7664 17.968 69.2384 16.928C68.7264 15.872 68.4704 14.656 68.4704 13.28ZM78.5024 13.304C78.5024 12.28 78.2144 11.472 77.6384 10.88C77.0784 10.288 76.3904 9.992 75.5744 9.992C74.7584 9.992 74.0624 10.288 73.4864 10.88C72.9264 11.456 72.6464 12.256 72.6464 13.28C72.6464 14.304 72.9264 15.12 73.4864 15.728C74.0624 16.32 74.7584 16.616 75.5744 16.616C76.3904 16.616 77.0784 16.32 77.6384 15.728C78.2144 15.136 78.5024 14.328 78.5024 13.304ZM90.0635 6.416C91.0075 6.416 91.8315 6.608 92.5355 6.992C93.2555 7.376 93.8075 7.88 94.1915 8.504V6.608H98.2955V19.976C98.2955 21.208 98.0475 22.32 97.5515 23.312C97.0715 24.32 96.3275 25.12 95.3195 25.712C94.3275 26.304 93.0875 26.6 91.5995 26.6C89.6155 26.6 88.0075 26.128 86.7755 25.184C85.5435 24.256 84.8395 22.992 84.6635 21.392H88.7195C88.8475 21.904 89.1515 22.304 89.6315 22.592C90.1115 22.896 90.7035 23.048 91.4075 23.048C92.2555 23.048 92.9275 22.8 93.4235 22.304C93.9355 21.824 94.1915 21.048 94.1915 19.976V18.08C93.7915 18.704 93.2395 19.216 92.5355 19.616C91.8315 20 91.0075 20.192 90.0635 20.192C88.9595 20.192 87.9595 19.912 87.0635 19.352C86.1675 18.776 85.4555 17.968 84.9275 16.928C84.4155 15.872 84.1595 14.656 84.1595 13.28C84.1595 11.904 84.4155 10.696 84.9275 9.656C85.4555 8.616 86.1675 7.816 87.0635 7.256C87.9595 6.696 88.9595 6.416 90.0635 6.416ZM94.1915 13.304C94.1915 12.28 93.9035 11.472 93.3275 10.88C92.7675 10.288 92.0795 9.992 91.2635 9.992C90.4475 9.992 89.7515 10.288 89.1755 10.88C88.6155 11.456 88.3355 12.256 88.3355 13.28C88.3355 14.304 88.6155 15.12 89.1755 15.728C89.7515 16.32 90.4475 16.616 91.2635 16.616C92.0795 16.616 92.7675 16.32 93.3275 15.728C93.9035 15.136 94.1915 14.328 94.1915 13.304ZM113.889 6.608V20H109.785V18.176C109.369 18.768 108.801 19.248 108.081 19.616C107.377 19.968 106.593 20.144 105.729 20.144C104.705 20.144 103.801 19.92 103.017 19.472C102.233 19.008 101.625 18.344 101.193 17.48C100.761 16.616 100.545 15.6 100.545 14.432V6.608H104.625V13.88C104.625 14.776 104.857 15.472 105.321 15.968C105.785 16.464 106.409 16.712 107.193 16.712C107.993 16.712 108.625 16.464 109.089 15.968C109.553 15.472 109.785 14.776 109.785 13.88V6.608H113.889ZM115.42 13.28C115.42 11.904 115.676 10.696 116.188 9.656C116.716 8.616 117.428 7.816 118.324 7.256C119.22 6.696 120.22 6.416 121.324 6.416C122.268 6.416 123.092 6.608 123.796 6.992C124.516 7.376 125.068 7.88 125.452 8.504V6.608H129.556V20H125.452V18.104C125.052 18.728 124.492 19.232 123.772 19.616C123.068 20 122.244 20.192 121.3 20.192C120.212 20.192 119.22 19.912 118.324 19.352C117.428 18.776 116.716 17.968 116.188 16.928C115.676 15.872 115.42 14.656 115.42 13.28ZM125.452 13.304C125.452 12.28 125.164 11.472 124.588 10.88C124.028 10.288 123.34 9.992 122.524 9.992C121.708 9.992 121.012 10.288 120.436 10.88C119.876 11.456 119.596 12.256 119.596 13.28C119.596 14.304 119.876 15.12 120.436 15.728C121.012 16.32 121.708 16.616 122.524 16.616C123.34 16.616 124.028 16.32 124.588 15.728C125.164 15.136 125.452 14.328 125.452 13.304ZM136.03 8.84C136.51 8.104 137.11 7.528 137.83 7.112C138.55 6.68 139.35 6.464 140.23 6.464V10.808H139.102C138.078 10.808 137.31 11.032 136.798 11.48C136.286 11.912 136.03 12.68 136.03 13.784V20H131.926V6.608H136.03V8.84ZM145.431 16.616H151.239V20H140.847V16.736L146.415 9.992H140.895V6.608H151.119V9.872L145.431 16.616Z" fill="#52CC83"/>
<path d="M9.08 20L8.90483 20.0965L8.96184 20.2H9.08V20ZM5.576 13.64L5.75117 13.5435L5.69416 13.44H5.576V13.64ZM4.592 13.64V13.44H4.392V13.64H4.592ZM4.592 20V20.2H4.792V20H4.592ZM0.488 20H0.288V20.2H0.488V20ZM0.488 3.152V2.952H0.288V3.152H0.488ZM10.76 3.848L10.6706 4.02689L10.6718 4.02749L10.76 3.848ZM12.872 5.768L12.6981 5.86686L12.699 5.86834L12.872 5.768ZM12.608 11.456L12.4462 11.3384L12.4449 11.3403L12.608 11.456ZM9.824 13.328L9.76676 13.1364L9.52324 13.2091L9.6512 13.4287L9.824 13.328ZM13.712 20V20.2H14.06L13.8848 19.8993L13.712 20ZM4.592 10.736H4.392V10.936H4.592V10.736ZM8.816 10.184L8.67759 10.0396L8.67458 10.0426L8.816 10.184ZM8.816 7.112L8.67455 7.25345L8.67762 7.2564L8.816 7.112ZM4.592 6.56V6.36H4.392V6.56H4.592ZM9.25517 19.9035L5.75117 13.5435L5.40083 13.7365L8.90483 20.0965L9.25517 19.9035ZM5.576 13.44H4.592V13.84H5.576V13.44ZM4.392 13.64V20H4.792V13.64H4.392ZM4.592 19.8H0.488V20.2H4.592V19.8ZM0.688 20V3.152H0.288V20H0.688ZM0.488 3.352H7.376V2.952H0.488V3.352ZM7.376 3.352C8.68138 3.352 9.77699 3.5801 10.6706 4.02688L10.8494 3.66911C9.88701 3.1879 8.72662 2.952 7.376 2.952V3.352ZM10.6718 4.02749C11.5843 4.47602 12.2563 5.08983 12.6981 5.86686L13.0459 5.66914C12.5597 4.81417 11.8237 4.14798 10.8482 3.66851L10.6718 4.02749ZM12.699 5.86834C13.144 6.63564 13.368 7.49659 13.368 8.456H13.768C13.768 7.43141 13.528 6.50035 13.045 5.66765L12.699 5.86834ZM13.368 8.456C13.368 9.53506 13.0606 10.4936 12.4463 11.3384L12.7697 11.5736C13.4354 10.6584 13.768 9.61694 13.768 8.456H13.368ZM12.4449 11.3403C11.8514 12.1772 10.9645 12.7786 9.76676 13.1364L9.88124 13.5196C11.1475 13.1414 12.1166 12.4947 12.7711 11.5717L12.4449 11.3403ZM9.6512 13.4287L13.5392 20.1007L13.8848 19.8993L9.9968 13.2273L9.6512 13.4287ZM13.712 19.8H9.08V20.2H13.712V19.8ZM4.592 10.936H7.136V10.536H4.592V10.936ZM7.136 10.936C7.91738 10.936 8.53797 10.7449 8.95742 10.3254L8.67458 10.0426C8.35803 10.3591 7.85863 10.536 7.136 10.536V10.936ZM8.95438 10.3284C9.38752 9.9133 9.592 9.3353 9.592 8.624H9.192C9.192 9.2567 9.01248 9.7187 8.67762 10.0396L8.95438 10.3284ZM9.592 8.624C9.592 7.94141 9.3856 7.38085 8.95438 6.9676L8.67762 7.2564C9.0144 7.57915 9.192 8.02659 9.192 8.624H9.592ZM8.95742 6.97058C8.53797 6.55112 7.91738 6.36 7.136 6.36V6.76C7.85863 6.76 8.35803 6.93688 8.67458 7.25342L8.95742 6.97058ZM7.136 6.36H4.592V6.76H7.136V6.36ZM4.392 6.56V10.736H4.792V6.56H4.392ZM15.8322 4.592L15.6933 4.73606L15.6987 4.74091L15.8322 4.592ZM15.8322 1.424L15.9683 1.57056L15.9685 1.57038L15.8322 1.424ZM19.3362 1.424L19.1973 1.56806L19.2027 1.57291L19.3362 1.424ZM19.3362 4.592L19.4723 4.73856L19.4725 4.73838L19.3362 4.592ZM19.6482 6.608H19.8482V6.408H19.6482V6.608ZM19.6482 20V20.2H19.8482V20H19.6482ZM15.5442 20H15.3442V20.2H15.5442V20ZM15.5442 6.608V6.408H15.3442V6.608H15.5442ZM17.6082 5.016C16.9294 5.016 16.3874 4.82112 15.9658 4.44309L15.6987 4.74091C16.2051 5.19487 16.8471 5.416 17.6082 5.416V5.016ZM15.9711 4.44803C15.5623 4.05384 15.3602 3.57786 15.3602 3.008H14.9602C14.9602 3.68614 15.2062 4.26616 15.6934 4.73597L15.9711 4.44803ZM15.3602 3.008C15.3602 2.42068 15.5632 1.94676 15.9683 1.57056L15.6962 1.27744C15.2053 1.73324 14.9602 2.31532 14.9602 3.008H15.3602ZM15.9685 1.57038C16.3904 1.17756 16.9314 0.975999 17.6082 0.975999V0.575999C16.8451 0.575999 16.2021 0.806433 15.696 1.27762L15.9685 1.57038ZM17.6082 0.975999C18.2678 0.975999 18.7917 1.17672 19.1974 1.56797L19.4751 1.28003C18.9848 0.807279 18.3567 0.575999 17.6082 0.575999V0.975999ZM19.2027 1.57291C19.6231 1.94982 19.8322 2.42308 19.8322 3.008H20.2322C20.2322 2.31292 19.9774 1.73017 19.4698 1.27509L19.2027 1.57291ZM19.8322 3.008C19.8322 3.57548 19.6241 4.05077 19.2 4.44562L19.4725 4.73838C19.9764 4.26923 20.2322 3.68852 20.2322 3.008H19.8322ZM19.2002 4.44544C18.7948 4.82189 18.27 5.016 17.6082 5.016V5.416C18.3545 5.416 18.9817 5.19411 19.4723 4.73856L19.2002 4.44544ZM19.4482 6.608V20H19.8482V6.608H19.4482ZM19.6482 19.8H15.5442V20.2H19.6482V19.8ZM15.7442 20V6.608H15.3442V20H15.7442ZM15.5442 6.808H19.6482V6.408H15.5442V6.808ZM22.0464 9.656L21.8714 9.55909L21.8703 9.56118L22.0464 9.656ZM24.4224 7.256L24.3264 7.08052L24.3252 7.08117L24.4224 7.256ZM32.1264 7.736L32.0028 7.89327L32.0039 7.89411L32.1264 7.736ZM34.3584 11.456V11.656H34.6072L34.5537 11.413L34.3584 11.456ZM29.9904 11.456L29.8022 11.5236L29.8497 11.656H29.9904V11.456ZM26.0544 10.808L26.2123 10.9308L26.2139 10.9287L26.0544 10.808ZM26.0544 15.824L25.8949 15.9447L25.8965 15.9468L26.0544 15.824ZM29.9904 15.152V14.952H29.8497L29.8022 15.0844L29.9904 15.152ZM34.3584 15.152L34.5535 15.1958L34.6083 14.952H34.3584V15.152ZM32.1264 18.848L32.0025 18.691L32.0025 18.691L32.1264 18.848ZM24.4224 19.352L24.3252 19.5268L24.3264 19.5275L24.4224 19.352ZM22.0464 16.952L21.8703 17.0468L21.8714 17.0489L22.0464 16.952ZM21.4064 13.304C21.4064 11.9392 21.6807 10.7569 22.2225 9.75082L21.8703 9.56118C21.292 10.6351 21.0064 11.8848 21.0064 13.304H21.4064ZM22.2213 9.7529C22.7798 8.74458 23.5453 7.97207 24.5195 7.43083L24.3252 7.08117C23.2835 7.65993 22.465 8.48742 21.8714 9.5591L22.2213 9.7529ZM24.5183 7.43147C25.5094 6.88948 26.6437 6.616 27.9264 6.616V6.216C26.5851 6.216 25.3833 6.50252 24.3264 7.08053L24.5183 7.43147ZM27.9264 6.616C29.5699 6.616 30.9241 7.04571 32.0028 7.89326L32.2499 7.57874C31.0886 6.66629 29.6428 6.216 27.9264 6.216V6.616ZM32.0039 7.89411C33.0977 8.74146 33.8196 9.93791 34.163 11.499L34.5537 11.413C34.1931 9.77409 33.427 8.49054 32.2489 7.57789L32.0039 7.89411ZM34.3584 11.256H29.9904V11.656H34.3584V11.256ZM30.1786 11.3884C29.9842 10.8475 29.6931 10.4264 29.2971 10.1416C28.9006 9.85651 28.4155 9.72 27.8544 9.72V10.12C28.3492 10.12 28.7481 10.2395 29.0636 10.4664C29.3796 10.6936 29.6285 11.0405 29.8022 11.5236L30.1786 11.3884ZM27.8544 9.72C27.0407 9.72 26.3813 10.0446 25.8949 10.6873L26.2139 10.9287C26.6235 10.3874 27.1641 10.12 27.8544 10.12V9.72ZM25.8965 10.6852C25.4107 11.3099 25.1824 12.1924 25.1824 13.304H25.5824C25.5824 12.2396 25.8021 11.4581 26.2122 10.9308L25.8965 10.6852ZM25.1824 13.304C25.1824 14.4161 25.4109 15.3051 25.8949 15.9447L26.2139 15.7033C25.8019 15.1589 25.5824 14.3679 25.5824 13.304H25.1824ZM25.8965 15.9468C26.3837 16.5732 27.0429 16.888 27.8544 16.888V16.488C27.1619 16.488 26.621 16.2268 26.2122 15.7012L25.8965 15.9468ZM27.8544 16.888C28.4155 16.888 28.9006 16.7515 29.2971 16.4664C29.6931 16.1816 29.9842 15.7605 30.1786 15.2196L29.8022 15.0844C29.6285 15.5675 29.3796 15.9144 29.0636 16.1416C28.7481 16.3685 28.3492 16.488 27.8544 16.488V16.888ZM29.9904 15.352H34.3584V14.952H29.9904V15.352ZM34.1632 15.1082C33.8201 16.6367 33.0984 17.8266 32.0025 18.691L32.2502 19.005C33.4263 18.0774 34.1926 16.8033 34.5535 15.1958L34.1632 15.1082ZM32.0025 18.691C30.907 19.5551 29.5525 19.992 27.9264 19.992V20.392C29.6282 20.392 31.0738 19.9329 32.2502 19.005L32.0025 18.691ZM27.9264 19.992C26.6437 19.992 25.5094 19.7185 24.5183 19.1765L24.3264 19.5275C25.3833 20.1055 26.5851 20.392 27.9264 20.392V19.992ZM24.5195 19.1772C23.5453 18.6359 22.7798 17.8634 22.2213 16.8551L21.8714 17.0489C22.465 18.1206 23.2835 18.9481 24.3252 19.5268L24.5195 19.1772ZM22.2225 16.8572C21.6807 15.8511 21.4064 14.6688 21.4064 13.304H21.0064C21.0064 14.7232 21.292 15.9729 21.8703 17.0468L22.2225 16.8572ZM47.8816 8L47.7334 8.13431L47.7345 8.13546L47.8816 8ZM49.2736 20V20.2H49.4736V20H49.2736ZM45.1936 20H44.9936V20.2H45.1936V20ZM44.4976 10.64L44.3516 10.7766L44.3516 10.7766L44.4976 10.64ZM40.7536 10.64L40.8997 10.7766L40.8997 10.7766L40.7536 10.64ZM40.0576 20V20.2H40.2576V20H40.0576ZM35.9536 20H35.7536V20.2H35.9536V20ZM35.9536 2.24V2.04H35.7536V2.24H35.9536ZM40.0576 2.24H40.2576V2.04H40.0576V2.24ZM40.0576 8.408H39.8576V9.04047L40.2213 8.52299L40.0576 8.408ZM41.7616 6.992L41.6738 6.81232L41.6738 6.81232L41.7616 6.992ZM44.1856 6.664C45.6722 6.664 46.8478 7.15706 47.7334 8.1343L48.0298 7.8657C47.0594 6.79494 45.7711 6.264 44.1856 6.264V6.664ZM47.7345 8.13546C48.6194 9.09663 49.0736 10.4349 49.0736 12.176H49.4736C49.4736 10.3651 48.9999 8.91937 48.0288 7.86454L47.7345 8.13546ZM49.0736 12.176V20H49.4736V12.176H49.0736ZM49.2736 19.8H45.1936V20.2H49.2736V19.8ZM45.3936 20V12.728H44.9936V20H45.3936ZM45.3936 12.728C45.3936 11.7979 45.1522 11.047 44.6437 10.5034L44.3516 10.7766C44.771 11.225 44.9936 11.8661 44.9936 12.728H45.3936ZM44.6437 10.5034C44.1359 9.96059 43.4556 9.696 42.6256 9.696V10.096C43.3636 10.096 43.9313 10.3274 44.3516 10.7766L44.6437 10.5034ZM42.6256 9.696C41.7956 9.696 41.1153 9.96059 40.6076 10.5034L40.8997 10.7766C41.3199 10.3274 41.8876 10.096 42.6256 10.096V9.696ZM40.6076 10.5034C40.099 11.047 39.8576 11.7979 39.8576 12.728H40.2576C40.2576 11.8661 40.4802 11.225 40.8997 10.7766L40.6076 10.5034ZM39.8576 12.728V20H40.2576V12.728H39.8576ZM40.0576 19.8H35.9536V20.2H40.0576V19.8ZM36.1536 20V2.24H35.7536V20H36.1536ZM35.9536 2.44H40.0576V2.04H35.9536V2.44ZM39.8576 2.24V8.408H40.2576V2.24H39.8576ZM40.2213 8.52299C40.6158 7.96148 41.1565 7.51048 41.8495 7.17168L41.6738 6.81232C40.9268 7.17752 40.3314 7.67051 39.894 8.29301L40.2213 8.52299ZM41.8495 7.17168C42.539 6.83455 43.3164 6.664 44.1856 6.664V6.264C43.2628 6.264 42.4242 6.44544 41.6738 6.81232L41.8495 7.17168ZM66.5714 3.152H66.7714V2.952H66.5714V3.152ZM65.0594 18.728L64.9215 18.5832L64.9204 18.5843L65.0594 18.728ZM56.7554 18.656L56.6184 18.8017L56.6184 18.8017L56.7554 18.656ZM55.1474 14.36V14.16H54.9474V14.36H55.1474ZM59.2274 14.36H59.4274V14.16H59.2274V14.36ZM59.6594 15.968L59.5019 16.0913L59.5046 16.0946L59.6594 15.968ZM62.0594 16.016L61.907 15.8865L61.907 15.8865L62.0594 16.016ZM62.4674 3.152V2.952H62.2674V3.152H62.4674ZM66.3714 3.152V14.624H66.7714V3.152H66.3714ZM66.3714 14.624C66.3714 16.3612 65.8796 17.6707 64.9215 18.5832L65.1974 18.8728C66.2552 17.8653 66.7714 16.4388 66.7714 14.624H66.3714ZM64.9204 18.5843C63.9738 19.5003 62.6841 19.968 61.0274 19.968V20.368C62.7628 20.368 64.1611 19.8757 65.1985 18.8717L64.9204 18.5843ZM61.0274 19.968C59.2912 19.968 57.92 19.4765 56.8924 18.5103L56.6184 18.8017C57.7349 19.8515 59.2117 20.368 61.0274 20.368V19.968ZM56.8924 18.5103C55.8706 17.5495 55.3474 16.1762 55.3474 14.36H54.9474C54.9474 16.2558 55.4963 17.7465 56.6184 18.8017L56.8924 18.5103ZM55.1474 14.56H59.2274V14.16H55.1474V14.56ZM59.0274 14.36C59.0274 15.0871 59.1755 15.6742 59.5019 16.0913L59.8169 15.8447C59.5673 15.5258 59.4274 15.0409 59.4274 14.36H59.0274ZM59.5046 16.0946C59.8382 16.5023 60.3165 16.696 60.9074 16.696V16.296C60.4104 16.296 60.0567 16.1377 59.8142 15.8414L59.5046 16.0946ZM60.9074 16.696C61.4504 16.696 61.8948 16.5185 62.2118 16.1455L61.907 15.8865C61.68 16.1535 61.3565 16.296 60.9074 16.296V16.696ZM62.2118 16.1455C62.5258 15.7762 62.6674 15.2587 62.6674 14.624H62.2674C62.2674 15.2053 62.1371 15.6158 61.907 15.8865L62.2118 16.1455ZM62.6674 14.624V3.152H62.2674V14.624H62.6674ZM62.4674 3.352H66.5714V2.952H62.4674V3.352ZM69.2384 9.656L69.0601 9.56545L69.059 9.56766L69.2384 9.656ZM71.3744 7.256L71.4804 7.4256L71.4804 7.4256L71.3744 7.256ZM76.8464 6.992L76.7507 7.16759L76.7523 7.16847L76.8464 6.992ZM78.5024 8.504L78.3321 8.60882L78.7024 9.21061V8.504H78.5024ZM78.5024 6.608V6.408H78.3024V6.608H78.5024ZM82.6064 6.608H82.8064V6.408H82.6064V6.608ZM82.6064 20V20.2H82.8064V20H82.6064ZM78.5024 20H78.3024V20.2H78.5024V20ZM78.5024 18.104H78.7024V17.4214L78.3341 17.9961L78.5024 18.104ZM76.8224 19.616L76.7283 19.4395L76.7267 19.4404L76.8224 19.616ZM71.3744 19.352L71.2663 19.5202L71.2684 19.5216L71.3744 19.352ZM69.2384 16.928L69.0584 17.0153L69.0601 17.0185L69.2384 16.928ZM77.6384 10.88L77.4931 11.0175L77.4951 11.0195L77.6384 10.88ZM73.4864 10.88L73.3431 10.7405L73.343 10.7406L73.4864 10.88ZM73.4864 15.728L73.3393 15.8635L73.3431 15.8675L73.4864 15.728ZM77.6384 15.728L77.4951 15.5885L77.4931 15.5906L77.6384 15.728ZM68.6704 13.28C68.6704 11.9289 68.9217 10.7522 69.4179 9.74434L69.059 9.56766C68.5312 10.6398 68.2704 11.8791 68.2704 13.28H68.6704ZM69.4168 9.74654C69.9301 8.73551 70.6184 7.96435 71.4804 7.4256L71.2684 7.0864C70.3384 7.66765 69.6028 8.49649 69.0601 9.56546L69.4168 9.74654ZM71.4804 7.4256C72.3432 6.88638 73.3062 6.616 74.3744 6.616V6.216C73.2347 6.216 72.1977 6.50562 71.2684 7.0864L71.4804 7.4256ZM74.3744 6.616C75.2909 6.616 76.0809 6.80222 76.7507 7.16758L76.9422 6.81642C76.204 6.41377 75.346 6.216 74.3744 6.216V6.616ZM76.7523 7.16847C77.4447 7.53772 77.9688 8.01838 78.3321 8.60882L78.6728 8.39918C78.2681 7.74162 77.6882 7.21428 76.9406 6.81553L76.7523 7.16847ZM78.7024 8.504V6.608H78.3024V8.504H78.7024ZM78.5024 6.808H82.6064V6.408H78.5024V6.808ZM82.4064 6.608V20H82.8064V6.608H82.4064ZM82.6064 19.8H78.5024V20.2H82.6064V19.8ZM78.7024 20V18.104H78.3024V20H78.7024ZM78.3341 17.9961C77.9544 18.5884 77.4212 19.07 76.7283 19.4395L76.9166 19.7925C77.6636 19.394 78.2505 18.8676 78.6708 18.2119L78.3341 17.9961ZM76.7267 19.4404C76.0569 19.8058 75.2669 19.992 74.3504 19.992V20.392C75.322 20.392 76.18 20.1942 76.9182 19.7916L76.7267 19.4404ZM74.3504 19.992C73.2988 19.992 72.3437 19.7219 71.4804 19.1824L71.2684 19.5216C72.1972 20.1021 73.2261 20.392 74.3504 20.392V19.992ZM71.4826 19.1838C70.6193 18.6288 69.9303 17.8489 69.4168 16.8375L69.0601 17.0185C69.6026 18.0871 70.3376 18.9232 71.2663 19.5202L71.4826 19.1838ZM69.4184 16.8407C68.9217 15.8163 68.6704 14.631 68.6704 13.28H68.2704C68.2704 14.681 68.5312 15.9277 69.0585 17.0153L69.4184 16.8407ZM78.7024 13.304C78.7024 12.2411 78.4024 11.3783 77.7818 10.7405L77.4951 11.0195C78.0265 11.5657 78.3024 12.3189 78.3024 13.304H78.7024ZM77.7837 10.7426C77.1859 10.1106 76.4453 9.792 75.5744 9.792V10.192C76.3356 10.192 76.971 10.4654 77.4931 11.0174L77.7837 10.7426ZM75.5744 9.792C74.7037 9.792 73.9562 10.1104 73.3431 10.7405L73.6298 11.0195C74.1687 10.4656 74.8132 10.192 75.5744 10.192V9.792ZM73.343 10.7406C72.7375 11.3634 72.4464 12.2189 72.4464 13.28H72.8464C72.8464 12.2931 73.1154 11.5486 73.6298 11.0194L73.343 10.7406ZM72.4464 13.28C72.4464 14.3417 72.7377 15.2103 73.3393 15.8635L73.6335 15.5925C73.1152 15.0297 72.8464 14.2663 72.8464 13.28H72.4464ZM73.3431 15.8675C73.9562 16.4976 74.7037 16.816 75.5744 16.816V16.416C74.8132 16.416 74.1687 16.1424 73.6298 15.5885L73.3431 15.8675ZM75.5744 16.816C76.4453 16.816 77.1859 16.4974 77.7837 15.8654L77.4931 15.5906C76.971 16.1426 76.3356 16.416 75.5744 16.416V16.816ZM77.7818 15.8675C78.4024 15.2297 78.7024 14.3669 78.7024 13.304H78.3024C78.3024 14.2891 78.0265 15.0423 77.4951 15.5885L77.7818 15.8675ZM92.5355 6.992L92.4397 7.16759L92.4414 7.16847L92.5355 6.992ZM94.1915 8.504L94.0212 8.60882L94.3915 9.21061V8.504H94.1915ZM94.1915 6.608V6.408H93.9915V6.608H94.1915ZM98.2955 6.608H98.4955V6.408H98.2955V6.608ZM97.5515 23.312L97.3726 23.2225L97.3709 23.226L97.5515 23.312ZM95.3195 25.712L95.2182 25.5395L95.217 25.5403L95.3195 25.712ZM86.7755 25.184L86.8972 25.0252L86.8958 25.0242L86.7755 25.184ZM84.6635 21.392V21.192H84.4403L84.4647 21.4139L84.6635 21.392ZM88.7195 21.392L88.9135 21.3435L88.8757 21.192H88.7195V21.392ZM89.6315 22.592L89.7385 22.423L89.7344 22.4205L89.6315 22.592ZM93.4235 22.304L93.2866 22.158L93.2821 22.1626L93.4235 22.304ZM94.1915 18.08H94.3915V17.3974L94.0231 17.9721L94.1915 18.08ZM92.5355 19.616L92.6313 19.7916L92.6343 19.7899L92.5355 19.616ZM87.0635 19.352L86.9553 19.5202L86.9575 19.5216L87.0635 19.352ZM84.9275 16.928L84.7475 17.0153L84.7492 17.0185L84.9275 16.928ZM84.9275 9.656L84.7492 9.56545L84.7481 9.56766L84.9275 9.656ZM87.0635 7.256L87.1695 7.4256L87.1695 7.4256L87.0635 7.256ZM93.3275 10.88L93.1822 11.0175L93.1842 11.0195L93.3275 10.88ZM89.1755 10.88L89.0322 10.7405L89.0321 10.7406L89.1755 10.88ZM89.1755 15.728L89.0283 15.8635L89.0322 15.8675L89.1755 15.728ZM93.3275 15.728L93.1841 15.5885L93.1822 15.5906L93.3275 15.728ZM90.0635 6.616C90.98 6.616 91.7699 6.80222 92.4397 7.16758L92.6313 6.81642C91.8931 6.41377 91.035 6.216 90.0635 6.216V6.616ZM92.4414 7.16847C93.1337 7.53772 93.6578 8.01838 94.0212 8.60882L94.3618 8.39918C93.9572 7.74162 93.3773 7.21428 92.6296 6.81553L92.4414 7.16847ZM94.3915 8.504V6.608H93.9915V8.504H94.3915ZM94.1915 6.808H98.2955V6.408H94.1915V6.808ZM98.0955 6.608V19.976H98.4955V6.608H98.0955ZM98.0955 19.976C98.0955 21.1804 97.8533 22.2613 97.3726 23.2226L97.7304 23.4014C98.2418 22.3787 98.4955 21.2356 98.4955 19.976H98.0955ZM97.3709 23.226C96.909 24.1962 96.1935 24.9668 95.2182 25.5395L95.4208 25.8845C96.4616 25.2732 97.234 24.4438 97.7321 23.398L97.3709 23.226ZM95.217 25.5403C94.2637 26.1092 93.0616 26.4 91.5995 26.4V26.8C93.1134 26.8 94.3913 26.4988 95.422 25.8837L95.217 25.5403ZM91.5995 26.4C89.6471 26.4 88.0856 25.9358 86.8971 25.0252L86.6539 25.3428C87.9295 26.3202 89.5839 26.8 91.5995 26.8V26.4ZM86.8958 25.0242C85.71 24.131 85.0326 22.918 84.8623 21.3701L84.4647 21.4139C84.6464 23.066 85.377 24.381 86.6552 25.3438L86.8958 25.0242ZM84.6635 21.592H88.7195V21.192H84.6635V21.592ZM88.5255 21.4405C88.6672 22.0073 89.0062 22.45 89.5286 22.7635L89.7344 22.4205C89.2968 22.158 89.0278 21.8007 88.9135 21.3435L88.5255 21.4405ZM89.5245 22.761C90.0434 23.0896 90.6747 23.248 91.4075 23.248V22.848C90.7323 22.848 90.1796 22.7024 89.7385 22.423L89.5245 22.761ZM91.4075 23.248C92.2967 23.248 93.0238 22.9865 93.5649 22.4454L93.2821 22.1626C92.8312 22.6135 92.2143 22.848 91.4075 22.848V23.248ZM93.5603 22.4499C94.1297 21.9161 94.3915 21.0744 94.3915 19.976H93.9915C93.9915 21.0216 93.7413 21.7319 93.2867 22.1581L93.5603 22.4499ZM94.3915 19.976V18.08H93.9915V19.976H94.3915ZM94.0231 17.9721C93.6422 18.5663 93.1152 19.0566 92.4367 19.4421L92.6343 19.7899C93.3638 19.3754 93.9408 18.8417 94.3599 18.1879L94.0231 17.9721ZM92.4397 19.4404C91.7699 19.8058 90.98 19.992 90.0635 19.992V20.392C91.035 20.392 91.8931 20.1942 92.6313 19.7916L92.4397 19.4404ZM90.0635 19.992C88.9952 19.992 88.0323 19.7216 87.1695 19.1824L86.9575 19.5216C87.8868 20.1024 88.9238 20.392 90.0635 20.392V19.992ZM87.1717 19.1838C86.3083 18.6288 85.6193 17.8489 85.1058 16.8375L84.7492 17.0185C85.2917 18.0871 86.0267 18.9232 86.9554 19.5202L87.1717 19.1838ZM85.1075 16.8407C84.6107 15.8163 84.3595 14.631 84.3595 13.28H83.9595C83.9595 14.681 84.2203 15.9277 84.7475 17.0153L85.1075 16.8407ZM84.3595 13.28C84.3595 11.9289 84.6108 10.7522 85.1069 9.74434L84.7481 9.56766C84.2202 10.6398 83.9595 11.8791 83.9595 13.28H84.3595ZM85.1058 9.74654C85.6191 8.73551 86.3075 7.96435 87.1695 7.4256L86.9575 7.0864C86.0275 7.66765 85.2919 8.49649 84.7492 9.56546L85.1058 9.74654ZM87.1695 7.4256C88.0323 6.88638 88.9952 6.616 90.0635 6.616V6.216C88.9238 6.216 87.8868 6.50562 86.9575 7.0864L87.1695 7.4256ZM94.3915 13.304C94.3915 12.2411 94.0914 11.3783 93.4708 10.7405L93.1842 11.0195C93.7156 11.5657 93.9915 12.3189 93.9915 13.304H94.3915ZM93.4728 10.7426C92.875 10.1106 92.1344 9.792 91.2635 9.792V10.192C92.0246 10.192 92.66 10.4654 93.1822 11.0174L93.4728 10.7426ZM91.2635 9.792C90.3928 9.792 89.6453 10.1104 89.0322 10.7405L89.3188 11.0195C89.8577 10.4656 90.5022 10.192 91.2635 10.192V9.792ZM89.0321 10.7406C88.4266 11.3634 88.1355 12.2189 88.1355 13.28H88.5355C88.5355 12.2931 88.8044 11.5486 89.3189 11.0194L89.0321 10.7406ZM88.1355 13.28C88.1355 14.3417 88.4267 15.2103 89.0284 15.8635L89.3226 15.5925C88.8043 15.0297 88.5355 14.2663 88.5355 13.28H88.1355ZM89.0322 15.8675C89.6453 16.4976 90.3928 16.816 91.2635 16.816V16.416C90.5022 16.416 89.8577 16.1424 89.3188 15.5885L89.0322 15.8675ZM91.2635 16.816C92.1344 16.816 92.875 16.4974 93.4728 15.8654L93.1822 15.5906C92.66 16.1426 92.0246 16.416 91.2635 16.416V16.816ZM93.4708 15.8675C94.0914 15.2297 94.3915 14.3669 94.3915 13.304H93.9915C93.9915 14.2891 93.7156 15.0423 93.1842 15.5885L93.4708 15.8675ZM113.889 6.608H114.089V6.408H113.889V6.608ZM113.889 20V20.2H114.089V20H113.889ZM109.785 20H109.585V20.2H109.785V20ZM109.785 18.176H109.985V17.5435L109.621 18.061L109.785 18.176ZM108.081 19.616L108.17 19.7949L108.172 19.7941L108.081 19.616ZM103.017 19.472L102.915 19.6441L102.917 19.6456L103.017 19.472ZM101.193 17.48L101.014 17.5694L101.014 17.5694L101.193 17.48ZM100.545 6.608V6.408H100.345V6.608H100.545ZM104.625 6.608H104.825V6.408H104.625V6.608ZM105.321 15.968L105.175 16.1046L105.175 16.1046L105.321 15.968ZM109.785 6.608V6.408H109.585V6.608H109.785ZM113.689 6.608V20H114.089V6.608H113.689ZM113.889 19.8H109.785V20.2H113.889V19.8ZM109.985 20V18.176H109.585V20H109.985ZM109.621 18.061C109.226 18.6234 108.684 19.083 107.99 19.4379L108.172 19.7941C108.917 19.413 109.511 18.9126 109.948 18.291L109.621 18.061ZM107.991 19.4371C107.318 19.7739 106.565 19.944 105.729 19.944V20.344C106.621 20.344 107.436 20.1621 108.17 19.7949L107.991 19.4371ZM105.729 19.944C104.735 19.944 103.866 19.7269 103.116 19.2984L102.917 19.6456C103.735 20.1131 104.674 20.344 105.729 20.344V19.944ZM103.118 19.2999C102.37 18.8567 101.787 18.2223 101.371 17.3906L101.014 17.5694C101.462 18.4657 102.096 19.1593 102.915 19.6441L103.118 19.2999ZM101.371 17.3906C100.956 16.5595 100.745 15.5754 100.745 14.432H100.345C100.345 15.6246 100.565 16.6725 101.014 17.5694L101.371 17.3906ZM100.745 14.432V6.608H100.345V14.432H100.745ZM100.545 6.808H104.625V6.408H100.545V6.808ZM104.425 6.608V13.88H104.825V6.608H104.425ZM104.425 13.88C104.425 14.8101 104.666 15.561 105.175 16.1046L105.467 15.8314C105.047 15.383 104.825 14.7419 104.825 13.88H104.425ZM105.175 16.1046C105.682 16.6474 106.363 16.912 107.193 16.912V16.512C106.455 16.512 105.887 16.2806 105.467 15.8314L105.175 16.1046ZM107.193 16.912C108.037 16.912 108.726 16.6483 109.235 16.1046L108.943 15.8314C108.523 16.2797 107.948 16.512 107.193 16.512V16.912ZM109.235 16.1046C109.743 15.561 109.985 14.8101 109.985 13.88H109.585C109.585 14.7419 109.362 15.383 108.943 15.8314L109.235 16.1046ZM109.985 13.88V6.608H109.585V13.88H109.985ZM109.785 6.808H113.889V6.408H109.785V6.808ZM116.188 9.656L116.01 9.56545L116.009 9.56766L116.188 9.656ZM118.324 7.256L118.43 7.4256L118.43 7.4256L118.324 7.256ZM123.796 6.992L123.701 7.16759L123.702 7.16847L123.796 6.992ZM125.452 8.504L125.282 8.60882L125.652 9.21061V8.504H125.452ZM125.452 6.608V6.408H125.252V6.608H125.452ZM129.556 6.608H129.756V6.408H129.556V6.608ZM129.556 20V20.2H129.756V20H129.556ZM125.452 20H125.252V20.2H125.452V20ZM125.452 18.104H125.652V17.4214L125.284 17.9961L125.452 18.104ZM123.772 19.616L123.678 19.4395L123.677 19.4404L123.772 19.616ZM118.324 19.352L118.216 19.5202L118.218 19.5216L118.324 19.352ZM116.188 16.928L116.008 17.0153L116.01 17.0185L116.188 16.928ZM124.588 10.88L124.443 11.0175L124.445 11.0195L124.588 10.88ZM120.436 10.88L120.293 10.7405L120.293 10.7406L120.436 10.88ZM120.436 15.728L120.289 15.8635L120.293 15.8675L120.436 15.728ZM124.588 15.728L124.445 15.5885L124.443 15.5906L124.588 15.728ZM115.62 13.28C115.62 11.9289 115.872 10.7522 116.368 9.74434L116.009 9.56766C115.481 10.6398 115.22 11.8791 115.22 13.28H115.62ZM116.367 9.74654C116.88 8.73551 117.568 7.96435 118.43 7.4256L118.218 7.0864C117.288 7.66765 116.553 8.49649 116.01 9.56546L116.367 9.74654ZM118.43 7.4256C119.293 6.88638 120.256 6.616 121.324 6.616V6.216C120.185 6.216 119.148 6.50562 118.218 7.0864L118.43 7.4256ZM121.324 6.616C122.241 6.616 123.031 6.80222 123.701 7.16758L123.892 6.81642C123.154 6.41377 122.296 6.216 121.324 6.216V6.616ZM123.702 7.16847C124.395 7.53772 124.919 8.01838 125.282 8.60882L125.623 8.39918C125.218 7.74162 124.638 7.21428 123.891 6.81553L123.702 7.16847ZM125.652 8.504V6.608H125.252V8.504H125.652ZM125.452 6.808H129.556V6.408H125.452V6.808ZM129.356 6.608V20H129.756V6.608H129.356ZM129.556 19.8H125.452V20.2H129.556V19.8ZM125.652 20V18.104H125.252V20H125.652ZM125.284 17.9961C124.904 18.5884 124.371 19.07 123.678 19.4395L123.867 19.7925C124.614 19.394 125.201 18.8676 125.621 18.2119L125.284 17.9961ZM123.677 19.4404C123.007 19.8058 122.217 19.992 121.3 19.992V20.392C122.272 20.392 123.13 20.1942 123.868 19.7916L123.677 19.4404ZM121.3 19.992C120.249 19.992 119.294 19.7219 118.43 19.1824L118.218 19.5216C119.147 20.1021 120.176 20.392 121.3 20.392V19.992ZM118.433 19.1838C117.569 18.6288 116.88 17.8489 116.367 16.8375L116.01 17.0185C116.553 18.0871 117.288 18.9232 118.216 19.5202L118.433 19.1838ZM116.368 16.8407C115.872 15.8163 115.62 14.631 115.62 13.28H115.22C115.22 14.681 115.481 15.9277 116.008 17.0153L116.368 16.8407ZM125.652 13.304C125.652 12.2411 125.352 11.3783 124.732 10.7405L124.445 11.0195C124.977 11.5657 125.252 12.3189 125.252 13.304H125.652ZM124.734 10.7426C124.136 10.1106 123.395 9.792 122.524 9.792V10.192C123.286 10.192 123.921 10.4654 124.443 11.0174L124.734 10.7426ZM122.524 9.792C121.654 9.792 120.906 10.1104 120.293 10.7405L120.58 11.0195C121.119 10.4656 121.763 10.192 122.524 10.192V9.792ZM120.293 10.7406C119.688 11.3634 119.396 12.2189 119.396 13.28H119.796C119.796 12.2931 120.065 11.5486 120.58 11.0194L120.293 10.7406ZM119.396 13.28C119.396 14.3417 119.688 15.2103 120.289 15.8635L120.584 15.5925C120.065 15.0297 119.796 14.2663 119.796 13.28H119.396ZM120.293 15.8675C120.906 16.4976 121.654 16.816 122.524 16.816V16.416C121.763 16.416 121.119 16.1424 120.58 15.5885L120.293 15.8675ZM122.524 16.816C123.395 16.816 124.136 16.4974 124.734 15.8654L124.443 15.5906C123.921 16.1426 123.286 16.416 122.524 16.416V16.816ZM124.732 15.8675C125.352 15.2297 125.652 14.3669 125.652 13.304H125.252C125.252 14.2891 124.977 15.0423 124.445 15.5885L124.732 15.8675ZM136.03 8.84H135.83V9.51279L136.197 8.94925L136.03 8.84ZM137.83 7.112L137.93 7.2852L137.932 7.2835L137.83 7.112ZM140.23 6.464H140.43V6.264H140.23V6.464ZM140.23 10.808V11.008H140.43V10.808H140.23ZM136.798 11.48L136.926 11.6329L136.929 11.6305L136.798 11.48ZM136.03 20V20.2H136.23V20H136.03ZM131.926 20H131.726V20.2H131.926V20ZM131.926 6.608V6.408H131.726V6.608H131.926ZM136.03 6.608H136.23V6.408H136.03V6.608ZM136.197 8.94925C136.661 8.23803 137.238 7.68457 137.93 7.28517L137.729 6.93883C136.981 7.37143 136.358 7.96997 135.862 8.73075L136.197 8.94925ZM137.932 7.2835C138.62 6.87106 139.384 6.664 140.23 6.664V6.264C139.315 6.264 138.479 6.48894 137.727 6.9405L137.932 7.2835ZM140.03 6.464V10.808H140.43V6.464H140.03ZM140.23 10.608H139.102V11.008H140.23V10.608ZM139.102 10.608C138.053 10.608 137.229 10.8368 136.666 11.3295L136.929 11.6305C137.39 11.2272 138.102 11.008 139.102 11.008V10.608ZM136.669 11.3271C136.089 11.816 135.83 12.6583 135.83 13.784H136.23C136.23 12.7017 136.482 12.008 136.926 11.6329L136.669 11.3271ZM135.83 13.784V20H136.23V13.784H135.83ZM136.03 19.8H131.926V20.2H136.03V19.8ZM132.126 20V6.608H131.726V20H132.126ZM131.926 6.808H136.03V6.408H131.926V6.808ZM135.83 6.608V8.84H136.23V6.608H135.83ZM145.431 16.616L145.278 16.4871L145.001 16.816H145.431V16.616ZM151.239 16.616H151.439V16.416H151.239V16.616ZM151.239 20V20.2H151.439V20H151.239ZM140.847 20H140.647V20.2H140.847V20ZM140.847 16.736L140.693 16.6087L140.647 16.6641V16.736H140.847ZM146.415 9.992L146.569 10.1193L146.84 9.792H146.415V9.992ZM140.895 9.992H140.695V10.192H140.895V9.992ZM140.895 6.608V6.408H140.695V6.608H140.895ZM151.119 6.608H151.319V6.408H151.119V6.608ZM151.119 9.872L151.272 10.0009L151.319 9.94508V9.872H151.119ZM145.431 16.816H151.239V16.416H145.431V16.816ZM151.039 16.616V20H151.439V16.616H151.039ZM151.239 19.8H140.847V20.2H151.239V19.8ZM141.047 20V16.736H140.647V20H141.047ZM141.001 16.8633L146.569 10.1193L146.261 9.86467L140.693 16.6087L141.001 16.8633ZM146.415 9.792H140.895V10.192H146.415V9.792ZM141.095 9.992V6.608H140.695V9.992H141.095ZM140.895 6.808H151.119V6.408H140.895V6.808ZM150.919 6.608V9.872H151.319V6.608H150.919ZM150.966 9.74306L145.278 16.4871L145.584 16.7449L151.272 10.0009L150.966 9.74306Z" fill="#52CC83"/>
</svg>
