<svg width="23" height="18" viewBox="0 0 23 18" fill="none" xmlns="http://www.w3.org/2000/svg">
<path d="M19.4832 16.4925C17.9721 17.2069 16.3768 17.7137 14.7381 18C14.5139 17.5861 14.311 17.1602 14.1303 16.7242C12.3848 16.9958 10.6097 16.9958 8.86421 16.7242C8.68341 17.1602 8.48052 17.586 8.25638 18C6.61665 17.7113 5.02033 17.2033 3.50768 16.4888C0.504701 11.901 -0.309361 7.42715 0.09767 3.01681C1.85629 1.67511 3.82469 0.654721 5.91731 4.117e-07C6.3885 0.654398 6.80545 1.34864 7.16372 2.07534C6.48323 2.33778 5.82643 2.66157 5.20093 3.04296C5.36555 3.16625 5.52656 3.29328 5.68213 3.41656C7.50219 2.53273 9.48869 2.07448 11.5 2.07448C13.5112 2.07448 15.4977 2.53273 17.3178 3.41656C17.4752 3.28394 17.6362 3.15691 17.799 3.04296C17.1723 2.66096 16.5143 2.33655 15.8326 2.07347C16.1904 1.3471 16.6074 0.653449 17.079 4.117e-07C19.1734 0.652094 21.1433 1.672 22.9022 3.01494C23.3798 8.12951 22.0864 12.5623 19.4832 16.4925ZM7.6793 5.72914C6.54504 5.72914 5.60796 6.79203 5.60796 8.09963C5.60796 9.40722 6.51248 10.4795 7.67568 10.4795C8.83888 10.4795 9.76872 9.40722 9.74882 8.09963C9.72892 6.79203 8.83527 5.72914 7.6793 5.72914ZM15.3206 5.72914C14.1846 5.72914 13.2511 6.79203 13.2511 8.09963C13.2511 9.40722 14.1556 10.4795 15.3206 10.4795C16.4856 10.4795 17.4082 9.40722 17.3883 8.09963C17.3684 6.79203 16.4766 5.72914 15.3206 5.72914Z" fill="white"/>
</svg>
