<svg width="23" height="18" viewBox="0 0 23 18" fill="none" xmlns="http://www.w3.org/2000/svg">
<path d="M3.51657 16.4925C5.02769 17.2069 6.62296 17.7137 8.26164 18C8.48588 17.5861 8.68877 17.1602 8.86947 16.7242C10.615 16.9958 12.39 16.9958 14.1355 16.7242C14.3163 17.1602 14.5192 17.586 14.7434 18C16.3831 17.7113 17.9794 17.2033 19.4921 16.4888C22.4951 11.901 23.3091 7.42715 22.9021 3.01681C21.1435 1.67511 19.1751 0.65472 17.0824 0C16.6113 0.654398 16.1943 1.34863 15.836 2.07534C16.5165 2.33778 17.1733 2.66157 17.7988 3.04296C17.6342 3.16625 17.4732 3.29328 17.3176 3.41656C15.4976 2.53273 13.5111 2.07448 11.4998 2.07448C9.48852 2.07448 7.50202 2.53273 5.68197 3.41656C5.52458 3.28394 5.36358 3.15691 5.20077 3.04296C5.82748 2.66096 6.48548 2.33655 7.16718 2.07347C6.80934 1.3471 6.39237 0.65345 5.92076 0C3.82636 0.652094 1.85645 1.672 0.0975075 3.01494C-0.380075 8.12951 0.913378 12.5623 3.51657 16.4925ZM15.3205 5.72914C16.4547 5.72914 17.3918 6.79203 17.3918 8.09963C17.3918 9.40722 16.4873 10.4795 15.3241 10.4795C14.1609 10.4795 13.231 9.40722 13.2509 8.09963C13.2708 6.79203 14.1645 5.72914 15.3205 5.72914ZM7.67913 5.72914C8.8152 5.72914 9.74866 6.79203 9.74866 8.09963C9.74866 9.40722 8.84415 10.4795 7.67913 10.4795C6.51412 10.4795 5.59152 9.40722 5.61142 8.09963C5.63132 6.79203 6.52317 5.72914 7.67913 5.72914Z" fill="white"/>
</svg>
