<svg width="1608" height="867" viewBox="0 0 1608 867" fill="none" xmlns="http://www.w3.org/2000/svg">
<g clip-path="url(#clip0_268_37)">
<path d="M1.32559 572.165C40.0445 596.547 84.0167 611.254 129.545 615.705C177.214 620.35 223.327 612.222 268.077 595.773C292.204 586.872 315.941 576.809 340.846 570.23C367.112 563.457 394.352 561.715 421.396 560.941C448.052 560.167 474.708 560.361 501.364 557.651C527.825 554.942 553.702 549.911 579.774 544.299C605.846 538.687 631.918 532.495 658.379 527.85C685.424 523.013 712.664 519.723 739.903 516.82C792.047 511.402 844.386 507.725 895.946 499.017C921.824 494.566 947.312 488.761 972.411 481.214C998.872 473.28 1024.56 465.346 1052.57 465.152C1077.87 464.959 1101.8 465.346 1126.12 457.412C1149.08 450.058 1170.29 438.447 1191.1 426.256C1269.32 380.781 1346.18 318.663 1439.18 307.439C1450.46 306.085 1461.94 305.697 1473.23 305.891C1476.92 306.085 1476.92 300.279 1473.23 300.086C1381.39 297.57 1302.2 350.98 1227.49 397.423C1186.82 422.579 1143.05 453.154 1094.21 458.573C1068.72 461.282 1043.23 457.799 1017.75 462.83C992.062 468.055 967.352 477.537 941.864 483.729C839.327 508.886 732.51 506.177 629.389 527.657C576.272 538.687 523.933 551.846 469.455 553.975C442.799 554.942 416.143 554.555 389.487 556.684C363.999 558.619 339.484 563.844 315.357 571.971C291.426 580.099 268.077 590.355 243.951 597.902C220.603 605.256 196.477 609.706 172.156 610.867C124.876 613.19 76.8177 603.901 34.2075 583.582C23.8954 578.744 13.9725 573.132 4.43866 567.134C1.13102 565.198 -1.78749 570.23 1.32559 572.165Z" fill="url(#paint0_linear_268_37)"/>
</g>
<path d="M350 267V867" stroke="url(#paint1_linear_268_37)"/>
<path d="M401.16 343.32V330.6H423.32V389H409.08V343.32H401.16ZM428.198 378.04C430.011 376.6 430.838 375.933 430.678 376.04C435.905 371.72 440.011 368.173 442.998 365.4C446.038 362.627 448.598 359.72 450.678 356.68C452.758 353.64 453.798 350.68 453.798 347.8C453.798 345.613 453.291 343.907 452.278 342.68C451.265 341.453 449.745 340.84 447.718 340.84C445.691 340.84 444.091 341.613 442.918 343.16C441.798 344.653 441.238 346.787 441.238 349.56H428.038C428.145 345.027 429.105 341.24 430.918 338.2C432.785 335.16 435.211 332.92 438.198 331.48C441.238 330.04 444.598 329.32 448.278 329.32C454.625 329.32 459.398 330.947 462.598 334.2C465.851 337.453 467.478 341.693 467.478 346.92C467.478 352.627 465.531 357.933 461.638 362.84C457.745 367.693 452.785 372.44 446.758 377.08H468.358V388.2H428.198V378.04ZM469.261 345.32C469.261 341 470.488 337.667 472.941 335.32C475.448 332.973 478.675 331.8 482.621 331.8C486.568 331.8 489.768 332.973 492.221 335.32C494.675 337.667 495.901 341 495.901 345.32C495.901 349.64 494.675 352.973 492.221 355.32C489.768 357.667 486.568 358.84 482.621 358.84C478.675 358.84 475.448 357.667 472.941 355.32C470.488 352.973 469.261 349.64 469.261 345.32ZM523.581 332.68L492.781 389H479.581L510.381 332.68H523.581ZM482.541 339.8C479.981 339.8 478.701 341.64 478.701 345.32C478.701 348.947 479.981 350.76 482.541 350.76C483.768 350.76 484.728 350.307 485.421 349.4C486.115 348.493 486.461 347.133 486.461 345.32C486.461 341.64 485.155 339.8 482.541 339.8ZM507.341 376.36C507.341 372.04 508.568 368.707 511.021 366.36C513.475 364.013 516.675 362.84 520.621 362.84C524.568 362.84 527.768 364.013 530.221 366.36C532.675 368.707 533.901 372.04 533.901 376.36C533.901 380.68 532.675 384.013 530.221 386.36C527.768 388.707 524.568 389.88 520.621 389.88C516.675 389.88 513.475 388.707 511.021 386.36C508.568 384.013 507.341 380.68 507.341 376.36ZM520.541 370.84C519.315 370.84 518.355 371.293 517.661 372.2C517.021 373.107 516.701 374.493 516.701 376.36C516.701 379.987 517.981 381.8 520.541 381.8C521.768 381.8 522.728 381.347 523.421 380.44C524.115 379.533 524.461 378.173 524.461 376.36C524.461 374.547 524.115 373.187 523.421 372.28C522.728 371.32 521.768 370.84 520.541 370.84Z" fill="url(#paint2_linear_268_37)"/>
<g filter="url(#filter0_b_268_37)">
<rect x="324" y="547.667" width="46.5174" height="45.1089" rx="22.5544" transform="rotate(-8.23992 324 547.667)" fill="url(#paint3_linear_268_37)" fill-opacity="0.5"/>
<rect x="324.312" y="547.9" width="45.9666" height="44.558" rx="22.279" transform="rotate(-8.23992 324.312 547.9)" stroke="url(#paint4_linear_268_37)" stroke-width="0.550826"/>
</g>
<ellipse cx="350.42" cy="566.987" rx="8.80658" ry="8.80743" fill="#52CC82"/>
<path d="M1160.16 232.32V219.6H1182.32V278H1168.08V232.32H1160.16ZM1197.28 246.64C1192.26 243.973 1189.76 239.787 1189.76 234.08C1189.76 231.2 1190.5 228.587 1192 226.24C1193.49 223.84 1195.76 221.947 1198.8 220.56C1201.84 219.12 1205.57 218.4 1210 218.4C1214.42 218.4 1218.13 219.12 1221.12 220.56C1224.16 221.947 1226.42 223.84 1227.92 226.24C1229.41 228.587 1230.16 231.2 1230.16 234.08C1230.16 236.96 1229.46 239.467 1228.08 241.6C1226.74 243.733 1224.93 245.413 1222.64 246.64C1225.52 248.027 1227.73 249.947 1229.28 252.4C1230.82 254.8 1231.6 257.627 1231.6 260.88C1231.6 264.667 1230.64 267.947 1228.72 270.72C1226.8 273.44 1224.18 275.52 1220.88 276.96C1217.62 278.4 1214 279.12 1210 279.12C1206 279.12 1202.34 278.4 1199.04 276.96C1195.78 275.52 1193.2 273.44 1191.28 270.72C1189.36 267.947 1188.4 264.667 1188.4 260.88C1188.4 257.573 1189.17 254.72 1190.72 252.32C1192.26 249.867 1194.45 247.973 1197.28 246.64ZM1216.88 236.16C1216.88 233.973 1216.24 232.293 1214.96 231.12C1213.73 229.893 1212.08 229.28 1210 229.28C1207.92 229.28 1206.24 229.893 1204.96 231.12C1203.73 232.347 1203.12 234.053 1203.12 236.24C1203.12 238.32 1203.76 239.973 1205.04 241.2C1206.32 242.373 1207.97 242.96 1210 242.96C1212.02 242.96 1213.68 242.347 1214.96 241.12C1216.24 239.893 1216.88 238.24 1216.88 236.16ZM1210 252.56C1207.49 252.56 1205.46 253.253 1203.92 254.64C1202.37 255.973 1201.6 257.84 1201.6 260.24C1201.6 262.48 1202.34 264.32 1203.84 265.76C1205.38 267.2 1207.44 267.92 1210 267.92C1212.56 267.92 1214.56 267.2 1216 265.76C1217.49 264.32 1218.24 262.48 1218.24 260.24C1218.24 257.893 1217.46 256.027 1215.92 254.64C1214.42 253.253 1212.45 252.56 1210 252.56ZM1234.43 234.32C1234.43 230 1235.66 226.667 1238.11 224.32C1240.62 221.973 1243.85 220.8 1247.79 220.8C1251.74 220.8 1254.94 221.973 1257.39 224.32C1259.85 226.667 1261.07 230 1261.07 234.32C1261.07 238.64 1259.85 241.973 1257.39 244.32C1254.94 246.667 1251.74 247.84 1247.79 247.84C1243.85 247.84 1240.62 246.667 1238.11 244.32C1235.66 241.973 1234.43 238.64 1234.43 234.32ZM1288.75 221.68L1257.95 278H1244.75L1275.55 221.68H1288.75ZM1247.71 228.8C1245.15 228.8 1243.87 230.64 1243.87 234.32C1243.87 237.947 1245.15 239.76 1247.71 239.76C1248.94 239.76 1249.9 239.307 1250.59 238.4C1251.29 237.493 1251.63 236.133 1251.63 234.32C1251.63 230.64 1250.33 228.8 1247.71 228.8ZM1272.51 265.36C1272.51 261.04 1273.74 257.707 1276.19 255.36C1278.65 253.013 1281.85 251.84 1285.79 251.84C1289.74 251.84 1292.94 253.013 1295.39 255.36C1297.85 257.707 1299.07 261.04 1299.07 265.36C1299.07 269.68 1297.85 273.013 1295.39 275.36C1292.94 277.707 1289.74 278.88 1285.79 278.88C1281.85 278.88 1278.65 277.707 1276.19 275.36C1273.74 273.013 1272.51 269.68 1272.51 265.36ZM1285.71 259.84C1284.49 259.84 1283.53 260.293 1282.83 261.2C1282.19 262.107 1281.87 263.493 1281.87 265.36C1281.87 268.987 1283.15 270.8 1285.71 270.8C1286.94 270.8 1287.9 270.347 1288.59 269.44C1289.29 268.533 1289.63 267.173 1289.63 265.36C1289.63 263.547 1289.29 262.187 1288.59 261.28C1287.9 260.32 1286.94 259.84 1285.71 259.84Z" fill="url(#paint5_linear_268_37)"/>
<path d="M1131 151V751" stroke="url(#paint6_linear_268_37)"/>
<g filter="url(#filter1_b_268_37)">
<rect x="1105" y="431.667" width="46.5174" height="45.1089" rx="22.5544" transform="rotate(-8.23992 1105 431.667)" fill="url(#paint7_linear_268_37)" fill-opacity="0.5"/>
<rect x="1105.31" y="431.9" width="45.9666" height="44.558" rx="22.279" transform="rotate(-8.23992 1105.31 431.9)" stroke="url(#paint8_linear_268_37)" stroke-width="0.550826"/>
</g>
<ellipse cx="1131.42" cy="450.987" rx="8.80658" ry="8.80743" fill="#52CC82"/>
<path d="M732 215V815" stroke="url(#paint9_linear_268_37)"/>
<g filter="url(#filter2_b_268_37)">
<rect x="706" y="495.667" width="46.5174" height="45.1089" rx="22.5544" transform="rotate(-8.23992 706 495.667)" fill="url(#paint10_linear_268_37)" fill-opacity="0.5"/>
<rect x="706.312" y="495.9" width="45.9666" height="44.558" rx="22.279" transform="rotate(-8.23992 706.312 495.9)" stroke="url(#paint11_linear_268_37)" stroke-width="0.550826"/>
</g>
<ellipse cx="732.42" cy="514.993" rx="8.80664" ry="8.80737" fill="#52CC82"/>
<path d="M771.16 273.32V260.6H793.32V319H779.08V273.32H771.16ZM839.798 272.52H814.838V283.56C815.905 282.387 817.398 281.427 819.318 280.68C821.238 279.933 823.318 279.56 825.558 279.56C829.558 279.56 832.865 280.467 835.478 282.28C838.145 284.093 840.091 286.44 841.318 289.32C842.545 292.2 843.158 295.32 843.158 298.68C843.158 304.92 841.398 309.88 837.878 313.56C834.358 317.187 829.398 319 822.998 319C818.731 319 815.025 318.28 811.878 316.84C808.731 315.347 806.305 313.293 804.598 310.68C802.891 308.067 801.958 305.053 801.798 301.64H815.158C815.478 303.293 816.251 304.68 817.478 305.8C818.705 306.867 820.385 307.4 822.518 307.4C825.025 307.4 826.891 306.6 828.118 305C829.345 303.4 829.958 301.267 829.958 298.6C829.958 295.987 829.318 293.987 828.038 292.6C826.758 291.213 824.891 290.52 822.438 290.52C820.625 290.52 819.131 290.973 817.958 291.88C816.785 292.733 816.011 293.88 815.638 295.32H802.438V260.52H839.798V272.52ZM845.589 275.32C845.589 271 846.816 267.667 849.269 265.32C851.776 262.973 855.003 261.8 858.949 261.8C862.896 261.8 866.096 262.973 868.549 265.32C871.003 267.667 872.229 271 872.229 275.32C872.229 279.64 871.003 282.973 868.549 285.32C866.096 287.667 862.896 288.84 858.949 288.84C855.003 288.84 851.776 287.667 849.269 285.32C846.816 282.973 845.589 279.64 845.589 275.32ZM899.909 262.68L869.109 319H855.909L886.709 262.68H899.909ZM858.869 269.8C856.309 269.8 855.029 271.64 855.029 275.32C855.029 278.947 856.309 280.76 858.869 280.76C860.096 280.76 861.056 280.307 861.749 279.4C862.443 278.493 862.789 277.133 862.789 275.32C862.789 271.64 861.483 269.8 858.869 269.8ZM883.669 306.36C883.669 302.04 884.896 298.707 887.349 296.36C889.803 294.013 893.003 292.84 896.949 292.84C900.896 292.84 904.096 294.013 906.549 296.36C909.003 298.707 910.229 302.04 910.229 306.36C910.229 310.68 909.003 314.013 906.549 316.36C904.096 318.707 900.896 319.88 896.949 319.88C893.003 319.88 889.803 318.707 887.349 316.36C884.896 314.013 883.669 310.68 883.669 306.36ZM896.869 300.84C895.643 300.84 894.683 301.293 893.989 302.2C893.349 303.107 893.029 304.493 893.029 306.36C893.029 309.987 894.309 311.8 896.869 311.8C898.096 311.8 899.056 311.347 899.749 310.44C900.443 309.533 900.789 308.173 900.789 306.36C900.789 304.547 900.443 303.187 899.749 302.28C899.056 301.32 898.096 300.84 896.869 300.84Z" fill="url(#paint12_linear_268_37)"/>
<path d="M1430 0V600" stroke="url(#paint13_linear_268_37)"/>
<g filter="url(#filter3_b_268_37)">
<rect x="1404" y="280.667" width="46.5174" height="45.1089" rx="22.5544" transform="rotate(-8.23992 1404 280.667)" fill="url(#paint14_linear_268_37)" fill-opacity="0.5"/>
<rect x="1404.31" y="280.9" width="45.9666" height="44.558" rx="22.279" transform="rotate(-8.23992 1404.31 280.9)" stroke="url(#paint15_linear_268_37)" stroke-width="0.550826"/>
</g>
<ellipse cx="1430.42" cy="299.987" rx="8.80658" ry="8.80743" fill="#52CC82"/>
<path d="M1460.12 140.04C1461.93 138.6 1462.76 137.933 1462.6 138.04C1467.83 133.72 1471.93 130.173 1474.92 127.4C1477.96 124.627 1480.52 121.72 1482.6 118.68C1484.68 115.64 1485.72 112.68 1485.72 109.8C1485.72 107.613 1485.21 105.907 1484.2 104.68C1483.19 103.453 1481.67 102.84 1479.64 102.84C1477.61 102.84 1476.01 103.613 1474.84 105.16C1473.72 106.653 1473.16 108.787 1473.16 111.56H1459.96C1460.07 107.027 1461.03 103.24 1462.84 100.2C1464.71 97.16 1467.13 94.92 1470.12 93.48C1473.16 92.04 1476.52 91.32 1480.2 91.32C1486.55 91.32 1491.32 92.9467 1494.52 96.2C1497.77 99.4533 1499.4 103.693 1499.4 108.92C1499.4 114.627 1497.45 119.933 1493.56 124.84C1489.67 129.693 1484.71 134.44 1478.68 139.08H1500.28V150.2H1460.12V140.04ZM1539.58 102.84L1519.5 151H1505.5L1525.82 104.36H1500.94V92.68H1539.58V102.84ZM1540 107.32C1540 103 1541.22 99.6667 1543.68 97.32C1546.18 94.9733 1549.41 93.8 1553.36 93.8C1557.3 93.8 1560.5 94.9733 1562.96 97.32C1565.41 99.6667 1566.64 103 1566.64 107.32C1566.64 111.64 1565.41 114.973 1562.96 117.32C1560.5 119.667 1557.3 120.84 1553.36 120.84C1549.41 120.84 1546.18 119.667 1543.68 117.32C1541.22 114.973 1540 111.64 1540 107.32ZM1594.32 94.68L1563.52 151H1550.32L1581.12 94.68H1594.32ZM1553.28 101.8C1550.72 101.8 1549.44 103.64 1549.44 107.32C1549.44 110.947 1550.72 112.76 1553.28 112.76C1554.5 112.76 1555.46 112.307 1556.16 111.4C1556.85 110.493 1557.2 109.133 1557.2 107.32C1557.2 103.64 1555.89 101.8 1553.28 101.8ZM1578.08 138.36C1578.08 134.04 1579.3 130.707 1581.76 128.36C1584.21 126.013 1587.41 124.84 1591.36 124.84C1595.3 124.84 1598.5 126.013 1600.96 128.36C1603.41 130.707 1604.64 134.04 1604.64 138.36C1604.64 142.68 1603.41 146.013 1600.96 148.36C1598.5 150.707 1595.3 151.88 1591.36 151.88C1587.41 151.88 1584.21 150.707 1581.76 148.36C1579.3 146.013 1578.08 142.68 1578.08 138.36ZM1591.28 132.84C1590.05 132.84 1589.09 133.293 1588.4 134.2C1587.76 135.107 1587.44 136.493 1587.44 138.36C1587.44 141.987 1588.72 143.8 1591.28 143.8C1592.5 143.8 1593.46 143.347 1594.16 142.44C1594.85 141.533 1595.2 140.173 1595.2 138.36C1595.2 136.547 1594.85 135.187 1594.16 134.28C1593.46 133.32 1592.5 132.84 1591.28 132.84Z" fill="url(#paint16_linear_268_37)"/>
<defs>
<filter id="filter0_b_268_37" x="321.764" y="538.764" width="56.9745" height="55.7821" filterUnits="userSpaceOnUse" color-interpolation-filters="sRGB">
<feFlood flood-opacity="0" result="BackgroundImageFix"/>
<feGaussianBlur in="BackgroundImage" stdDeviation="2.61642"/>
<feComposite in2="SourceAlpha" operator="in" result="effect1_backgroundBlur_268_37"/>
<feBlend mode="normal" in="SourceGraphic" in2="effect1_backgroundBlur_268_37" result="shape"/>
</filter>
<filter id="filter1_b_268_37" x="1102.76" y="422.764" width="56.9745" height="55.7823" filterUnits="userSpaceOnUse" color-interpolation-filters="sRGB">
<feFlood flood-opacity="0" result="BackgroundImageFix"/>
<feGaussianBlur in="BackgroundImage" stdDeviation="2.61642"/>
<feComposite in2="SourceAlpha" operator="in" result="effect1_backgroundBlur_268_37"/>
<feBlend mode="normal" in="SourceGraphic" in2="effect1_backgroundBlur_268_37" result="shape"/>
</filter>
<filter id="filter2_b_268_37" x="703.764" y="486.764" width="56.9745" height="55.7821" filterUnits="userSpaceOnUse" color-interpolation-filters="sRGB">
<feFlood flood-opacity="0" result="BackgroundImageFix"/>
<feGaussianBlur in="BackgroundImage" stdDeviation="2.61642"/>
<feComposite in2="SourceAlpha" operator="in" result="effect1_backgroundBlur_268_37"/>
<feBlend mode="normal" in="SourceGraphic" in2="effect1_backgroundBlur_268_37" result="shape"/>
</filter>
<filter id="filter3_b_268_37" x="1401.76" y="271.764" width="56.9745" height="55.7823" filterUnits="userSpaceOnUse" color-interpolation-filters="sRGB">
<feFlood flood-opacity="0" result="BackgroundImageFix"/>
<feGaussianBlur in="BackgroundImage" stdDeviation="2.61642"/>
<feComposite in2="SourceAlpha" operator="in" result="effect1_backgroundBlur_268_37"/>
<feBlend mode="normal" in="SourceGraphic" in2="effect1_backgroundBlur_268_37" result="shape"/>
</filter>
<linearGradient id="paint0_linear_268_37" x1="738" y1="300" x2="738" y2="617" gradientUnits="userSpaceOnUse">
<stop stop-color="#0E734B" stop-opacity="0"/>
<stop offset="0.604167" stop-color="#0E734B"/>
<stop offset="1" stop-color="#0E734B" stop-opacity="0"/>
</linearGradient>
<linearGradient id="paint1_linear_268_37" x1="350.5" y1="267" x2="350.5" y2="867" gradientUnits="userSpaceOnUse">
<stop stop-color="#52CC82" stop-opacity="0.222222"/>
<stop offset="0.578125" stop-color="#52CC82"/>
<stop offset="1" stop-color="#52CC82" stop-opacity="0"/>
</linearGradient>
<linearGradient id="paint2_linear_268_37" x1="399" y1="361" x2="556.881" y2="361" gradientUnits="userSpaceOnUse">
<stop stop-color="#114B45"/>
<stop offset="1" stop-color="#52CC82" stop-opacity="0.19"/>
</linearGradient>
<linearGradient id="paint3_linear_268_37" x1="382.624" y1="603.954" x2="347.747" y2="532.92" gradientUnits="userSpaceOnUse">
<stop offset="0.140625" stop-opacity="0.33"/>
<stop offset="0.6875" stop-color="#060302" stop-opacity="0.19"/>
<stop offset="0.9999" stop-color="#703219" stop-opacity="0"/>
<stop offset="1" stop-color="#070711" stop-opacity="0"/>
</linearGradient>
<linearGradient id="paint4_linear_268_37" x1="347.259" y1="547.667" x2="347.259" y2="592.775" gradientUnits="userSpaceOnUse">
<stop stop-color="#52CC82"/>
<stop offset="1" stop-color="#28E8FF"/>
</linearGradient>
<linearGradient id="paint5_linear_268_37" x1="1158" y1="250" x2="1322.75" y2="250" gradientUnits="userSpaceOnUse">
<stop stop-color="#114B45"/>
<stop offset="1" stop-color="#52CC82" stop-opacity="0.19"/>
</linearGradient>
<linearGradient id="paint6_linear_268_37" x1="1131.5" y1="151" x2="1131.5" y2="751" gradientUnits="userSpaceOnUse">
<stop stop-color="#52CC82" stop-opacity="0.222222"/>
<stop offset="0.578125" stop-color="#52CC82"/>
<stop offset="1" stop-color="#52CC82" stop-opacity="0"/>
</linearGradient>
<linearGradient id="paint7_linear_268_37" x1="1163.62" y1="487.954" x2="1128.75" y2="416.92" gradientUnits="userSpaceOnUse">
<stop offset="0.140625" stop-opacity="0.33"/>
<stop offset="0.6875" stop-color="#060302" stop-opacity="0.19"/>
<stop offset="0.9999" stop-color="#703219" stop-opacity="0"/>
<stop offset="1" stop-color="#070711" stop-opacity="0"/>
</linearGradient>
<linearGradient id="paint8_linear_268_37" x1="1128.26" y1="431.667" x2="1128.26" y2="476.776" gradientUnits="userSpaceOnUse">
<stop stop-color="#52CC82"/>
<stop offset="1" stop-color="#28E8FF"/>
</linearGradient>
<linearGradient id="paint9_linear_268_37" x1="732.5" y1="215" x2="732.5" y2="815" gradientUnits="userSpaceOnUse">
<stop stop-color="#52CC82" stop-opacity="0.222222"/>
<stop offset="0.578125" stop-color="#52CC82"/>
<stop offset="1" stop-color="#52CC82" stop-opacity="0"/>
</linearGradient>
<linearGradient id="paint10_linear_268_37" x1="764.624" y1="551.954" x2="729.747" y2="480.92" gradientUnits="userSpaceOnUse">
<stop offset="0.140625" stop-opacity="0.33"/>
<stop offset="0.6875" stop-color="#060302" stop-opacity="0.19"/>
<stop offset="0.9999" stop-color="#703219" stop-opacity="0"/>
<stop offset="1" stop-color="#070711" stop-opacity="0"/>
</linearGradient>
<linearGradient id="paint11_linear_268_37" x1="729.259" y1="495.667" x2="729.259" y2="540.776" gradientUnits="userSpaceOnUse">
<stop stop-color="#52CC82"/>
<stop offset="1" stop-color="#28E8FF"/>
</linearGradient>
<linearGradient id="paint12_linear_268_37" x1="769" y1="291" x2="933.746" y2="291" gradientUnits="userSpaceOnUse">
<stop stop-color="#114B45"/>
<stop offset="1" stop-color="#52CC82" stop-opacity="0.19"/>
</linearGradient>
<linearGradient id="paint13_linear_268_37" x1="1430.5" y1="0" x2="1430.5" y2="600" gradientUnits="userSpaceOnUse">
<stop stop-color="#52CC82" stop-opacity="0.222222"/>
<stop offset="0.578125" stop-color="#52CC82"/>
<stop offset="1" stop-color="#52CC82" stop-opacity="0"/>
</linearGradient>
<linearGradient id="paint14_linear_268_37" x1="1462.62" y1="336.954" x2="1427.75" y2="265.92" gradientUnits="userSpaceOnUse">
<stop offset="0.140625" stop-opacity="0.33"/>
<stop offset="0.6875" stop-color="#060302" stop-opacity="0.19"/>
<stop offset="0.9999" stop-color="#703219" stop-opacity="0"/>
<stop offset="1" stop-color="#070711" stop-opacity="0"/>
</linearGradient>
<linearGradient id="paint15_linear_268_37" x1="1427.26" y1="280.667" x2="1427.26" y2="325.776" gradientUnits="userSpaceOnUse">
<stop stop-color="#52CC82"/>
<stop offset="1" stop-color="#28E8FF"/>
</linearGradient>
<linearGradient id="paint16_linear_268_37" x1="1457" y1="123" x2="1629.75" y2="123" gradientUnits="userSpaceOnUse">
<stop stop-color="#114B45"/>
<stop offset="1" stop-color="#52CC82" stop-opacity="0.19"/>
</linearGradient>
<clipPath id="clip0_268_37">
<rect width="1476" height="317" fill="white" transform="translate(0 300)"/>
</clipPath>
</defs>
</svg>
