<svg width="23" height="19" viewBox="0 0 23 19" fill="none" xmlns="http://www.w3.org/2000/svg">
<path d="M3.09795 8.33283C3.13451 8.51398 3.18224 8.69214 3.23042 8.87193C4.69836 14.3504 10.1789 19.6538 17.1047 17.798L17.1038 17.7948C19.1506 17.2498 20.981 16.0677 22.3773 14.3896C22.0904 14.5087 21.7967 14.6085 21.4972 14.6896C19.8022 15.1456 17.9873 14.9605 16.3444 14.1644C17.9466 13.699 19.0495 12.1637 19.0906 10.3426C18.5583 10.6137 17.9701 10.7449 17.3715 10.7267C19.0234 9.86523 19.8318 7.82717 19.303 5.85352C19.2981 5.83546 19.2935 5.81822 19.2889 5.80098C18.8515 6.26223 18.3132 6.59741 17.719 6.77773C19.0473 5.1169 18.9079 2.5567 17.401 0.929575C16.1834 4.03202 13.7848 6.36243 10.8016 7.34039C10.7192 5.81908 9.90035 4.42118 8.6509 3.67102C6.71377 2.50764 4.3502 3.22719 3.37187 5.27824C2.47956 5.32111 1.58005 5.19696 0.711077 4.9124C1.24932 5.79681 2.05603 6.45443 2.98069 6.7619C2.2084 6.865 1.42026 6.84036 0.643604 6.68858C1.37261 7.38725 2.20403 7.94321 3.09795 8.33283Z" fill="white"/>
</svg>
